<svg xmlns:xlink="http://www.w3.org/1999/xlink" xmlns="http://www.w3.org/2000/svg" id="exportSvg" width="522" height="400"><defs/><g><g id="header-svg"><g id="text-svg"><text transform="translate(0, -2)" fill="rgb(51,51,51)" style="font-family: BentonSans; font-weight: 700; font-size: 19px;"><tspan x="0" dy="19">Rebounding restaurants</tspan></text></g><g id="text-svg"><text transform="translate(0, 31)" fill="rgb(51,51,51)" style="font-family: BentonSans; font-weight: 400; font-size: 15px;"><tspan x="0" dy="15">Many bars and restaurants have reopened outdoor and indoor dining, and </tspan></text><text transform="translate(0, 51)" fill="rgb(51,51,51)" style="font-family: BentonSans; font-weight: 400; font-size: 15px;"><tspan x="0" dy="15">patrons are returning – though the rate has slowed.</tspan></text></g><g id="text-svg"><text transform="translate(0, 80)" fill="rgb(51,51,51)" style="font-family: BentonSans; font-weight: 400; font-size: 12px; letter-spacing: 0.2px;"><tspan x="0" dy="12">PERCENT CHANGE IN SEATED DINERS COMPARED TO 2019</tspan></text></g></g><g id="chart-svg"><g id="group-svg" clip-path="url(#rect-mask-group-0)" transform="translate(0, 104)"><clipPath id="rect-mask-group-0"><rect x="0" y="0" width="522" height="255"/></clipPath><g id="group-svg" transform="translate(46, 34)"><g id="x-svg ticks-svg" transform="translate(0, 208)"><g transform="translate(43.418769611758776, 0)"><text transform="translate(-11.5, -12) translate(11.5, 11)" fill="rgb(133, 133, 133)" style="text-anchor: middle; font-family: BentonSans; font-weight: 400; font-size: 12px;"><tspan x="0" dy="12">Mar</tspan></text></g><g transform="translate(130.7985965101697, 0)"><text transform="translate(-10, -12) translate(10, 11)" fill="rgb(133, 133, 133)" style="text-anchor: middle; font-family: BentonSans; font-weight: 400; font-size: 12px;"><tspan x="0" dy="12">Apr</tspan></text></g><g transform="translate(215.3597193150835, 0)"><text transform="translate(-12.500007629394531, -12) translate(12.500007629394531, 11)" fill="rgb(133, 133, 133)" style="text-anchor: middle; font-family: BentonSans; font-weight: 400; font-size: 12px;"><tspan x="0" dy="12">May</tspan></text></g><g transform="translate(302.7395462134944, 0)"><text transform="translate(-10, -12) translate(10, 11)" fill="rgb(133, 133, 133)" style="text-anchor: middle; font-family: BentonSans; font-weight: 400; font-size: 12px;"><tspan x="0" dy="12">Jun</tspan></text></g><g transform="translate(387.30066901840826, 0)"><text transform="translate(-8, -12) translate(8, 11)" fill="rgb(133, 133, 133)" style="text-anchor: middle; font-family: BentonSans; font-weight: 400; font-size: 12px;"><tspan x="0" dy="12">Jul</tspan></text></g></g><g id="x-svg axis-svg" transform="translate(0, 76.125)"><line x1="0" x2="473" y1="0" y2="0" style="stroke: rgb(51, 51, 51); stroke-width: 1;"/></g><g id="y-grid-svg"><g transform="translate(0, 203)"><line x1="0" x2="473" y1="0" y2="0" style="stroke: rgb(238, 238, 238); stroke-width: 1;"/><text transform="translate(-4, 4) translate(-41, -12) translate(41, 0)" fill="rgb(133, 133, 133)" style="text-anchor: end; font-family: BentonSans; font-weight: 400; font-size: 12px;"><tspan x="0" dy="12">−100%</tspan></text></g><g transform="translate(0, 177.625)"><line x1="0" x2="473" y1="0" y2="0" style="stroke: rgb(238, 238, 238); stroke-width: 1;"/><text transform="translate(-4, 4) translate(-35, -12) translate(35, 0)" fill="rgb(133, 133, 133)" style="text-anchor: end; font-family: BentonSans; font-weight: 400; font-size: 12px;"><tspan x="0" dy="12">−80%</tspan></text></g><g transform="translate(0, 152.25)"><line x1="0" x2="473" y1="0" y2="0" style="stroke: rgb(238, 238, 238); stroke-width: 1;"/><text transform="translate(-4, 4) translate(-35, -12) translate(35, 0)" fill="rgb(133, 133, 133)" style="text-anchor: end; font-family: BentonSans; font-weight: 400; font-size: 12px;"><tspan x="0" dy="12">−60%</tspan></text></g><g transform="translate(0, 126.875)"><line x1="0" x2="473" y1="0" y2="0" style="stroke: rgb(238, 238, 238); stroke-width: 1;"/><text transform="translate(-4, 4) translate(-35, -12) translate(35, 0)" fill="rgb(133, 133, 133)" style="text-anchor: end; font-family: BentonSans; font-weight: 400; font-size: 12px;"><tspan x="0" dy="12">−40%</tspan></text></g><g transform="translate(0, 101.5)"><line x1="0" x2="473" y1="0" y2="0" style="stroke: rgb(238, 238, 238); stroke-width: 1;"/><text transform="translate(-4, 4) translate(-35, -12) translate(35, 0)" fill="rgb(133, 133, 133)" style="text-anchor: end; font-family: BentonSans; font-weight: 400; font-size: 12px;"><tspan x="0" dy="12">−20%</tspan></text></g><g id="tick-svg tick-major-svg" transform="translate(0, 76.125)"><text transform="translate(-4, 4) translate(-20, -12) translate(20, 0)" fill="rgb(133, 133, 133)" style="text-anchor: end; font-family: BentonSans; font-weight: 400; font-size: 12px;"><tspan x="0" dy="12">0%</tspan></text></g><g transform="translate(0, 50.75)"><line x1="0" x2="473" y1="0" y2="0" style="stroke: rgb(238, 238, 238); stroke-width: 1;"/><text transform="translate(-4, 4) translate(-27, -12) translate(27, 0)" fill="rgb(133, 133, 133)" style="text-anchor: end; font-family: BentonSans; font-weight: 400; font-size: 12px;"><tspan x="0" dy="12">20%</tspan></text></g><g transform="translate(0, 25.375)"><line x1="0" x2="473" y1="0" y2="0" style="stroke: rgb(238, 238, 238); stroke-width: 1;"/><text transform="translate(-4, 4) translate(-27, -12) translate(27, 0)" fill="rgb(133, 133, 133)" style="text-anchor: end; font-family: BentonSans; font-weight: 400; font-size: 12px;"><tspan x="0" dy="12">40%</tspan></text></g><g><line x1="0" x2="473" y1="0" y2="0" style="stroke: rgb(238, 238, 238); stroke-width: 1;"/><text transform="translate(-4, 4) translate(-27, -12) translate(27, 0)" fill="rgb(133, 133, 133)" style="text-anchor: end; font-family: BentonSans; font-weight: 400; font-size: 12px;"><tspan x="0" dy="12">60%</tspan></text></g></g><g id="lines-svg"><g id="Minneapolis-svg"><path d="M9.594320489793256,93.8875L12.413024583290383,41.868750000000006L15.23172867678751,117.99374999999999L18.050432770284633,95.15625L20.869136863781762,60.900000000000006L23.68784095727889,34.256249999999994L26.506545050776015,53.287499999999994L29.32524914427314,41.868750000000006L32.14395323777027,60.900000000000006L34.962657331267394,39.33124999999998L37.78136142476452,26.643749999999983L40.60006551826165,62.16875000000002L43.418769611758776,58.36249999999998L46.2374737052559,100.23125L49.056177798753026,79.93125L51.87488189225015,68.51250000000002L54.693585985747276,92.61875L57.51229007924441,83.7375L60.330994172741526,-1.2687500000000114L63.14969826623866,46.943749999999994L65.96840235973578,100.23125L68.78710645323292,93.8875L71.60581054673004,97.69375L74.42451464022717,111.64999999999999L77.24321873372429,104.03750000000001L80.06192282722142,120.53125L82.88062692071854,117.99374999999999L85.69933101421567,172.55L88.5180351077128,203L91.33673920120992,203L94.15544329470706,203L96.97414738820417,203L99.7928514817013,203L102.61155557519844,203L105.43025966869557,203L108.24896376219269,203L111.0676678556898,203L113.88637194918694,203L116.70507604268406,203L119.52378013618119,203L122.34248422967833,203L125.16118832317545,203L127.97989241667257,203L130.7985965101697,203L133.61730060366685,203L136.43600469716395,203L139.25470879066108,203L142.0734128841582,203L144.89211697765532,203L147.71082107115248,203L150.52952516464958,203L153.34822925814672,203L156.16693335164382,203L158.98563744514098,203L161.80434153863808,203L164.62304563213522,203L167.44174972563235,203L170.26045381912945,203L173.0791579126266,203L175.89786200612372,203L178.71656609962085,203L181.53527019311798,203L184.35397428661508,203L187.17267838011225,203L189.99138247360935,203L192.81008656710648,203L195.6287906606036,203L198.44749475410075,203L201.26619884759788,203L204.08490294109498,203L206.9036070345921,203L209.72231112808922,203L212.54101522158638,203L215.3597193150835,203L218.1784234085806,203L220.99712750207775,203L223.81583159557488,203L226.634535689072,203L229.4532397825691,203L232.27194387606625,203L235.09064796956338,203L237.90935206306048,203L240.72805615655764,203L243.54676025005477,203L246.36546434355188,203L249.18416843704904,203L252.0028725305461,202.517875L254.82157662404327,203L257.6402807175404,202.010375L260.4589848110375,201.62975L263.27768890453467,202.13725L266.0963929980318,202.365625L268.9150970915289,202.111875L271.73380118502604,202.467125L274.55250527852314,202.7335625L277.3712093720203,202.8096875L280.1899134655174,202.9111875L283.0086175590145,203L285.82732165251167,200.589375L288.6460257460088,201.249125L291.46472983950594,202.3783125L294.28343393300304,201.6678125L297.10213802650014,201.579L299.9208421199973,202.822375L302.7395462134944,198.9526875L305.55825030699157,199.5870625L308.37695440048867,197.97575L311.1956584939858,193.7000625L314.01436258748294,190.591625L316.83306668098004,192.0506875L319.6517707744772,181.710375L322.4704748679743,182.2051875L325.2891789614714,196.707L328.10788305496857,173.9836875L330.9265871484657,170.6215L333.74529124196283,168.89600000000002L336.56399533545994,167.2593125L339.38269942895704,176.7749375L342.2014035224542,170.46925L345.02010761595136,168.5026875L347.8388117094484,165.39425L350.65751580294557,173.4000625L353.4762198964427,152.1865625L356.29492398993983,149.9155L359.113628083437,147.64443749999998L361.93233217693404,168.210875L364.7510362704312,164.100125L367.5697403639283,153.9120625L370.38844445742546,156.0689375L373.2071485509226,154.000875L376.0258526444197,150.87975L378.84455673791683,161.6768125L381.663260831414,156.0181875L384.4819649249111,152.3134375L387.30066901840826,138.4840625L390.1193731119053,138.446L392.93807720540246,143.394125L395.7567812988996,181.405875L398.57548539239673,160.6871875L401.3941894858939,156.7033125L404.21289357939094,155.1935L407.0315976728881,159.4945625L409.85030176638526,163.643375L412.66900585988236,151.108125L415.48770995337946,151.3745625L418.30641404687657,151.5268125L421.12511814037373,166.586875L423.9438222338709,171.1924375L426.762526327368,163.795625L429.5812304208651,162.10818749999999L432.39993451436226,157.7690625L435.21863860785936,158.93631249999999L438.0373427013565,153.6329375L440.8560467948536,157.528L443.67475088835073,157.9974375L446.4934549818479,154.81287500000002L449.312159075345,136.23837500000002L452.13086316884215,149.1161875L454.94956726233926,151.463375L457.76827135583636,142.709L460.5869754493335,158.92362500000002L463.4056795428306,158.79675" stroke="rgb(107,178,244)" id="Minneapolis" style="stroke-width: 2; stroke-linejoin: round; stroke-linecap: round; fill: none; mix-blend-mode: normal;"/></g><g id="MN-svg"><path d="M9.594320489793256,90.08125L12.413024583290383,11.418750000000017L15.23172867678751,95.15625L18.050432770284633,87.54375L20.869136863781762,54.556250000000006L23.68784095727889,48.212500000000006L26.506545050776015,73.5875L29.32524914427314,52.01874999999998L32.14395323777027,77.39375L34.962657331267394,67.24375L37.78136142476452,34.256249999999994L40.60006551826165,74.85625000000002L43.418769611758776,77.39375L46.2374737052559,87.54375L49.056177798753026,78.6625L51.87488189225015,79.93125L54.693585985747276,97.69375L57.51229007924441,91.35L60.330994172741526,1.268749999999983L63.14969826623866,59.631249999999994L65.96840235973578,97.69375L68.78710645323292,91.35L71.60581054673004,98.9625L74.42451464022717,106.575L77.24321873372429,114.1875L80.06192282722142,130.68124999999998L82.88062692071854,140.83125L85.69933101421567,167.475L88.5180351077128,200.4625L91.33673920120992,203L94.15544329470706,203L96.97414738820417,203L99.7928514817013,203L102.61155557519844,203L105.43025966869557,203L108.24896376219269,203L111.0676678556898,203L113.88637194918694,203L116.70507604268406,203L119.52378013618119,203L122.34248422967833,203L125.16118832317545,203L127.97989241667257,203L130.7985965101697,203L133.61730060366685,203L136.43600469716395,203L139.25470879066108,203L142.0734128841582,203L144.89211697765532,203L147.71082107115248,203L150.52952516464958,203L153.34822925814672,203L156.16693335164382,203L158.98563744514098,203L161.80434153863808,203L164.62304563213522,203L167.44174972563235,203L170.26045381912945,203L173.0791579126266,203L175.89786200612372,203L178.71656609962085,203L181.53527019311798,203L184.35397428661508,203L187.17267838011225,203L189.99138247360935,203L192.81008656710648,203L195.6287906606036,203L198.44749475410075,203L201.26619884759788,203L204.08490294109498,203L206.9036070345921,203L209.72231112808922,203L212.54101522158638,203L215.3597193150835,203L218.1784234085806,203L220.99712750207775,203L223.81583159557488,203L226.634535689072,203L229.4532397825691,203L232.27194387606625,203L235.09064796956338,203L237.90935206306048,203L240.72805615655764,203L243.54676025005477,202.44175L246.36546434355188,202.5305625L249.18416843704904,203L252.0028725305461,202.8604375L254.82157662404327,203L257.6402807175404,202.21337499999998L260.4589848110375,202.23875L263.27768890453467,202.3529375L266.0963929980318,202.467125L268.9150970915289,202.314875L271.73380118502604,202.59400000000002L274.55250527852314,202.64475L277.3712093720203,202.6828125L280.1899134655174,202.6828125L283.0086175590145,203L285.82732165251167,201.12225L288.6460257460088,201.3125625L291.46472983950594,201.5155625L294.28343393300304,201.93425L297.10213802650014,201.908875L299.9208421199973,201.99768749999998L302.7395462134944,171.357375L305.55825030699157,183.8545625L308.37695440048867,172.60075L311.1956584939858,172.06787500000002L314.01436258748294,171.38275L316.83306668098004,173.3239375L319.6517707744772,165.6860625L322.4704748679743,168.84525L325.2891789614714,186.582375L328.10788305496857,151.438L330.9265871484657,142.5694375L333.74529124196283,141.13575L336.56399533545994,141.1484375L339.38269942895704,162.8186875L342.2014035224542,139.9685L345.02010761595136,138.95350000000002L347.8388117094484,136.035375L350.65751580294557,150.3088125L353.4762198964427,131.97537499999999L356.29492398993983,131.0365L359.113628083437,107.793L361.93233217693404,139.3595L364.7510362704312,134.360625L367.5697403639283,128.34675L370.38844445742546,129.66625L373.2071485509226,132.026125L376.0258526444197,127.560125L378.84455673791683,136.8600625L381.663260831414,133.9673125L384.4819649249111,123.550875L387.30066901840826,113.654625L390.1193731119053,104.95100000000001L392.93807720540246,124.5278125L395.7567812988996,156.513L398.57548539239673,133.7135625L401.3941894858939,129.8819375L404.21289357939094,130.1103125L407.0315976728881,139.841625L409.85030176638526,138.877375L412.66900585988236,125.58087499999999L415.48770995337946,128.9938125L418.30641404687657,126.063L421.12511814037373,137.7355L423.9438222338709,146.8324375L426.762526327368,136.66975000000002L429.5812304208651,134.360625L432.39993451436226,134.918875L435.21863860785936,139.3468125L438.0373427013565,125.834625L440.8560467948536,130.858875L443.67475088835073,138.5475L446.4934549818479,131.29025000000001L449.312159075345,125.37787499999999L452.13086316884215,130.98575L454.94956726233926,134.589L457.76827135583636,133.8658125L460.5869754493335,127.95343749999999L463.4056795428306,133.1553125" stroke="rgb(44,160,44)" id="MN" style="stroke-width: 2; stroke-linejoin: round; stroke-linecap: round; fill: none; mix-blend-mode: normal;"/></g><g id="US-svg"><path d="M9.594320489793256,76.125L12.413024583290383,71.04999999999998L15.23172867678751,76.125L18.050432770284633,77.39375L20.869136863781762,73.5875L23.68784095727889,68.51250000000002L26.506545050776015,73.5875L29.32524914427314,73.5875L32.14395323777027,77.39375L34.962657331267394,77.39375L37.78136142476452,74.85625000000002L40.60006551826165,72.31875L43.418769611758776,73.5875L46.2374737052559,85.00625L49.056177798753026,87.54375L51.87488189225015,82.46875L54.693585985747276,82.46875L57.51229007924441,83.7375L60.330994172741526,79.93125L63.14969826623866,78.6625L65.96840235973578,93.8875L68.78710645323292,98.9625L71.60581054673004,100.23125L74.42451464022717,111.64999999999999L77.24321873372429,121.8L80.06192282722142,129.41250000000002L82.88062692071854,137.02499999999998L85.69933101421567,147.175L88.5180351077128,182.7L91.33673920120992,191.58125L94.15544329470706,199.878875L96.97414738820417,202.1753125L99.7928514817013,202.8604375L102.61155557519844,202.9111875L105.43025966869557,202.9619375L108.24896376219269,202.9619375L111.0676678556898,202.974625L113.88637194918694,202.974625L116.70507604268406,202.9873125L119.52378013618119,202.974625L122.34248422967833,203L125.16118832317545,202.9873125L127.97989241667257,202.9873125L130.7985965101697,202.9873125L133.61730060366685,202.974625L136.43600469716395,202.9619375L139.25470879066108,202.974625L142.0734128841582,202.9873125L144.89211697765532,203L147.71082107115248,202.9873125L150.52952516464958,202.9619375L153.34822925814672,203L156.16693335164382,202.9619375L158.98563744514098,202.974625L161.80434153863808,202.9873125L164.62304563213522,202.9873125L167.44174972563235,202.9873125L170.26045381912945,202.9619375L173.0791579126266,202.94924999999998L175.89786200612372,202.9619375L178.71656609962085,202.9619375L181.53527019311798,202.974625L184.35397428661508,202.9873125L187.17267838011225,202.9619375L189.99138247360935,202.9619375L192.81008656710648,202.974625L195.6287906606036,202.9619375L198.44749475410075,202.9619375L201.26619884759788,202.9873125L204.08490294109498,202.8604375L206.9036070345921,202.87312500000002L209.72231112808922,202.8858125L212.54101522158638,202.822375L215.3597193150835,201.4901875L218.1784234085806,201.6931875L220.99712750207775,201.93425L223.81583159557488,200.51325L226.634535689072,200.437125L229.4532397825691,200.487875L232.27194387606625,200.1453125L235.09064796956338,199.269875L237.90935206306048,199.346L240.72805615655764,199.016125L243.54676025005477,197.5063125L246.36546434355188,197.44287500000002L249.18416843704904,197.0495625L252.0028725305461,196.580125L254.82157662404327,194.8165625L257.6402807175404,194.1568125L260.4589848110375,194.93075L263.27768890453467,194.956125L266.0963929980318,193.6493125L268.9150970915289,192.367875L271.73380118502604,190.0968125L274.55250527852314,186.8995625L277.3712093720203,186.55700000000002L280.1899134655174,187.62275L283.0086175590145,186.30325L285.82732165251167,184.6919375L288.6460257460088,183.42318749999998L291.46472983950594,183.1440625L294.28343393300304,179.680375L297.10213802650014,178.86837500000001L299.9208421199973,181.4439375L302.7395462134944,182.92837500000002L305.55825030699157,182.04025000000001L308.37695440048867,179.09675L311.1956584939858,177.193625L314.01436258748294,171.86487499999998L316.83306668098004,169.885625L319.6517707744772,170.114L322.4704748679743,171.458875L325.2891789614714,171.6491875L328.10788305496857,167.881L330.9265871484657,164.861375L333.74529124196283,158.619125L336.56399533545994,158.1243125L339.38269942895704,175.163625L342.2014035224542,161.7275625L345.02010761595136,160.090875L347.8388117094484,158.8475L350.65751580294557,157.4265L353.4762198964427,152.2119375L356.29492398993983,150.7275L359.113628083437,128.61318749999998L361.93233217693404,160.4588125L364.7510362704312,159.0505L367.5697403639283,157.1854375L370.38844445742546,154.2673125L373.2071485509226,149.6998125L376.0258526444197,148.44375L378.84455673791683,152.579875L381.663260831414,158.9616875L384.4819649249111,155.3838125L387.30066901840826,158.2258125L390.1193731119053,139.283375L392.93807720540246,148.64675L395.7567812988996,168.2235625L398.57548539239673,151.7551875L401.3941894858939,156.6018125L404.21289357939094,158.3526875L407.0315976728881,158.6064375L409.85030176638526,155.7390625L412.66900585988236,155.3584375L415.48770995337946,149.5475625L418.30641404687657,151.615625L421.12511814037373,160.1289375L423.9438222338709,159.1900625L426.762526327368,157.3884375L429.5812304208651,154.483L432.39993451436226,151.3491875L435.21863860785936,148.6848125L438.0373427013565,152.50375L440.8560467948536,158.99975L443.67475088835073,157.7690625L446.4934549818479,159.3169375L449.312159075345,156.386125L452.13086316884215,148.799L454.94956726233926,145.9189375L457.76827135583636,149.433375L460.5869754493335,157.0078125L463.4056795428306,155.498" stroke="rgb(136,136,136)" id="US" style="stroke-width: 2; stroke-dasharray: 0.5, 4; stroke-linejoin: round; stroke-linecap: round; fill: none; mix-blend-mode: normal;"/></g></g><g id="line-symbols-svg"><path d="M -1,0 a 1,1 0 1,0 2,0 a 1,1 0 1,0 -2,0 Z" id="Minneapolis" transform="translate(463.4056795428306, 158.79675) scale(3.5)" style="fill: rgb(107, 178, 244); mix-blend-mode: normal;"/><path d="M -1,0 a 1,1 0 1,0 2,0 a 1,1 0 1,0 -2,0 Z" id="MN" transform="translate(463.4056795428306, 133.1553125) scale(3.5)" style="fill: rgb(44, 160, 44); mix-blend-mode: normal;"/><path d="M -1,0 a 1,1 0 1,0 2,0 a 1,1 0 1,0 -2,0 Z" id="US" transform="translate(463.4056795428306, 155.498) scale(3.5)" style="fill: rgb(136, 136, 136); mix-blend-mode: normal;"/></g></g></g><g id="MN-svg" clip-path="url(#rect-mask-MN-1)" transform="translate(0, 104)"><clipPath id="rect-mask-MN-1"><rect x="0" y="0" width="16" height="20"/></clipPath><path d="M1,10 L15,10" stroke="rgb(44,160,44)" id="MN" style="stroke-width: 2; stroke-linejoin: round; stroke-linecap: round; fill: none; mix-blend-mode: normal;"/></g><g id="MN-svg"><text transform="translate(20, 107.609375)" fill="rgb(51,51,51)" style="font-family: BentonSans; font-weight: 400; font-size: 12px;"><tspan x="0" dy="12">MN</tspan></text></g><g id="Minneapolis-svg" clip-path="url(#rect-mask-Minneapolis-2)" transform="translate(48, 104)"><clipPath id="rect-mask-Minneapolis-2"><rect x="0" y="0" width="16" height="20"/></clipPath><path d="M1,10 L15,10" stroke="rgb(107,178,244)" id="Minneapolis" style="stroke-width: 2; stroke-linejoin: round; stroke-linecap: round; fill: none; mix-blend-mode: normal;"/></g><g id="Minneapolis-svg"><text transform="translate(68, 107.609375)" fill="rgb(51,51,51)" style="font-family: BentonSans; font-weight: 400; font-size: 12px;"><tspan x="0" dy="12">Minneapolis</tspan></text></g><g id="US-svg" clip-path="url(#rect-mask-US-3)" transform="translate(144, 104)"><clipPath id="rect-mask-US-3"><rect x="0" y="0" width="16" height="20"/></clipPath><path d="M1,10 L15,10" stroke="rgb(136,136,136)" id="US" style="stroke-width: 2; stroke-dasharray: 0.5, 4; stroke-linejoin: round; stroke-linecap: round; fill: none; mix-blend-mode: normal;"/></g><g id="US-svg"><text transform="translate(164, 107.609375)" fill="rgb(51,51,51)" style="font-family: BentonSans; font-weight: 400; font-size: 12px;"><tspan x="0" dy="12">US</tspan></text></g></g><g id="after-body-svg"/><g id="above-footer-svg"/><g id="footer-svg"><g id="footer-inner-svg"><g id="footer-main-svg"><g id="text-svg"><text transform="translate(0, 382)" fill="rgb(136,136,136)" style="font-family: BentonSans; font-weight: 400; font-size: 11px;"><tspan x="0" dy="11">Chart:</tspan></text><text transform="translate(34, 382)" fill="rgb(136,136,136)" style="font-family: BentonSans; font-weight: 400; font-size: 11px;"><tspan x="0" dy="11">Jeff Hargarten, Star Tribune</tspan></text></g><g id="text-svg"><text transform="translate(174, 382)" fill="rgb(136,136,136)" style="font-family: BentonSans; font-weight: 400; font-size: 11px;"><tspan x="0" dy="11">​ •</tspan></text></g><g id="text-svg"><text transform="translate(185, 382)" fill="rgb(136,136,136)" style="font-family: BentonSans; font-weight: 400; font-size: 11px;"><tspan x="0" dy="11">Source:</tspan></text><text transform="translate(226, 382)" fill="rgb(136,136,136)" style="font-family: BentonSans; font-weight: 400; font-size: 11px;"><tspan x="0" dy="11">OpenTable</tspan></text></g></g></g></g><g id="below-footer-svg"/></g></svg>