<svg xmlns:xlink="http://www.w3.org/1999/xlink" xmlns="http://www.w3.org/2000/svg" id="exportSvg" width="522" height="400"><defs/><g><g id="header-svg"><g id="text-svg"><text transform="translate(0, -2)" fill="rgb(51,51,51)" style="font-family: BentonSans; font-weight: 700; font-size: 19px;"><tspan x="0" dy="19">Rebounding restaurants</tspan></text></g><g id="text-svg"><text transform="translate(0, 31)" fill="rgb(51,51,51)" style="font-family: BentonSans; font-weight: 400; font-size: 15px;"><tspan x="0" dy="15">Many bars and restaurants have reopened outdoor and indoor dining, and </tspan></text><text transform="translate(0, 51)" fill="rgb(51,51,51)" style="font-family: BentonSans; font-weight: 400; font-size: 15px;"><tspan x="0" dy="15">patrons are returning – though the rate has slowed.</tspan></text></g><g id="text-svg"><text transform="translate(0, 80)" fill="rgb(51,51,51)" style="font-family: BentonSans; font-weight: 400; font-size: 12px; letter-spacing: 0.2px;"><tspan x="0" dy="12">PERCENT CHANGE IN SEATED DINERS COMPARED TO 2019</tspan></text></g></g><g id="chart-svg"><g id="group-svg" clip-path="url(#rect-mask-group-0)" transform="translate(0, 104)"><clipPath id="rect-mask-group-0"><rect x="0" y="0" width="522" height="255"/></clipPath><g id="group-svg" transform="translate(46, 34)"><g id="x-svg ticks-svg" transform="translate(0, 208)"><g transform="translate(50.23414371745795, 0)"><text transform="translate(-11.5, -12) translate(11.5, 11)" fill="rgb(133, 133, 133)" style="text-anchor: middle; font-family: BentonSans; font-weight: 400; font-size: 12px;"><tspan x="0" dy="12">Mar</tspan></text></g><g transform="translate(155.22035363320998, 0)"><text transform="translate(-10, -12) translate(10, 11)" fill="rgb(133, 133, 133)" style="text-anchor: middle; font-family: BentonSans; font-weight: 400; font-size: 12px;"><tspan x="0" dy="12">Apr</tspan></text></g><g transform="translate(256.8199116161959, 0)"><text transform="translate(-12.5, -12) translate(12.5, 11)" fill="rgb(133, 133, 133)" style="text-anchor: middle; font-family: BentonSans; font-weight: 400; font-size: 12px;"><tspan x="0" dy="12">May</tspan></text></g><g transform="translate(361.8061215319479, 0)"><text transform="translate(-10, -12) translate(10, 11)" fill="rgb(133, 133, 133)" style="text-anchor: middle; font-family: BentonSans; font-weight: 400; font-size: 12px;"><tspan x="0" dy="12">Jun</tspan></text></g><g transform="translate(463.40567951493375, 0)"><text transform="translate(-7.9999847412109375, -12) translate(7.9999847412109375, 11)" fill="rgb(133, 133, 133)" style="text-anchor: middle; font-family: BentonSans; font-weight: 400; font-size: 12px;"><tspan x="0" dy="12">Jul</tspan></text></g></g><g id="x-svg axis-svg" transform="translate(0, 76.125)"><line x1="0" x2="473" y1="0" y2="0" style="stroke: rgb(51, 51, 51); stroke-width: 1;"/></g><g id="y-grid-svg"><g transform="translate(0, 203)"><line x1="0" x2="473" y1="0" y2="0" style="stroke: rgb(238, 238, 238); stroke-width: 1;"/><text transform="translate(-4, 4) translate(-41, -12) translate(41, 0)" fill="rgb(133, 133, 133)" style="text-anchor: end; font-family: BentonSans; font-weight: 400; font-size: 12px;"><tspan x="0" dy="12">−100%</tspan></text></g><g transform="translate(0, 177.625)"><line x1="0" x2="473" y1="0" y2="0" style="stroke: rgb(238, 238, 238); stroke-width: 1;"/><text transform="translate(-4, 4) translate(-35, -12) translate(35, 0)" fill="rgb(133, 133, 133)" style="text-anchor: end; font-family: BentonSans; font-weight: 400; font-size: 12px;"><tspan x="0" dy="12">−80%</tspan></text></g><g transform="translate(0, 152.25)"><line x1="0" x2="473" y1="0" y2="0" style="stroke: rgb(238, 238, 238); stroke-width: 1;"/><text transform="translate(-4, 4) translate(-35, -12) translate(35, 0)" fill="rgb(133, 133, 133)" style="text-anchor: end; font-family: BentonSans; font-weight: 400; font-size: 12px;"><tspan x="0" dy="12">−60%</tspan></text></g><g transform="translate(0, 126.875)"><line x1="0" x2="473" y1="0" y2="0" style="stroke: rgb(238, 238, 238); stroke-width: 1;"/><text transform="translate(-4, 4) translate(-35, -12) translate(35, 0)" fill="rgb(133, 133, 133)" style="text-anchor: end; font-family: BentonSans; font-weight: 400; font-size: 12px;"><tspan x="0" dy="12">−40%</tspan></text></g><g transform="translate(0, 101.5)"><line x1="0" x2="473" y1="0" y2="0" style="stroke: rgb(238, 238, 238); stroke-width: 1;"/><text transform="translate(-4, 4) translate(-35, -12) translate(35, 0)" fill="rgb(133, 133, 133)" style="text-anchor: end; font-family: BentonSans; font-weight: 400; font-size: 12px;"><tspan x="0" dy="12">−20%</tspan></text></g><g id="tick-svg tick-major-svg" transform="translate(0, 76.125)"><text transform="translate(-4, 4) translate(-20, -12) translate(20, 0)" fill="rgb(133, 133, 133)" style="text-anchor: end; font-family: BentonSans; font-weight: 400; font-size: 12px;"><tspan x="0" dy="12">0%</tspan></text></g><g transform="translate(0, 50.75)"><line x1="0" x2="473" y1="0" y2="0" style="stroke: rgb(238, 238, 238); stroke-width: 1;"/><text transform="translate(-4, 4) translate(-27, -12) translate(27, 0)" fill="rgb(133, 133, 133)" style="text-anchor: end; font-family: BentonSans; font-weight: 400; font-size: 12px;"><tspan x="0" dy="12">20%</tspan></text></g><g transform="translate(0, 25.375)"><line x1="0" x2="473" y1="0" y2="0" style="stroke: rgb(238, 238, 238); stroke-width: 1;"/><text transform="translate(-4, 4) translate(-27, -12) translate(27, 0)" fill="rgb(133, 133, 133)" style="text-anchor: end; font-family: BentonSans; font-weight: 400; font-size: 12px;"><tspan x="0" dy="12">40%</tspan></text></g><g><line x1="0" x2="473" y1="0" y2="0" style="stroke: rgb(238, 238, 238); stroke-width: 1;"/><text transform="translate(-4, 4) translate(-27, -12) translate(27, 0)" fill="rgb(133, 133, 133)" style="text-anchor: end; font-family: BentonSans; font-weight: 400; font-size: 12px;"><tspan x="0" dy="12">60%</tspan></text></g></g><g id="lines-svg"><g id="Minneapolis-svg"><path d="M9.594320524263603,93.8875L12.980972457029798,41.868750000000006L16.367624389795996,117.99374999999999L19.75427632256219,95.15625L23.140928255328383,60.900000000000006L26.52758018809458,34.256249999999994L29.914232120860778,53.287499999999994L33.300884053626966,41.868750000000006L36.687535986393165,60.900000000000006L40.074187919159364,39.33124999999998L43.460839851925556,26.643749999999983L46.84749178469175,62.16875000000002L50.23414371745795,58.36249999999998L53.62079565022414,100.23125L57.00744758299034,79.93125L60.39409951575653,68.51250000000002L63.78075144852273,92.61875L67.16740338128892,83.7375L70.55405531405512,-1.2687500000000114L73.94070724682132,46.943749999999994L77.32735917958752,100.23125L80.7140111123537,93.8875L84.10066304511989,97.69375L87.48731497788609,111.64999999999999L90.87396691065229,104.03750000000001L94.26061884341848,120.53125L97.64727077618468,117.99374999999999L101.03392270895088,172.55L104.42057464171708,203L107.80722657448325,203L111.19387850724945,203L114.58053044001565,203L117.96718237278185,203L121.35383430554805,203L124.74048623831425,203L128.12713817108045,203L131.51379010384665,203L134.90044203661284,203L138.28709396937904,203L141.6737459021452,203L145.06039783491138,203L148.44704976767758,203L151.83370170044378,203L155.22035363320998,203L158.60700556597618,203L161.99365749874238,203L165.38030943150858,203L168.76696136427478,203L172.15361329704098,203L175.54026522980718,203L178.92691716257337,203L182.31356909533957,203L185.70022102810577,203L189.08687296087194,203L192.47352489363814,203L195.86017682640434,203L199.2468287591705,203L202.6334806919367,203L206.0201326247029,203L209.4067845574691,203L212.7934364902353,203L216.1800884230015,203L219.5667403557677,203L222.9533922885339,203L226.3400442213001,203L229.7266961540663,203L233.1133480868325,203L236.50000001959867,203L239.88665195236484,203L243.27330388513107,203L246.65995581789724,203L250.04660775066347,203L253.43325968342964,203L256.8199116161959,203L260.20656354896204,203L263.59321548172824,203L266.97986741449444,203L270.36651934726063,203L273.75317128002683,203L277.139823212793,203L280.52647514555923,203L283.9131270783254,203L287.29977901109163,203L290.6864309438578,203L294.073082876624,203L297.45973480939017,203L300.8463867421564,202.517875L304.23303867492257,203L307.61969060768877,202.010375L311.00634254045497,201.62975L314.39299447322117,202.13725L317.77964640598736,202.365625L321.16629833875356,202.111875L324.55295027151976,202.467125L327.93960220428596,202.7335625L331.32625413705216,202.8096875L334.7129060698183,202.9111875L338.09955800258456,203L341.4862099353507,200.589375L344.87286186811696,201.249125L348.2595138008831,202.3783125L351.64616573364935,201.6678125L355.0328176664155,201.579L358.4194695991817,202.822375L361.8061215319479,198.9526875L365.1927734647141,199.5870625L368.5794253974803,197.97575L371.9660773302465,193.7000625L375.3527292630127,190.591625L378.7393811957789,192.0506875L382.1260331285451,181.710375L385.51268506131123,182.2051875L388.8993369940775,196.707L392.28598892684363,173.9836875L395.6726408596099,170.6215L399.059292792376,168.89600000000002L402.4459447251422,167.2593125L405.8325966579084,176.7749375L409.2192485906746,170.46925L412.6059005234408,168.5026875L415.992552456207,165.39425L419.3792043889732,173.4000625L422.7658563217394,152.1865625L426.1525082545056,149.9155L429.5391601872718,147.64443749999998L432.925812120038,168.210875L436.31246405280416,164.100125L439.6991159855704,153.9120625L443.08576791833656,156.0689375L446.4724198511028,154.000875L449.85907178386896,150.87975L453.24572371663515,161.6768125L456.63237564940135,156.0181875L460.01902758216755,152.3134375L463.40567951493375,138.4840625" stroke="rgb(107,178,244)" id="Minneapolis" style="stroke-width: 2; stroke-linejoin: round; stroke-linecap: round; fill: none; mix-blend-mode: normal;"/></g><g id="MN-svg"><path d="M9.594320524263603,90.08125L12.980972457029798,11.418750000000017L16.367624389795996,95.15625L19.75427632256219,87.54375L23.140928255328383,54.556250000000006L26.52758018809458,48.212500000000006L29.914232120860778,73.5875L33.300884053626966,52.01874999999998L36.687535986393165,77.39375L40.074187919159364,67.24375L43.460839851925556,34.256249999999994L46.84749178469175,74.85625000000002L50.23414371745795,77.39375L53.62079565022414,87.54375L57.00744758299034,78.6625L60.39409951575653,79.93125L63.78075144852273,97.69375L67.16740338128892,91.35L70.55405531405512,1.268749999999983L73.94070724682132,59.631249999999994L77.32735917958752,97.69375L80.7140111123537,91.35L84.10066304511989,98.9625L87.48731497788609,106.575L90.87396691065229,114.1875L94.26061884341848,130.68124999999998L97.64727077618468,140.83125L101.03392270895088,167.475L104.42057464171708,200.4625L107.80722657448325,203L111.19387850724945,203L114.58053044001565,203L117.96718237278185,203L121.35383430554805,203L124.74048623831425,203L128.12713817108045,203L131.51379010384665,203L134.90044203661284,203L138.28709396937904,203L141.6737459021452,203L145.06039783491138,203L148.44704976767758,203L151.83370170044378,203L155.22035363320998,203L158.60700556597618,203L161.99365749874238,203L165.38030943150858,203L168.76696136427478,203L172.15361329704098,203L175.54026522980718,203L178.92691716257337,203L182.31356909533957,203L185.70022102810577,203L189.08687296087194,203L192.47352489363814,203L195.86017682640434,203L199.2468287591705,203L202.6334806919367,203L206.0201326247029,203L209.4067845574691,203L212.7934364902353,203L216.1800884230015,203L219.5667403557677,203L222.9533922885339,203L226.3400442213001,203L229.7266961540663,203L233.1133480868325,203L236.50000001959867,203L239.88665195236484,203L243.27330388513107,203L246.65995581789724,203L250.04660775066347,203L253.43325968342964,203L256.8199116161959,203L260.20656354896204,203L263.59321548172824,203L266.97986741449444,203L270.36651934726063,203L273.75317128002683,203L277.139823212793,203L280.52647514555923,203L283.9131270783254,203L287.29977901109163,203L290.6864309438578,202.44175L294.073082876624,202.5305625L297.45973480939017,203L300.8463867421564,202.8604375L304.23303867492257,203L307.61969060768877,202.21337499999998L311.00634254045497,202.23875L314.39299447322117,202.3529375L317.77964640598736,202.467125L321.16629833875356,202.314875L324.55295027151976,202.59400000000002L327.93960220428596,202.64475L331.32625413705216,202.6828125L334.7129060698183,202.6828125L338.09955800258456,203L341.4862099353507,201.12225L344.87286186811696,201.3125625L348.2595138008831,201.5155625L351.64616573364935,201.93425L355.0328176664155,201.908875L358.4194695991817,201.99768749999998L361.8061215319479,171.357375L365.1927734647141,183.8545625L368.5794253974803,172.60075L371.9660773302465,172.06787500000002L375.3527292630127,171.38275L378.7393811957789,173.3239375L382.1260331285451,165.6860625L385.51268506131123,168.84525L388.8993369940775,186.582375L392.28598892684363,151.438L395.6726408596099,142.5694375L399.059292792376,141.13575L402.4459447251422,141.1484375L405.8325966579084,162.8186875L409.2192485906746,139.9685L412.6059005234408,138.95350000000002L415.992552456207,136.035375L419.3792043889732,150.3088125L422.7658563217394,131.97537499999999L426.1525082545056,131.0365L429.5391601872718,107.793L432.925812120038,139.3595L436.31246405280416,134.360625L439.6991159855704,128.34675L443.08576791833656,129.66625L446.4724198511028,132.026125L449.85907178386896,127.560125L453.24572371663515,136.8600625L456.63237564940135,133.9673125L460.01902758216755,123.550875L463.40567951493375,113.654625" stroke="rgb(44,160,44)" id="MN" style="stroke-width: 2; stroke-linejoin: round; stroke-linecap: round; fill: none; mix-blend-mode: normal;"/></g><g id="US-svg"><path d="M9.594320524263603,76.125L12.980972457029798,71.04999999999998L16.367624389795996,76.125L19.75427632256219,77.39375L23.140928255328383,73.5875L26.52758018809458,68.51250000000002L29.914232120860778,73.5875L33.300884053626966,73.5875L36.687535986393165,77.39375L40.074187919159364,77.39375L43.460839851925556,74.85625000000002L46.84749178469175,72.31875L50.23414371745795,73.5875L53.62079565022414,85.00625L57.00744758299034,87.54375L60.39409951575653,82.46875L63.78075144852273,82.46875L67.16740338128892,83.7375L70.55405531405512,79.93125L73.94070724682132,78.6625L77.32735917958752,93.8875L80.7140111123537,98.9625L84.10066304511989,100.23125L87.48731497788609,111.64999999999999L90.87396691065229,121.8L94.26061884341848,129.41250000000002L97.64727077618468,137.02499999999998L101.03392270895088,147.175L104.42057464171708,182.7L107.80722657448325,191.58125L111.19387850724945,199.878875L114.58053044001565,202.1753125L117.96718237278185,202.8604375L121.35383430554805,202.9111875L124.74048623831425,202.9619375L128.12713817108045,202.9619375L131.51379010384665,202.974625L134.90044203661284,202.974625L138.28709396937904,202.9873125L141.6737459021452,202.974625L145.06039783491138,203L148.44704976767758,202.9873125L151.83370170044378,202.9873125L155.22035363320998,202.9873125L158.60700556597618,202.974625L161.99365749874238,202.9619375L165.38030943150858,202.974625L168.76696136427478,202.9873125L172.15361329704098,203L175.54026522980718,202.9873125L178.92691716257337,202.9619375L182.31356909533957,203L185.70022102810577,202.9619375L189.08687296087194,202.974625L192.47352489363814,202.9873125L195.86017682640434,202.9873125L199.2468287591705,202.9873125L202.6334806919367,202.9619375L206.0201326247029,202.94924999999998L209.4067845574691,202.9619375L212.7934364902353,202.9619375L216.1800884230015,202.974625L219.5667403557677,202.9873125L222.9533922885339,202.9619375L226.3400442213001,202.9619375L229.7266961540663,202.974625L233.1133480868325,202.9619375L236.50000001959867,202.9619375L239.88665195236484,202.9873125L243.27330388513107,202.8604375L246.65995581789724,202.87312500000002L250.04660775066347,202.8858125L253.43325968342964,202.822375L256.8199116161959,201.4901875L260.20656354896204,201.6931875L263.59321548172824,201.93425L266.97986741449444,200.51325L270.36651934726063,200.437125L273.75317128002683,200.487875L277.139823212793,200.1453125L280.52647514555923,199.269875L283.9131270783254,199.346L287.29977901109163,199.016125L290.6864309438578,197.5063125L294.073082876624,197.44287500000002L297.45973480939017,197.0495625L300.8463867421564,196.580125L304.23303867492257,194.8165625L307.61969060768877,194.1568125L311.00634254045497,194.93075L314.39299447322117,194.956125L317.77964640598736,193.6493125L321.16629833875356,192.367875L324.55295027151976,190.0968125L327.93960220428596,186.8995625L331.32625413705216,186.55700000000002L334.7129060698183,187.62275L338.09955800258456,186.30325L341.4862099353507,184.6919375L344.87286186811696,183.42318749999998L348.2595138008831,183.1440625L351.64616573364935,179.680375L355.0328176664155,178.86837500000001L358.4194695991817,181.4439375L361.8061215319479,182.92837500000002L365.1927734647141,182.04025000000001L368.5794253974803,179.09675L371.9660773302465,177.193625L375.3527292630127,171.86487499999998L378.7393811957789,169.885625L382.1260331285451,170.114L385.51268506131123,171.458875L388.8993369940775,171.6491875L392.28598892684363,167.881L395.6726408596099,164.861375L399.059292792376,158.619125L402.4459447251422,158.1243125L405.8325966579084,175.163625L409.2192485906746,161.7275625L412.6059005234408,160.090875L415.992552456207,158.8475L419.3792043889732,157.4265L422.7658563217394,152.2119375L426.1525082545056,150.7275L429.5391601872718,128.61318749999998L432.925812120038,160.4588125L436.31246405280416,159.0505L439.6991159855704,157.1854375L443.08576791833656,154.2673125L446.4724198511028,149.6998125L449.85907178386896,148.44375L453.24572371663515,152.579875L456.63237564940135,158.9616875L460.01902758216755,155.3838125L463.40567951493375,158.2258125" stroke="rgb(136,136,136)" id="US" style="stroke-width: 2; stroke-dasharray: 0.5, 4; stroke-linejoin: round; stroke-linecap: round; fill: none; mix-blend-mode: normal;"/></g></g><g id="line-symbols-svg"><path d="M -1,0 a 1,1 0 1,0 2,0 a 1,1 0 1,0 -2,0 Z" id="Minneapolis" transform="translate(463.40567951493375, 138.4840625) scale(3.5)" style="fill: rgb(107, 178, 244); mix-blend-mode: normal;"/><path d="M -1,0 a 1,1 0 1,0 2,0 a 1,1 0 1,0 -2,0 Z" id="MN" transform="translate(463.40567951493375, 113.654625) scale(3.5)" style="fill: rgb(44, 160, 44); mix-blend-mode: normal;"/><path d="M -1,0 a 1,1 0 1,0 2,0 a 1,1 0 1,0 -2,0 Z" id="US" transform="translate(463.40567951493375, 158.2258125) scale(3.5)" style="fill: rgb(136, 136, 136); mix-blend-mode: normal;"/></g></g></g><g id="MN-svg" clip-path="url(#rect-mask-MN-1)" transform="translate(0, 104)"><clipPath id="rect-mask-MN-1"><rect x="0" y="0" width="16" height="20"/></clipPath><path d="M1,10 L15,10" stroke="rgb(44,160,44)" id="MN" style="stroke-width: 2; stroke-linejoin: round; stroke-linecap: round; fill: none; mix-blend-mode: normal;"/></g><g id="MN-svg"><text transform="translate(20, 107.609375)" fill="rgb(51,51,51)" style="font-family: BentonSans; font-weight: 400; font-size: 12px;"><tspan x="0" dy="12">MN</tspan></text></g><g id="Minneapolis-svg" clip-path="url(#rect-mask-Minneapolis-2)" transform="translate(48, 104)"><clipPath id="rect-mask-Minneapolis-2"><rect x="0" y="0" width="16" height="20"/></clipPath><path d="M1,10 L15,10" stroke="rgb(107,178,244)" id="Minneapolis" style="stroke-width: 2; stroke-linejoin: round; stroke-linecap: round; fill: none; mix-blend-mode: normal;"/></g><g id="Minneapolis-svg"><text transform="translate(68, 107.609375)" fill="rgb(51,51,51)" style="font-family: BentonSans; font-weight: 400; font-size: 12px;"><tspan x="0" dy="12">Minneapolis</tspan></text></g><g id="US-svg" clip-path="url(#rect-mask-US-3)" transform="translate(144, 104)"><clipPath id="rect-mask-US-3"><rect x="0" y="0" width="16" height="20"/></clipPath><path d="M1,10 L15,10" stroke="rgb(136,136,136)" id="US" style="stroke-width: 2; stroke-dasharray: 0.5, 4; stroke-linejoin: round; stroke-linecap: round; fill: none; mix-blend-mode: normal;"/></g><g id="US-svg"><text transform="translate(164, 107.609375)" fill="rgb(51,51,51)" style="font-family: BentonSans; font-weight: 400; font-size: 12px;"><tspan x="0" dy="12">US</tspan></text></g></g><g id="after-body-svg"/><g id="above-footer-svg"/><g id="footer-svg"><g id="footer-inner-svg"><g id="footer-main-svg"><g id="text-svg"><text transform="translate(0, 382)" fill="rgb(136,136,136)" style="font-family: BentonSans; font-weight: 400; font-size: 11px;"><tspan x="0" dy="11">Chart:</tspan></text><text transform="translate(34, 382)" fill="rgb(136,136,136)" style="font-family: BentonSans; font-weight: 400; font-size: 11px;"><tspan x="0" dy="11">Jeff Hargarten, Star Tribune</tspan></text></g><g id="text-svg"><text transform="translate(174, 382)" fill="rgb(136,136,136)" style="font-family: BentonSans; font-weight: 400; font-size: 11px;"><tspan x="0" dy="11">​ •</tspan></text></g><g id="text-svg"><text transform="translate(185, 382)" fill="rgb(136,136,136)" style="font-family: BentonSans; font-weight: 400; font-size: 11px;"><tspan x="0" dy="11">Source:</tspan></text><text transform="translate(226, 382)" fill="rgb(136,136,136)" style="font-family: BentonSans; font-weight: 400; font-size: 11px;"><tspan x="0" dy="11">OpenTable</tspan></text></g></g></g></g><g id="below-footer-svg"/></g></svg>