<svg xmlns:xlink="http://www.w3.org/1999/xlink" xmlns="http://www.w3.org/2000/svg" id="exportSvg" width="522" height="400"><defs/><g><g id="header-svg"><g id="text-svg"><text transform="translate(0, -2)" fill="rgb(51,51,51)" style="font-family: BentonSans; font-weight: 700; font-size: 19px;"><tspan x="0" dy="19">Rebounding restaurants</tspan></text></g><g id="text-svg"><text transform="translate(0, 31)" fill="rgb(51,51,51)" style="font-family: BentonSans; font-weight: 400; font-size: 15px;"><tspan x="0" dy="15">Many bars and restaurants have reopened outdoor and indoor dining, and </tspan></text><text transform="translate(0, 51)" fill="rgb(51,51,51)" style="font-family: BentonSans; font-weight: 400; font-size: 15px;"><tspan x="0" dy="15">patrons are returning – though the rate has slowed.</tspan></text></g></g><g id="chart-svg"><g id="group-svg" clip-path="url(#rect-mask-group-0)" transform="translate(0, 104)"><clipPath id="rect-mask-group-0"><rect x="0" y="0" width="522" height="255"/></clipPath><g id="group-svg" transform="translate(46, 34)"><g id="x-svg ticks-svg" transform="translate(0, 208)"><g transform="translate(51.1648266743277, 0)"><text transform="translate(-11.5, -12) translate(11.5, 11)" fill="rgb(133, 133, 133)" style="text-anchor: middle; font-family: BentonSans; font-weight: 400; font-size: 12px;"><tspan x="0" dy="12">Mar</tspan></text></g><g transform="translate(158.55530094941767, 0)"><text transform="translate(-10, -12) translate(10, 11)" fill="rgb(133, 133, 133)" style="text-anchor: middle; font-family: BentonSans; font-weight: 400; font-size: 12px;"><tspan x="0" dy="12">Apr</tspan></text></g><g transform="translate(262.4815663769241, 0)"><text transform="translate(-12.5, -12) translate(12.5, 11)" fill="rgb(133, 133, 133)" style="text-anchor: middle; font-family: BentonSans; font-weight: 400; font-size: 12px;"><tspan x="0" dy="12">May</tspan></text></g><g transform="translate(369.8720406520141, 0)"><text transform="translate(-10, -12) translate(10, 11)" fill="rgb(133, 133, 133)" style="text-anchor: middle; font-family: BentonSans; font-weight: 400; font-size: 12px;"><tspan x="0" dy="12">Jun</tspan></text></g></g><g id="x-svg axis-svg" transform="translate(0, 76.125)"><line x1="0" x2="473" y1="0" y2="0" style="stroke: rgb(51, 51, 51); stroke-width: 1;"/></g><g id="y-grid-svg"><g transform="translate(0, 203)"><line x1="0" x2="473" y1="0" y2="0" style="stroke: rgb(238, 238, 238); stroke-width: 1;"/><text transform="translate(-4, 4) translate(-41, -12) translate(41, 0)" fill="rgb(133, 133, 133)" style="text-anchor: end; font-family: BentonSans; font-weight: 400; font-size: 12px;"><tspan x="0" dy="12">−100%</tspan></text></g><g transform="translate(0, 177.625)"><line x1="0" x2="473" y1="0" y2="0" style="stroke: rgb(238, 238, 238); stroke-width: 1;"/><text transform="translate(-4, 4) translate(-35, -12) translate(35, 0)" fill="rgb(133, 133, 133)" style="text-anchor: end; font-family: BentonSans; font-weight: 400; font-size: 12px;"><tspan x="0" dy="12">−80%</tspan></text></g><g transform="translate(0, 152.25)"><line x1="0" x2="473" y1="0" y2="0" style="stroke: rgb(238, 238, 238); stroke-width: 1;"/><text transform="translate(-4, 4) translate(-35, -12) translate(35, 0)" fill="rgb(133, 133, 133)" style="text-anchor: end; font-family: BentonSans; font-weight: 400; font-size: 12px;"><tspan x="0" dy="12">−60%</tspan></text></g><g transform="translate(0, 126.875)"><line x1="0" x2="473" y1="0" y2="0" style="stroke: rgb(238, 238, 238); stroke-width: 1;"/><text transform="translate(-4, 4) translate(-35, -12) translate(35, 0)" fill="rgb(133, 133, 133)" style="text-anchor: end; font-family: BentonSans; font-weight: 400; font-size: 12px;"><tspan x="0" dy="12">−40%</tspan></text></g><g transform="translate(0, 101.5)"><line x1="0" x2="473" y1="0" y2="0" style="stroke: rgb(238, 238, 238); stroke-width: 1;"/><text transform="translate(-4, 4) translate(-35, -12) translate(35, 0)" fill="rgb(133, 133, 133)" style="text-anchor: end; font-family: BentonSans; font-weight: 400; font-size: 12px;"><tspan x="0" dy="12">−20%</tspan></text></g><g id="tick-svg tick-major-svg" transform="translate(0, 76.125)"><text transform="translate(-4, 4) translate(-20, -12) translate(20, 0)" fill="rgb(133, 133, 133)" style="text-anchor: end; font-family: BentonSans; font-weight: 400; font-size: 12px;"><tspan x="0" dy="12">0%</tspan></text></g><g transform="translate(0, 50.75)"><line x1="0" x2="473" y1="0" y2="0" style="stroke: rgb(238, 238, 238); stroke-width: 1;"/><text transform="translate(-4, 4) translate(-27, -12) translate(27, 0)" fill="rgb(133, 133, 133)" style="text-anchor: end; font-family: BentonSans; font-weight: 400; font-size: 12px;"><tspan x="0" dy="12">20%</tspan></text></g><g transform="translate(0, 25.375)"><line x1="0" x2="473" y1="0" y2="0" style="stroke: rgb(238, 238, 238); stroke-width: 1;"/><text transform="translate(-4, 4) translate(-27, -12) translate(27, 0)" fill="rgb(133, 133, 133)" style="text-anchor: end; font-family: BentonSans; font-weight: 400; font-size: 12px;"><tspan x="0" dy="12">40%</tspan></text></g><g><line x1="0" x2="473" y1="0" y2="0" style="stroke: rgb(238, 238, 238); stroke-width: 1;"/><text transform="translate(-4, 4) translate(-27, -12) translate(27, 0)" fill="rgb(133, 133, 133)" style="text-anchor: end; font-family: BentonSans; font-weight: 400; font-size: 12px;"><tspan x="0" dy="12">60%</tspan></text></g></g><g id="lines-svg"><g id="Minneapolis-svg"><path d="M9.594320503325125,93.8875L13.058529350908673,41.868750000000006L16.52273819849222,117.99374999999999L19.98694704607577,95.15625L23.451155893659315,60.900000000000006L26.915364741242865,34.256249999999994L30.37957358882641,53.287499999999994L33.84378243640996,41.868750000000006L37.30799128399351,60.900000000000006L40.77220013157706,39.33124999999998L44.2364089791606,26.643749999999983L47.70061782674415,62.16875000000002L51.1648266743277,58.36249999999998L54.62903552191125,100.23125L58.09324436949479,79.93125L61.55745321707834,68.51250000000002L65.0216620646619,92.61875L68.48587091224545,83.7375L71.95007975982898,-1.2687500000000114L75.41428860741253,46.943749999999994L78.87849745499608,100.23125L82.34270630257963,93.8875L85.80691515016318,97.69375L89.27112399774673,111.64999999999999L92.73533284533028,104.03750000000001L96.19954169291381,120.53125L99.66375054049738,117.99374999999999L103.12795938808092,172.55L106.59216823566446,203L110.05637708324801,203L113.52058593083156,203L116.98479477841511,203L120.44900362599864,203L123.9132124735822,203L127.37742132116574,203L130.8416301687493,203L134.30583901633284,203L137.77004786391637,203L141.23425671149997,203L144.6984655590835,203L148.16267440666704,203L151.6268832542506,203L155.09109210183414,203L158.55530094941767,203L162.01950979700123,203L165.48371864458477,203L168.9479274921683,203L172.41213633975187,203L175.87634518733543,203L179.34055403491897,203L182.80476288250253,203L186.26897173008607,203L189.7331805776696,203L193.19738942525316,203L196.6615982728367,203L200.12580712042023,203L203.5900159680038,203L207.05422481558736,203L210.5184336631709,203L213.98264251075446,203L217.446851358338,203L220.91106020592153,203L224.3752690535051,203L227.83947790108863,203L231.30368674867216,203L234.76789559625573,203L238.2321044438393,203L241.69631329142283,203L245.1605221390064,203L248.62473098658995,203L252.08893983417346,203L255.55314868175702,203L259.0173575293406,203L262.4815663769241,203L265.94577522450766,203L269.4099840720912,203L272.8741929196747,203L276.3384017672583,203L279.80261061484185,203L283.26681946242536,203L286.7310283100089,203L290.19523715759254,203L293.65944600517605,203L297.1236548527596,203L300.5878637003432,203L304.0520725479267,203L307.51628139551025,202.517875L310.9804902430938,203L314.4446990906773,202.010375L317.9089079382609,201.62975L321.37311678584445,202.13725L324.83732563342795,202.365625L328.3015344810115,202.111875L331.7657433285951,202.467125L335.2299521761786,202.7335625L338.69416102376215,202.8096875L342.1583698713457,202.9111875L345.6225787189292,203L349.0867875665128,200.589375L352.55099641409635,201.249125L356.0152052616799,202.3783125L359.4794141092635,201.6678125L362.94362295684704,201.579L366.40783180443054,202.822375L369.8720406520141,198.9526875L373.33624949959767,199.5870625L376.8004583471812,197.97575L380.26466719476474,193.7000625L383.7288760423483,190.591625L387.1930848899318,192.0506875L390.6572937375154,181.710375L394.12150258509894,182.2051875L397.58571143268244,196.707L401.049920280266,173.9836875L404.51412912784957,170.6215L407.9783379754331,168.89600000000002L411.44254682301664,167.2593125L414.9067556706002,176.7749375L418.37096451818377,170.46925L421.83517336576733,168.5026875L425.2993822133509,165.39425L428.7635910609344,173.4000625L432.22779990851797,152.1865625L435.69200875610153,149.9155L439.15621760368504,147.64443749999998L442.6204264512686,168.210875L446.08463529885216,164.100125L449.54884414643567,153.9120625L453.01305299401923,156.0689375L456.4772618416028,154.000875L459.9414706891863,150.87975L463.40567953676987,161.6768125" stroke="rgb(107,178,244)" id="Minneapolis" style="stroke-width: 2; stroke-linejoin: round; stroke-linecap: round; fill: none; mix-blend-mode: normal;"/></g><g id="MN-svg"><path d="M9.594320503325125,90.08125L13.058529350908673,11.418750000000017L16.52273819849222,95.15625L19.98694704607577,87.54375L23.451155893659315,54.556250000000006L26.915364741242865,48.212500000000006L30.37957358882641,73.5875L33.84378243640996,52.01874999999998L37.30799128399351,77.39375L40.77220013157706,67.24375L44.2364089791606,34.256249999999994L47.70061782674415,74.85625000000002L51.1648266743277,77.39375L54.62903552191125,87.54375L58.09324436949479,78.6625L61.55745321707834,79.93125L65.0216620646619,97.69375L68.48587091224545,91.35L71.95007975982898,1.268749999999983L75.41428860741253,59.631249999999994L78.87849745499608,97.69375L82.34270630257963,91.35L85.80691515016318,98.9625L89.27112399774673,106.575L92.73533284533028,114.1875L96.19954169291381,130.68124999999998L99.66375054049738,140.83125L103.12795938808092,167.475L106.59216823566446,200.4625L110.05637708324801,203L113.52058593083156,203L116.98479477841511,203L120.44900362599864,203L123.9132124735822,203L127.37742132116574,203L130.8416301687493,203L134.30583901633284,203L137.77004786391637,203L141.23425671149997,203L144.6984655590835,203L148.16267440666704,203L151.6268832542506,203L155.09109210183414,203L158.55530094941767,203L162.01950979700123,203L165.48371864458477,203L168.9479274921683,203L172.41213633975187,203L175.87634518733543,203L179.34055403491897,203L182.80476288250253,203L186.26897173008607,203L189.7331805776696,203L193.19738942525316,203L196.6615982728367,203L200.12580712042023,203L203.5900159680038,203L207.05422481558736,203L210.5184336631709,203L213.98264251075446,203L217.446851358338,203L220.91106020592153,203L224.3752690535051,203L227.83947790108863,203L231.30368674867216,203L234.76789559625573,203L238.2321044438393,203L241.69631329142283,203L245.1605221390064,203L248.62473098658995,203L252.08893983417346,203L255.55314868175702,203L259.0173575293406,203L262.4815663769241,203L265.94577522450766,203L269.4099840720912,203L272.8741929196747,203L276.3384017672583,203L279.80261061484185,203L283.26681946242536,203L286.7310283100089,203L290.19523715759254,203L293.65944600517605,203L297.1236548527596,202.44175L300.5878637003432,202.5305625L304.0520725479267,203L307.51628139551025,202.8604375L310.9804902430938,203L314.4446990906773,202.21337499999998L317.9089079382609,202.23875L321.37311678584445,202.3529375L324.83732563342795,202.467125L328.3015344810115,202.314875L331.7657433285951,202.59400000000002L335.2299521761786,202.64475L338.69416102376215,202.6828125L342.1583698713457,202.6828125L345.6225787189292,203L349.0867875665128,201.12225L352.55099641409635,201.3125625L356.0152052616799,201.5155625L359.4794141092635,201.93425L362.94362295684704,201.908875L366.40783180443054,201.99768749999998L369.8720406520141,171.357375L373.33624949959767,183.8545625L376.8004583471812,172.60075L380.26466719476474,172.06787500000002L383.7288760423483,171.38275L387.1930848899318,173.3239375L390.6572937375154,165.6860625L394.12150258509894,168.84525L397.58571143268244,186.582375L401.049920280266,151.438L404.51412912784957,142.5694375L407.9783379754331,141.13575L411.44254682301664,141.1484375L414.9067556706002,162.8186875L418.37096451818377,139.9685L421.83517336576733,138.95350000000002L425.2993822133509,136.035375L428.7635910609344,150.3088125L432.22779990851797,131.97537499999999L435.69200875610153,131.0365L439.15621760368504,107.793L442.6204264512686,139.3595L446.08463529885216,134.360625L449.54884414643567,128.34675L453.01305299401923,129.66625L456.4772618416028,132.026125L459.9414706891863,127.560125L463.40567953676987,136.8600625" stroke="rgb(44,160,44)" id="MN" style="stroke-width: 2; stroke-linejoin: round; stroke-linecap: round; fill: none; mix-blend-mode: normal;"/></g><g id="US-svg"><path d="M9.594320503325125,76.125L13.058529350908673,71.04999999999998L16.52273819849222,76.125L19.98694704607577,77.39375L23.451155893659315,73.5875L26.915364741242865,68.51250000000002L30.37957358882641,73.5875L33.84378243640996,73.5875L37.30799128399351,77.39375L40.77220013157706,77.39375L44.2364089791606,74.85625000000002L47.70061782674415,72.31875L51.1648266743277,73.5875L54.62903552191125,85.00625L58.09324436949479,87.54375L61.55745321707834,82.46875L65.0216620646619,82.46875L68.48587091224545,83.7375L71.95007975982898,79.93125L75.41428860741253,78.6625L78.87849745499608,93.8875L82.34270630257963,98.9625L85.80691515016318,100.23125L89.27112399774673,111.64999999999999L92.73533284533028,121.8L96.19954169291381,129.41250000000002L99.66375054049738,137.02499999999998L103.12795938808092,147.175L106.59216823566446,182.7L110.05637708324801,191.58125L113.52058593083156,199.878875L116.98479477841511,202.1753125L120.44900362599864,202.8604375L123.9132124735822,202.9111875L127.37742132116574,202.9619375L130.8416301687493,202.9619375L134.30583901633284,202.974625L137.77004786391637,202.974625L141.23425671149997,202.9873125L144.6984655590835,202.974625L148.16267440666704,203L151.6268832542506,202.9873125L155.09109210183414,202.9873125L158.55530094941767,202.9873125L162.01950979700123,202.974625L165.48371864458477,202.9619375L168.9479274921683,202.974625L172.41213633975187,202.9873125L175.87634518733543,203L179.34055403491897,202.9873125L182.80476288250253,202.9619375L186.26897173008607,203L189.7331805776696,202.9619375L193.19738942525316,202.974625L196.6615982728367,202.9873125L200.12580712042023,202.9873125L203.5900159680038,202.9873125L207.05422481558736,202.9619375L210.5184336631709,202.94924999999998L213.98264251075446,202.9619375L217.446851358338,202.9619375L220.91106020592153,202.974625L224.3752690535051,202.9873125L227.83947790108863,202.9619375L231.30368674867216,202.9619375L234.76789559625573,202.974625L238.2321044438393,202.9619375L241.69631329142283,202.9619375L245.1605221390064,202.9873125L248.62473098658995,202.8604375L252.08893983417346,202.87312500000002L255.55314868175702,202.8858125L259.0173575293406,202.822375L262.4815663769241,201.4901875L265.94577522450766,201.6931875L269.4099840720912,201.93425L272.8741929196747,200.51325L276.3384017672583,200.437125L279.80261061484185,200.487875L283.26681946242536,200.1453125L286.7310283100089,199.269875L290.19523715759254,199.346L293.65944600517605,199.016125L297.1236548527596,197.5063125L300.5878637003432,197.44287500000002L304.0520725479267,197.0495625L307.51628139551025,196.580125L310.9804902430938,194.8165625L314.4446990906773,194.1568125L317.9089079382609,194.93075L321.37311678584445,194.956125L324.83732563342795,193.6493125L328.3015344810115,192.367875L331.7657433285951,190.0968125L335.2299521761786,186.8995625L338.69416102376215,186.55700000000002L342.1583698713457,187.62275L345.6225787189292,186.30325L349.0867875665128,184.6919375L352.55099641409635,183.42318749999998L356.0152052616799,183.1440625L359.4794141092635,179.680375L362.94362295684704,178.86837500000001L366.40783180443054,181.4439375L369.8720406520141,182.92837500000002L373.33624949959767,182.04025000000001L376.8004583471812,179.09675L380.26466719476474,177.193625L383.7288760423483,171.86487499999998L387.1930848899318,169.885625L390.6572937375154,170.114L394.12150258509894,171.458875L397.58571143268244,171.6491875L401.049920280266,167.881L404.51412912784957,164.861375L407.9783379754331,158.619125L411.44254682301664,158.1243125L414.9067556706002,175.163625L418.37096451818377,161.7275625L421.83517336576733,160.090875L425.2993822133509,158.8475L428.7635910609344,157.4265L432.22779990851797,152.2119375L435.69200875610153,150.7275L439.15621760368504,128.61318749999998L442.6204264512686,160.4588125L446.08463529885216,159.0505L449.54884414643567,157.1854375L453.01305299401923,154.2673125L456.4772618416028,149.6998125L459.9414706891863,148.44375L463.40567953676987,152.579875" stroke="rgb(136,136,136)" id="US" style="stroke-width: 2; stroke-dasharray: 0.5, 4; stroke-linejoin: round; stroke-linecap: round; fill: none; mix-blend-mode: normal;"/></g></g><g id="line-symbols-svg"><path d="M -1,0 a 1,1 0 1,0 2,0 a 1,1 0 1,0 -2,0 Z" id="Minneapolis" transform="translate(463.40567953676987, 161.6768125) scale(3.5)" style="fill: rgb(107, 178, 244); mix-blend-mode: normal;"/><path d="M -1,0 a 1,1 0 1,0 2,0 a 1,1 0 1,0 -2,0 Z" id="MN" transform="translate(463.40567953676987, 136.8600625) scale(3.5)" style="fill: rgb(44, 160, 44); mix-blend-mode: normal;"/><path d="M -1,0 a 1,1 0 1,0 2,0 a 1,1 0 1,0 -2,0 Z" id="US" transform="translate(463.40567953676987, 152.579875) scale(3.5)" style="fill: rgb(136, 136, 136); mix-blend-mode: normal;"/></g></g></g><g id="MN-svg" clip-path="url(#rect-mask-MN-1)" transform="translate(0, 104)"><clipPath id="rect-mask-MN-1"><rect x="0" y="0" width="16" height="20"/></clipPath><path d="M1,10 L15,10" stroke="rgb(44,160,44)" id="MN" style="stroke-width: 2; stroke-linejoin: round; stroke-linecap: round; fill: none; mix-blend-mode: normal;"/></g><g id="MN-svg"><text transform="translate(20, 107.609375)" fill="rgb(51,51,51)" style="font-family: BentonSans; font-weight: 400; font-size: 12px;"><tspan x="0" dy="12">MN</tspan></text></g><g id="Minneapolis-svg" clip-path="url(#rect-mask-Minneapolis-2)" transform="translate(48, 104)"><clipPath id="rect-mask-Minneapolis-2"><rect x="0" y="0" width="16" height="20"/></clipPath><path d="M1,10 L15,10" stroke="rgb(107,178,244)" id="Minneapolis" style="stroke-width: 2; stroke-linejoin: round; stroke-linecap: round; fill: none; mix-blend-mode: normal;"/></g><g id="Minneapolis-svg"><text transform="translate(68, 107.609375)" fill="rgb(51,51,51)" style="font-family: BentonSans; font-weight: 400; font-size: 12px;"><tspan x="0" dy="12">Minneapolis</tspan></text></g><g id="US-svg" clip-path="url(#rect-mask-US-3)" transform="translate(144, 104)"><clipPath id="rect-mask-US-3"><rect x="0" y="0" width="16" height="20"/></clipPath><path d="M1,10 L15,10" stroke="rgb(136,136,136)" id="US" style="stroke-width: 2; stroke-dasharray: 0.5, 4; stroke-linejoin: round; stroke-linecap: round; fill: none; mix-blend-mode: normal;"/></g><g id="US-svg"><text transform="translate(164, 107.609375)" fill="rgb(51,51,51)" style="font-family: BentonSans; font-weight: 400; font-size: 12px;"><tspan x="0" dy="12">US</tspan></text></g></g><g id="after-body-svg"/><g id="above-footer-svg"/><g id="footer-svg"><g id="footer-inner-svg"><g id="footer-main-svg"><g id="text-svg"><text transform="translate(0, 382)" fill="rgb(136,136,136)" style="font-family: BentonSans; font-weight: 400; font-size: 11px;"><tspan x="0" dy="11">Chart:</tspan></text><text transform="translate(34, 382)" fill="rgb(136,136,136)" style="font-family: BentonSans; font-weight: 400; font-size: 11px;"><tspan x="0" dy="11">Jeff Hargarten, Star Tribune</tspan></text></g><g id="text-svg"><text transform="translate(174, 382)" fill="rgb(136,136,136)" style="font-family: BentonSans; font-weight: 400; font-size: 11px;"><tspan x="0" dy="11">​ •</tspan></text></g><g id="text-svg"><text transform="translate(185, 382)" fill="rgb(136,136,136)" style="font-family: BentonSans; font-weight: 400; font-size: 11px;"><tspan x="0" dy="11">Source:</tspan></text><text transform="translate(226, 382)" fill="rgb(136,136,136)" style="font-family: BentonSans; font-weight: 400; font-size: 11px;"><tspan x="0" dy="11">OpenTable</tspan></text></g></g></g></g><g id="below-footer-svg"/></g></svg>