<svg xmlns:xlink="http://www.w3.org/1999/xlink" xmlns="http://www.w3.org/2000/svg" id="exportSvg" width="522" height="400"><defs/><g><g id="header-svg"><g id="text-svg"><text transform="translate(0, -2)" fill="rgb(51,51,51)" style="font-family: BentonSans; font-weight: 700; font-size: 19px;"><tspan x="0" dy="19">Restaurants are rebounding</tspan></text></g><g id="text-svg"><text transform="translate(0, 31)" fill="rgb(51,51,51)" style="font-family: BentonSans; font-weight: 400; font-size: 15px;"><tspan x="0" dy="15">Many bars and restaurants have reopened outdoor and indoor dining, and </tspan></text><text transform="translate(0, 51)" fill="rgb(51,51,51)" style="font-family: BentonSans; font-weight: 400; font-size: 15px;"><tspan x="0" dy="15">patrons are returning.</tspan></text></g></g><g id="chart-svg"><g id="group-svg" clip-path="url(#rect-mask-group-0)" transform="translate(0, 104)"><clipPath id="rect-mask-group-0"><rect x="0" y="0" width="522" height="255"/></clipPath><g id="group-svg" transform="translate(46, 34)"><g id="x-svg ticks-svg" transform="translate(0, 208)"><g transform="translate(53.51154880914924, 0)"><text transform="translate(-11.5, -12) translate(11.5, 11)" fill="rgb(133, 133, 133)" style="text-anchor: middle; font-family: BentonSans; font-weight: 400; font-size: 12px;"><tspan x="0" dy="12">Mar</tspan></text></g><g transform="translate(166.96438856060783, 0)"><text transform="translate(-10, -12) translate(10, 11)" fill="rgb(133, 133, 133)" style="text-anchor: middle; font-family: BentonSans; font-weight: 400; font-size: 12px;"><tspan x="0" dy="12">Apr</tspan></text></g><g transform="translate(276.75745928782584, 0)"><text transform="translate(-12.5, -12) translate(12.5, 11)" fill="rgb(133, 133, 133)" style="text-anchor: middle; font-family: BentonSans; font-weight: 400; font-size: 12px;"><tspan x="0" dy="12">May</tspan></text></g><g transform="translate(390.21029903928445, 0)"><text transform="translate(-10, -12) translate(10, 11)" fill="rgb(133, 133, 133)" style="text-anchor: middle; font-family: BentonSans; font-weight: 400; font-size: 12px;"><tspan x="0" dy="12">Jun</tspan></text></g></g><g id="x-svg axis-svg" transform="translate(0, 76.125)"><line x1="0" x2="473" y1="0" y2="0" style="stroke: rgb(51, 51, 51); stroke-width: 1;"/></g><g id="y-grid-svg"><g transform="translate(0, 203)"><line x1="0" x2="473" y1="0" y2="0" style="stroke: rgb(238, 238, 238); stroke-width: 1;"/><text transform="translate(-4, 4) translate(-41, -12) translate(41, 0)" fill="rgb(133, 133, 133)" style="text-anchor: end; font-family: BentonSans; font-weight: 400; font-size: 12px;"><tspan x="0" dy="12">−100%</tspan></text></g><g transform="translate(0, 177.625)"><line x1="0" x2="473" y1="0" y2="0" style="stroke: rgb(238, 238, 238); stroke-width: 1;"/><text transform="translate(-4, 4) translate(-35, -12) translate(35, 0)" fill="rgb(133, 133, 133)" style="text-anchor: end; font-family: BentonSans; font-weight: 400; font-size: 12px;"><tspan x="0" dy="12">−80%</tspan></text></g><g transform="translate(0, 152.25)"><line x1="0" x2="473" y1="0" y2="0" style="stroke: rgb(238, 238, 238); stroke-width: 1;"/><text transform="translate(-4, 4) translate(-35, -12) translate(35, 0)" fill="rgb(133, 133, 133)" style="text-anchor: end; font-family: BentonSans; font-weight: 400; font-size: 12px;"><tspan x="0" dy="12">−60%</tspan></text></g><g transform="translate(0, 126.875)"><line x1="0" x2="473" y1="0" y2="0" style="stroke: rgb(238, 238, 238); stroke-width: 1;"/><text transform="translate(-4, 4) translate(-35, -12) translate(35, 0)" fill="rgb(133, 133, 133)" style="text-anchor: end; font-family: BentonSans; font-weight: 400; font-size: 12px;"><tspan x="0" dy="12">−40%</tspan></text></g><g transform="translate(0, 101.5)"><line x1="0" x2="473" y1="0" y2="0" style="stroke: rgb(238, 238, 238); stroke-width: 1;"/><text transform="translate(-4, 4) translate(-35, -12) translate(35, 0)" fill="rgb(133, 133, 133)" style="text-anchor: end; font-family: BentonSans; font-weight: 400; font-size: 12px;"><tspan x="0" dy="12">−20%</tspan></text></g><g id="tick-svg tick-major-svg" transform="translate(0, 76.125)"><text transform="translate(-4, 4) translate(-20, -12) translate(20, 0)" fill="rgb(133, 133, 133)" style="text-anchor: end; font-family: BentonSans; font-weight: 400; font-size: 12px;"><tspan x="0" dy="12">0%</tspan></text></g><g transform="translate(0, 50.75)"><line x1="0" x2="473" y1="0" y2="0" style="stroke: rgb(238, 238, 238); stroke-width: 1;"/><text transform="translate(-4, 4) translate(-27, -12) translate(27, 0)" fill="rgb(133, 133, 133)" style="text-anchor: end; font-family: BentonSans; font-weight: 400; font-size: 12px;"><tspan x="0" dy="12">20%</tspan></text></g><g transform="translate(0, 25.375)"><line x1="0" x2="473" y1="0" y2="0" style="stroke: rgb(238, 238, 238); stroke-width: 1;"/><text transform="translate(-4, 4) translate(-27, -12) translate(27, 0)" fill="rgb(133, 133, 133)" style="text-anchor: end; font-family: BentonSans; font-weight: 400; font-size: 12px;"><tspan x="0" dy="12">40%</tspan></text></g><g><line x1="0" x2="473" y1="0" y2="0" style="stroke: rgb(238, 238, 238); stroke-width: 1;"/><text transform="translate(-4, 4) translate(-27, -12) translate(27, 0)" fill="rgb(133, 133, 133)" style="text-anchor: end; font-family: BentonSans; font-weight: 400; font-size: 12px;"><tspan x="0" dy="12">60%</tspan></text></g></g><g id="lines-svg"><g id="MN-svg"><path d="M9.594320518262045,90.08125L13.254089542502644,11.418750000000017L16.913858566743244,95.15625L20.573627590983843,87.54375L24.233396615224443,54.556250000000006L27.893165639465042,48.212500000000006L31.552934663705646,73.5875L35.21270368794624,52.01874999999998L38.87247271218684,77.39375L42.53224173642744,67.24375L46.19201076066804,34.256249999999994L49.85177978490864,74.85625000000002L53.51154880914924,77.39375L57.17131783338984,87.54375L60.83108685763044,78.6625L64.49085588187104,79.93125L68.15062490611163,97.69375L71.81039393035223,91.35L75.47016295459284,1.268749999999983L79.12993197883344,59.631249999999994L82.78970100307404,97.69375L86.44947002731463,91.35L90.10923905155524,98.9625L93.76900807579584,106.575L97.42877710003644,114.1875L101.08854612427704,130.68124999999998L104.74831514851763,140.83125L108.40808417275824,167.475L112.06785319699883,200.4625L115.72762222123943,203L119.38739124548002,203L123.04716026972062,203L126.70692929396122,203L130.36669831820183,203L134.02646734244243,203L137.68623636668303,203L141.34600539092364,203L145.00577441516424,203L148.66554343940484,203L152.32531246364542,203L155.98508148788602,203L159.64485051212662,203L163.30461953636723,203L166.96438856060783,203L170.62415758484843,203L174.28392660908904,203L177.94369563332964,203L181.60346465757024,203L185.26323368181085,203L188.92300270605142,203L192.58277173029202,203L196.24254075453263,203L199.90230977877323,203L203.56207880301383,203L207.22184782725444,203L210.881616851495,203L214.5413858757356,203L218.20115489997622,203L221.86092392421682,203L225.52069294845742,203L229.180461972698,203L232.8402309969386,203L236.50000002117923,203L240.15976904541984,203L243.81953806966044,203L247.47930709390099,203L251.1390761181416,203L254.7988451423822,203L258.4586141666228,203L262.1183831908634,203L265.778152215104,203L269.43792123934463,203L273.0976902635852,203L276.75745928782584,203L280.4172283120664,203L284.076997336307,203L287.7367663605476,203L291.3965353847882,203L295.0563044090288,203L298.7160734332694,203L302.37584245751003,203L306.0356114817506,203L309.69538050599124,203L313.3551495302318,202.44175L317.01491855447244,202.5305625L320.67468757871296,203L324.3344566029536,202.8604375L327.99422562719417,203L331.6539946514348,202.21337499999998L335.3137636756754,202.23875L338.973532699916,202.3529375L342.6333017241566,202.467125L346.2930707483972,202.314875L349.9528397726378,202.59400000000002L353.6126087968784,202.64475L357.272377821119,202.6828125L360.9321468453596,202.6828125L364.5919158696002,203L368.25168489384083,201.12225L371.9114539180814,201.3125625L375.57122294232204,201.5155625L379.2309919665626,201.93425L382.89076099080324,201.908875L386.5505300150438,201.99768749999998L390.21029903928445,171.357375L393.870068063525,183.8545625L397.5298370877656,172.60075L401.1896061120062,172.06787500000002L404.8493751362468,171.38275L408.5091441604874,173.3239375L412.168913184728,165.6860625L415.8286822089686,168.84525L419.48845123320916,186.582375L423.1482202574498,151.438L426.80798928169037,142.5694375L430.467758305931,141.13575L434.1275273301716,141.1484375L437.7872963544122,162.8186875L441.4470653786528,139.9685L445.1068344028934,138.95350000000002L448.766603427134,136.035375L452.4263724513746,150.3088125L456.0861414756152,131.97537499999999L459.7459104998558,131.0365L463.4056795240964,107.793" stroke="rgb(44,160,44)" id="MN" style="stroke-width: 2; stroke-linejoin: round; stroke-linecap: round; fill: none; mix-blend-mode: normal;"/></g><g id="US-svg"><path d="M9.594320518262045,76.125L13.254089542502644,71.04999999999998L16.913858566743244,76.125L20.573627590983843,77.39375L24.233396615224443,73.5875L27.893165639465042,68.51250000000002L31.552934663705646,73.5875L35.21270368794624,73.5875L38.87247271218684,77.39375L42.53224173642744,77.39375L46.19201076066804,74.85625000000002L49.85177978490864,72.31875L53.51154880914924,73.5875L57.17131783338984,85.00625L60.83108685763044,87.54375L64.49085588187104,82.46875L68.15062490611163,82.46875L71.81039393035223,83.7375L75.47016295459284,79.93125L79.12993197883344,78.6625L82.78970100307404,93.8875L86.44947002731463,98.9625L90.10923905155524,100.23125L93.76900807579584,111.64999999999999L97.42877710003644,121.8L101.08854612427704,129.41250000000002L104.74831514851763,137.02499999999998L108.40808417275824,147.175L112.06785319699883,182.7L115.72762222123943,191.58125L119.38739124548002,199.878875L123.04716026972062,202.1753125L126.70692929396122,202.8604375L130.36669831820183,202.9111875L134.02646734244243,202.9619375L137.68623636668303,202.9619375L141.34600539092364,202.974625L145.00577441516424,202.974625L148.66554343940484,202.9873125L152.32531246364542,202.974625L155.98508148788602,203L159.64485051212662,202.9873125L163.30461953636723,202.9873125L166.96438856060783,202.9873125L170.62415758484843,202.974625L174.28392660908904,202.9619375L177.94369563332964,202.974625L181.60346465757024,202.9873125L185.26323368181085,203L188.92300270605142,202.9873125L192.58277173029202,202.9619375L196.24254075453263,203L199.90230977877323,202.9619375L203.56207880301383,202.974625L207.22184782725444,202.9873125L210.881616851495,202.9873125L214.5413858757356,202.9873125L218.20115489997622,202.9619375L221.86092392421682,202.94924999999998L225.52069294845742,202.9619375L229.180461972698,202.9619375L232.8402309969386,202.974625L236.50000002117923,202.9873125L240.15976904541984,202.9619375L243.81953806966044,202.9619375L247.47930709390099,202.974625L251.1390761181416,202.9619375L254.7988451423822,202.9619375L258.4586141666228,202.9873125L262.1183831908634,202.8604375L265.778152215104,202.87312500000002L269.43792123934463,202.8858125L273.0976902635852,202.822375L276.75745928782584,201.4901875L280.4172283120664,201.6931875L284.076997336307,201.93425L287.7367663605476,200.51325L291.3965353847882,200.437125L295.0563044090288,200.487875L298.7160734332694,200.1453125L302.37584245751003,199.269875L306.0356114817506,199.346L309.69538050599124,199.016125L313.3551495302318,197.5063125L317.01491855447244,197.44287500000002L320.67468757871296,197.0495625L324.3344566029536,196.580125L327.99422562719417,194.8165625L331.6539946514348,194.1568125L335.3137636756754,194.93075L338.973532699916,194.956125L342.6333017241566,193.6493125L346.2930707483972,192.367875L349.9528397726378,190.0968125L353.6126087968784,186.8995625L357.272377821119,186.55700000000002L360.9321468453596,187.62275L364.5919158696002,186.30325L368.25168489384083,184.6919375L371.9114539180814,183.42318749999998L375.57122294232204,183.1440625L379.2309919665626,179.680375L382.89076099080324,178.86837500000001L386.5505300150438,181.4439375L390.21029903928445,182.92837500000002L393.870068063525,182.04025000000001L397.5298370877656,179.09675L401.1896061120062,177.193625L404.8493751362468,171.86487499999998L408.5091441604874,169.885625L412.168913184728,170.114L415.8286822089686,171.458875L419.48845123320916,171.6491875L423.1482202574498,167.881L426.80798928169037,164.861375L430.467758305931,158.619125L434.1275273301716,158.1243125L437.7872963544122,175.163625L441.4470653786528,161.7275625L445.1068344028934,160.090875L448.766603427134,158.8475L452.4263724513746,157.4265L456.0861414756152,152.2119375L459.7459104998558,150.7275L463.4056795240964,128.61318749999998" stroke="rgb(136,136,136)" id="US" style="stroke-width: 2; stroke-dasharray: 0.5, 4; stroke-linejoin: round; stroke-linecap: round; fill: none; mix-blend-mode: normal;"/></g></g><g id="line-symbols-svg"><path d="M -1,0 a 1,1 0 1,0 2,0 a 1,1 0 1,0 -2,0 Z" id="MN" transform="translate(463.4056795240964, 107.793) scale(3.5)" style="fill: rgb(44, 160, 44); mix-blend-mode: normal;"/><path d="M -1,0 a 1,1 0 1,0 2,0 a 1,1 0 1,0 -2,0 Z" id="US" transform="translate(463.4056795240964, 128.61318749999998) scale(3.5)" style="fill: rgb(136, 136, 136); mix-blend-mode: normal;"/></g></g></g><g id="MN-svg" clip-path="url(#rect-mask-MN-1)" transform="translate(0, 104)"><clipPath id="rect-mask-MN-1"><rect x="0" y="0" width="16" height="20"/></clipPath><path d="M1,10 L15,10" stroke="rgb(44,160,44)" id="MN" style="stroke-width: 2; stroke-linejoin: round; stroke-linecap: round; fill: none; mix-blend-mode: normal;"/></g><g id="MN-svg"><text transform="translate(20, 107.609375)" fill="rgb(51,51,51)" style="font-family: BentonSans; font-weight: 400; font-size: 12px;"><tspan x="0" dy="12">MN</tspan></text></g><g id="US-svg" clip-path="url(#rect-mask-US-2)" transform="translate(48, 104)"><clipPath id="rect-mask-US-2"><rect x="0" y="0" width="16" height="20"/></clipPath><path d="M1,10 L15,10" stroke="rgb(136,136,136)" id="US" style="stroke-width: 2; stroke-dasharray: 0.5, 4; stroke-linejoin: round; stroke-linecap: round; fill: none; mix-blend-mode: normal;"/></g><g id="US-svg"><text transform="translate(68, 107.609375)" fill="rgb(51,51,51)" style="font-family: BentonSans; font-weight: 400; font-size: 12px;"><tspan x="0" dy="12">US</tspan></text></g></g><g id="after-body-svg"/><g id="above-footer-svg"/><g id="footer-svg"><g id="footer-inner-svg"><g id="footer-main-svg"><g id="text-svg"><text transform="translate(0, 382)" fill="rgb(136,136,136)" style="font-family: BentonSans; font-weight: 400; font-size: 11px;"><tspan x="0" dy="11">Chart:</tspan></text><text transform="translate(34, 382)" fill="rgb(136,136,136)" style="font-family: BentonSans; font-weight: 400; font-size: 11px;"><tspan x="0" dy="11">Jeff Hargarten, Star Tribune</tspan></text></g><g id="text-svg"><text transform="translate(174, 382)" fill="rgb(136,136,136)" style="font-family: BentonSans; font-weight: 400; font-size: 11px;"><tspan x="0" dy="11">​ •</tspan></text></g><g id="text-svg"><text transform="translate(185, 382)" fill="rgb(136,136,136)" style="font-family: BentonSans; font-weight: 400; font-size: 11px;"><tspan x="0" dy="11">Source:</tspan></text><text transform="translate(226, 382)" fill="rgb(136,136,136)" style="font-family: BentonSans; font-weight: 400; font-size: 11px;"><tspan x="0" dy="11">OpenTable</tspan></text></g></g></g></g><g id="below-footer-svg"/></g></svg>