<svg xmlns:xlink="http://www.w3.org/1999/xlink" xmlns="http://www.w3.org/2000/svg" id="exportSvg" width="522" height="400"><defs/><g><g id="header-svg"><g id="text-svg"><text transform="translate(0, -2)" fill="rgb(51,51,51)" style="font-family: BentonSans; font-weight: 700; font-size: 19px;"><tspan x="0" dy="19">Restaurants are still mostly empty</tspan></text></g><g id="text-svg"><text transform="translate(0, 31)" fill="rgb(51,51,51)" style="font-family: BentonSans; font-weight: 400; font-size: 15px;"><tspan x="0" dy="15">While some restaurants have reopened outdoor and indoor dining, many </tspan></text><text transform="translate(0, 51)" fill="rgb(51,51,51)" style="font-family: BentonSans; font-weight: 400; font-size: 15px;"><tspan x="0" dy="15">restrictions remain and customers are still largely staying away.</tspan></text></g></g><g id="chart-svg"><g id="group-svg" clip-path="url(#rect-mask-group-0)" transform="translate(0, 104)"><clipPath id="rect-mask-group-0"><rect x="0" y="0" width="522" height="255"/></clipPath><g id="group-svg" transform="translate(46, 34)"><g id="x-svg ticks-svg" transform="translate(0, 208)"><g transform="translate(56.139075267408444, 0)"><text transform="translate(-11.5, -12) translate(11.5, 11)" fill="rgb(133, 133, 133)" style="text-anchor: middle; font-family: BentonSans; font-weight: 400; font-size: 12px;"><tspan x="0" dy="12">Mar</tspan></text></g><g transform="translate(176.37969177076704, 0)"><text transform="translate(-10, -12) translate(10, 11)" fill="rgb(133, 133, 133)" style="text-anchor: middle; font-family: BentonSans; font-weight: 400; font-size: 12px;"><tspan x="0" dy="12">Apr</tspan></text></g><g transform="translate(292.7415787095012, 0)"><text transform="translate(-12.5, -12) translate(12.5, 11)" fill="rgb(133, 133, 133)" style="text-anchor: middle; font-family: BentonSans; font-weight: 400; font-size: 12px;"><tspan x="0" dy="12">May</tspan></text></g><g transform="translate(412.9821952128598, 0)"><text transform="translate(-10, -12) translate(10, 11)" fill="rgb(133, 133, 133)" style="text-anchor: middle; font-family: BentonSans; font-weight: 400; font-size: 12px;"><tspan x="0" dy="12">Jun</tspan></text></g></g><g id="x-svg axis-svg" transform="translate(0, 76.125)"><line x1="0" x2="473" y1="0" y2="0" style="stroke: rgb(51, 51, 51); stroke-width: 1;"/></g><g id="y-grid-svg"><g transform="translate(0, 203)"><line x1="0" x2="473" y1="0" y2="0" style="stroke: rgb(238, 238, 238); stroke-width: 1;"/><text transform="translate(-4, 4) translate(-41, -12) translate(41, 0)" fill="rgb(133, 133, 133)" style="text-anchor: end; font-family: BentonSans; font-weight: 400; font-size: 12px;"><tspan x="0" dy="12">−100%</tspan></text></g><g transform="translate(0, 177.625)"><line x1="0" x2="473" y1="0" y2="0" style="stroke: rgb(238, 238, 238); stroke-width: 1;"/><text transform="translate(-4, 4) translate(-35, -12) translate(35, 0)" fill="rgb(133, 133, 133)" style="text-anchor: end; font-family: BentonSans; font-weight: 400; font-size: 12px;"><tspan x="0" dy="12">−80%</tspan></text></g><g transform="translate(0, 152.25)"><line x1="0" x2="473" y1="0" y2="0" style="stroke: rgb(238, 238, 238); stroke-width: 1;"/><text transform="translate(-4, 4) translate(-35, -12) translate(35, 0)" fill="rgb(133, 133, 133)" style="text-anchor: end; font-family: BentonSans; font-weight: 400; font-size: 12px;"><tspan x="0" dy="12">−60%</tspan></text></g><g transform="translate(0, 126.875)"><line x1="0" x2="473" y1="0" y2="0" style="stroke: rgb(238, 238, 238); stroke-width: 1;"/><text transform="translate(-4, 4) translate(-35, -12) translate(35, 0)" fill="rgb(133, 133, 133)" style="text-anchor: end; font-family: BentonSans; font-weight: 400; font-size: 12px;"><tspan x="0" dy="12">−40%</tspan></text></g><g transform="translate(0, 101.5)"><line x1="0" x2="473" y1="0" y2="0" style="stroke: rgb(238, 238, 238); stroke-width: 1;"/><text transform="translate(-4, 4) translate(-35, -12) translate(35, 0)" fill="rgb(133, 133, 133)" style="text-anchor: end; font-family: BentonSans; font-weight: 400; font-size: 12px;"><tspan x="0" dy="12">−20%</tspan></text></g><g id="tick-svg tick-major-svg" transform="translate(0, 76.125)"><text transform="translate(-4, 4) translate(-20, -12) translate(20, 0)" fill="rgb(133, 133, 133)" style="text-anchor: end; font-family: BentonSans; font-weight: 400; font-size: 12px;"><tspan x="0" dy="12">0%</tspan></text></g><g transform="translate(0, 50.75)"><line x1="0" x2="473" y1="0" y2="0" style="stroke: rgb(238, 238, 238); stroke-width: 1;"/><text transform="translate(-4, 4) translate(-27, -12) translate(27, 0)" fill="rgb(133, 133, 133)" style="text-anchor: end; font-family: BentonSans; font-weight: 400; font-size: 12px;"><tspan x="0" dy="12">20%</tspan></text></g><g transform="translate(0, 25.375)"><line x1="0" x2="473" y1="0" y2="0" style="stroke: rgb(238, 238, 238); stroke-width: 1;"/><text transform="translate(-4, 4) translate(-27, -12) translate(27, 0)" fill="rgb(133, 133, 133)" style="text-anchor: end; font-family: BentonSans; font-weight: 400; font-size: 12px;"><tspan x="0" dy="12">40%</tspan></text></g><g><line x1="0" x2="473" y1="0" y2="0" style="stroke: rgb(238, 238, 238); stroke-width: 1;"/><text transform="translate(-4, 4) translate(-27, -12) translate(27, 0)" fill="rgb(133, 133, 133)" style="text-anchor: end; font-family: BentonSans; font-weight: 400; font-size: 12px;"><tspan x="0" dy="12">60%</tspan></text></g></g><g id="lines-svg"><g id="MN-svg"><path d="M9.59432049191479,90.08125L13.473050056539261,11.418750000000017L17.351779621163733,95.15625L21.2305091857882,87.54375L25.109238750412676,54.556250000000006L28.987968315037143,48.212500000000006L32.866697879661615,73.5875L36.74542744428609,52.01874999999998L40.62415700891056,77.39375L44.50288657353503,67.24375L48.3816161381595,34.256249999999994L52.26034570278397,74.85625000000002L56.139075267408444,77.39375L60.017804832032915,87.54375L63.89653439665739,78.6625L67.77526396128185,79.93125L71.65399352590632,97.69375L75.53272309053081,91.35L79.41145265515527,1.268749999999983L83.29018221977975,59.631249999999994L87.16891178440422,97.69375L91.04764134902868,91.35L94.92637091365316,98.9625L98.80510047827762,106.575L102.68383004290209,114.1875L106.56255960752657,130.68124999999998L110.44128917215104,140.83125L114.32001873677551,167.475L118.19874830139999,200.4625L122.07747786602444,203L125.95620743064892,203L129.8349369952734,203L133.71366655989786,203L137.59239612452234,203L141.4711256891468,203L145.3498552537713,203L149.22858481839575,203L153.10731438302022,203L156.9860439476447,203L160.86477351226915,203L164.74350307689363,203L168.6222326415181,203L172.5009622061426,203L176.37969177076704,203L180.25842133539152,203L184.13715090001597,203L188.01588046464047,203L191.89461002926495,203L195.7733395938894,203L199.65206915851388,203L203.53079872313833,203L207.4095282877628,203L211.2882578523873,203L215.16698741701177,203L219.04571698163622,203L222.9244465462607,203L226.80317611088518,203L230.68190567550965,203L234.56063524013413,203L238.4393648047586,203L242.31809436938303,203L246.1968239340075,203L250.075553498632,203L253.9542830632565,203L257.833012627881,203L261.7117421925054,203L265.5904717571299,203L269.4692013217544,203L273.34793088637883,203L277.2266604510033,203L281.10539001562773,203L284.98411958025224,203L288.86284914487675,203L292.7415787095012,203L296.62030827412565,203L300.4990378387501,203L304.3777674033746,203L308.2564969679991,203L312.1352265326235,203L316.013956097248,203L319.89268566187246,203L323.77141522649697,203L327.6501447911214,203L331.52887435574587,202.44175L335.4076039203704,202.5305625L339.2863334849948,203L343.16506304961933,202.8604375L347.0437926142437,203L350.92252217886823,202.21337499999998L354.80125174349274,202.23875L358.6799813081172,202.3529375L362.5587108727417,202.467125L366.4374404373661,202.314875L370.3161700019906,202.59400000000002L374.1948995666151,202.64475L378.07362913123956,202.6828125L381.952358695864,202.6828125L385.83108826048846,203L389.70981782511296,201.12225L393.5885473897374,201.3125625L397.4672769543619,201.5155625L401.34600651898637,201.93425L405.2247360836108,201.908875L409.10346564823533,201.99768749999998L412.9821952128598,171.357375L416.8609247774843,183.8545625L420.73965434210874,172.60075L424.6183839067332,172.06787500000002L428.4971134713577,171.38275L432.37584303598214,173.3239375L436.2545726006066,165.6860625L440.1333021652311,168.84525L444.01203172985555,186.582375L447.89076129448006,151.438L451.7694908591045,142.5694375L455.64822042372896,141.13575L459.52694998835346,141.1484375L463.4056795529779,162.8186875" stroke="rgb(44,160,44)" id="MN" style="stroke-width: 2; stroke-linejoin: round; stroke-linecap: round; fill: none; mix-blend-mode: normal;"/></g><g id="US-svg"><path d="M9.59432049191479,76.125L13.473050056539261,71.04999999999998L17.351779621163733,76.125L21.2305091857882,77.39375L25.109238750412676,73.5875L28.987968315037143,68.51250000000002L32.866697879661615,73.5875L36.74542744428609,73.5875L40.62415700891056,77.39375L44.50288657353503,77.39375L48.3816161381595,74.85625000000002L52.26034570278397,72.31875L56.139075267408444,73.5875L60.017804832032915,85.00625L63.89653439665739,87.54375L67.77526396128185,82.46875L71.65399352590632,82.46875L75.53272309053081,83.7375L79.41145265515527,79.93125L83.29018221977975,78.6625L87.16891178440422,93.8875L91.04764134902868,98.9625L94.92637091365316,100.23125L98.80510047827762,111.64999999999999L102.68383004290209,121.8L106.56255960752657,129.41250000000002L110.44128917215104,137.02499999999998L114.32001873677551,147.175L118.19874830139999,182.7L122.07747786602444,191.58125L125.95620743064892,199.878875L129.8349369952734,202.1753125L133.71366655989786,202.8604375L137.59239612452234,202.9111875L141.4711256891468,202.9619375L145.3498552537713,202.9619375L149.22858481839575,202.974625L153.10731438302022,202.974625L156.9860439476447,202.9873125L160.86477351226915,202.974625L164.74350307689363,203L168.6222326415181,202.9873125L172.5009622061426,202.9873125L176.37969177076704,202.9873125L180.25842133539152,202.974625L184.13715090001597,202.9619375L188.01588046464047,202.974625L191.89461002926495,202.9873125L195.7733395938894,203L199.65206915851388,202.9873125L203.53079872313833,202.9619375L207.4095282877628,203L211.2882578523873,202.9619375L215.16698741701177,202.974625L219.04571698163622,202.9873125L222.9244465462607,202.9873125L226.80317611088518,202.9873125L230.68190567550965,202.9619375L234.56063524013413,202.94924999999998L238.4393648047586,202.9619375L242.31809436938303,202.9619375L246.1968239340075,202.974625L250.075553498632,202.9873125L253.9542830632565,202.9619375L257.833012627881,202.9619375L261.7117421925054,202.974625L265.5904717571299,202.9619375L269.4692013217544,202.9619375L273.34793088637883,202.9873125L277.2266604510033,202.8604375L281.10539001562773,202.87312500000002L284.98411958025224,202.8858125L288.86284914487675,202.822375L292.7415787095012,201.4901875L296.62030827412565,201.6931875L300.4990378387501,201.93425L304.3777674033746,200.51325L308.2564969679991,200.437125L312.1352265326235,200.487875L316.013956097248,200.1453125L319.89268566187246,199.269875L323.77141522649697,199.346L327.6501447911214,199.016125L331.52887435574587,197.5063125L335.4076039203704,197.44287500000002L339.2863334849948,197.0495625L343.16506304961933,196.580125L347.0437926142437,194.8165625L350.92252217886823,194.1568125L354.80125174349274,194.93075L358.6799813081172,194.956125L362.5587108727417,193.6493125L366.4374404373661,192.367875L370.3161700019906,190.0968125L374.1948995666151,186.8995625L378.07362913123956,186.55700000000002L381.952358695864,187.62275L385.83108826048846,186.30325L389.70981782511296,184.6919375L393.5885473897374,183.42318749999998L397.4672769543619,183.1440625L401.34600651898637,179.680375L405.2247360836108,178.86837500000001L409.10346564823533,181.4439375L412.9821952128598,182.92837500000002L416.8609247774843,182.04025000000001L420.73965434210874,179.09675L424.6183839067332,177.193625L428.4971134713577,171.86487499999998L432.37584303598214,169.885625L436.2545726006066,170.114L440.1333021652311,171.458875L444.01203172985555,171.6491875L447.89076129448006,167.881L451.7694908591045,164.861375L455.64822042372896,158.619125L459.52694998835346,158.1243125L463.4056795529779,175.163625" stroke="rgb(136,136,136)" id="US" style="stroke-width: 2; stroke-dasharray: 0.5, 4; stroke-linejoin: round; stroke-linecap: round; fill: none; mix-blend-mode: normal;"/></g></g><g id="line-symbols-svg"><path d="M -1,0 a 1,1 0 1,0 2,0 a 1,1 0 1,0 -2,0 Z" id="MN" transform="translate(463.4056795529779, 162.8186875) scale(3.5)" style="fill: rgb(44, 160, 44); mix-blend-mode: normal;"/><path d="M -1,0 a 1,1 0 1,0 2,0 a 1,1 0 1,0 -2,0 Z" id="US" transform="translate(463.4056795529779, 175.163625) scale(3.5)" style="fill: rgb(136, 136, 136); mix-blend-mode: normal;"/></g></g></g><g id="MN-svg" clip-path="url(#rect-mask-MN-1)" transform="translate(0, 104)"><clipPath id="rect-mask-MN-1"><rect x="0" y="0" width="16" height="20"/></clipPath><path d="M1,10 L15,10" stroke="rgb(44,160,44)" id="MN" style="stroke-width: 2; stroke-linejoin: round; stroke-linecap: round; fill: none; mix-blend-mode: normal;"/></g><g id="MN-svg"><text transform="translate(20, 107.609375)" fill="rgb(51,51,51)" style="font-family: BentonSans; font-weight: 400; font-size: 12px;"><tspan x="0" dy="12">MN</tspan></text></g><g id="US-svg" clip-path="url(#rect-mask-US-2)" transform="translate(48, 104)"><clipPath id="rect-mask-US-2"><rect x="0" y="0" width="16" height="20"/></clipPath><path d="M1,10 L15,10" stroke="rgb(136,136,136)" id="US" style="stroke-width: 2; stroke-dasharray: 0.5, 4; stroke-linejoin: round; stroke-linecap: round; fill: none; mix-blend-mode: normal;"/></g><g id="US-svg"><text transform="translate(68, 107.609375)" fill="rgb(51,51,51)" style="font-family: BentonSans; font-weight: 400; font-size: 12px;"><tspan x="0" dy="12">US</tspan></text></g></g><g id="after-body-svg"/><g id="above-footer-svg"/><g id="footer-svg"><g id="footer-inner-svg"><g id="footer-main-svg"><g id="text-svg"><text transform="translate(0, 382)" fill="rgb(136,136,136)" style="font-family: BentonSans; font-weight: 400; font-size: 11px;"><tspan x="0" dy="11">Chart:</tspan></text><text transform="translate(34, 382)" fill="rgb(136,136,136)" style="font-family: BentonSans; font-weight: 400; font-size: 11px;"><tspan x="0" dy="11">Jeff Hargarten, Star Tribune</tspan></text></g><g id="text-svg"><text transform="translate(174, 382)" fill="rgb(136,136,136)" style="font-family: BentonSans; font-weight: 400; font-size: 11px;"><tspan x="0" dy="11">​ •</tspan></text></g><g id="text-svg"><text transform="translate(185, 382)" fill="rgb(136,136,136)" style="font-family: BentonSans; font-weight: 400; font-size: 11px;"><tspan x="0" dy="11">Source:</tspan></text><text transform="translate(226, 382)" fill="rgb(136,136,136)" style="font-family: BentonSans; font-weight: 400; font-size: 11px;"><tspan x="0" dy="11">OpenTable</tspan></text></g></g></g></g><g id="below-footer-svg"/></g></svg>