<svg xmlns:xlink="http://www.w3.org/1999/xlink" xmlns="http://www.w3.org/2000/svg" id="exportSvg" width="522" height="474"><defs/><g><g id="header-svg"><g id="text-svg"><text transform="translate(0, -2)" fill="rgb(51,51,51)" style="font-family: BentonSans; font-weight: 700; font-size: 19px;"><tspan x="0" dy="19">Minnesota's traffic is nearly normal again</tspan></text></g><g id="text-svg"><text transform="translate(0, 31)" fill="rgb(51,51,51)" style="font-family: BentonSans; font-weight: 400; font-size: 15px;"><tspan x="0" dy="15">Daily percent changes in traffic on roadways across the state drastically </tspan></text><text transform="translate(0, 51)" fill="rgb(51,51,51)" style="font-family: BentonSans; font-weight: 400; font-size: 15px;"><tspan x="0" dy="15">declined as responses to the coronavirus pandemic intensified, but have </tspan></text><text transform="translate(0, 71)" fill="rgb(51,51,51)" style="font-family: BentonSans; font-weight: 400; font-size: 15px;"><tspan x="0" dy="15">since crept back toward usual levels.</tspan></text><text transform="translate(0, 110)" fill="rgb(51,51,51)" style="font-family: BentonSans; font-weight: 400; font-size: 12px;"><tspan x="0" dy="12">Weekends</tspan></text></g></g><g id="chart-svg"><g id="group-svg" clip-path="url(#rect-mask-group-0)" transform="translate(0, 141)"><clipPath id="rect-mask-group-0"><rect x="0" y="0" width="522" height="292"/></clipPath><g id="group-svg" transform="translate(46, 34)"><g id="x-svg ticks-svg" transform="translate(0, 245)"><g transform="translate(9.564270173514847, 0)"><text transform="translate(-11.5, -12) translate(11.5, 11)" fill="rgb(133, 133, 133)" style="text-anchor: middle; font-family: BentonSans; font-weight: 400; font-size: 12px;"><tspan x="0" dy="12">Mar</tspan></text></g><g transform="translate(111.25188931741344, 0)"><text transform="translate(-10, -12) translate(10, 11)" fill="rgb(133, 133, 133)" style="text-anchor: middle; font-family: BentonSans; font-weight: 400; font-size: 12px;"><tspan x="0" dy="12">Apr</tspan></text></g><g transform="translate(209.6592626824766, 0)"><text transform="translate(-12.499992370605469, -12) translate(12.499992370605469, 11)" fill="rgb(133, 133, 133)" style="text-anchor: middle; font-family: BentonSans; font-weight: 400; font-size: 12px;"><tspan x="0" dy="12">May</tspan></text></g><g transform="translate(311.3468818263752, 0)"><text transform="translate(-10, -12) translate(10, 11)" fill="rgb(133, 133, 133)" style="text-anchor: middle; font-family: BentonSans; font-weight: 400; font-size: 12px;"><tspan x="0" dy="12">Jun</tspan></text></g><g transform="translate(409.7542551914383, 0)"><text transform="translate(-8, -12) translate(8, 11)" fill="rgb(133, 133, 133)" style="text-anchor: middle; font-family: BentonSans; font-weight: 400; font-size: 12px;"><tspan x="0" dy="12">Jul</tspan></text></g></g><g id="x-svg axis-svg" transform="translate(0, 40)"><line x1="0" x2="439" y1="0" y2="0" style="stroke: rgb(51, 51, 51); stroke-width: 1;"/></g><g id="free-range-svg"><rect width="6.15046" height="240" transform="translate(28.01565267946419, 0)" fill="rgb(87,87,87)" style="opacity: 0.05; fill: rgb(87, 87, 87);"/><rect width="6.15046" height="240" transform="translate(50.97737313131226, 0)" fill="rgb(87,87,87)" style="opacity: 0.05; fill: rgb(87, 87, 87);"/><rect width="6.15046" height="240" transform="translate(73.93909358316033, 0)" fill="rgb(87,87,87)" style="opacity: 0.05; fill: rgb(87, 87, 87);"/><rect width="6.15046" height="240" transform="translate(96.9008140350084, 0)" fill="rgb(87,87,87)" style="opacity: 0.05; fill: rgb(87, 87, 87);"/><rect width="6.15046" height="240" transform="translate(119.86253448685648, 0)" fill="rgb(87,87,87)" style="opacity: 0.05; fill: rgb(87, 87, 87);"/><rect width="6.15046" height="240" transform="translate(142.82425493870454, 0)" fill="rgb(87,87,87)" style="opacity: 0.05; fill: rgb(87, 87, 87);"/><rect width="6.15046" height="240" transform="translate(165.7859753905526, 0)" fill="rgb(87,87,87)" style="opacity: 0.05; fill: rgb(87, 87, 87);"/><rect width="6.15046" height="240" transform="translate(188.74769584240067, 0)" fill="rgb(87,87,87)" style="opacity: 0.05; fill: rgb(87, 87, 87);"/><rect width="6.15046" height="240" transform="translate(211.70941629424874, 0)" fill="rgb(87,87,87)" style="opacity: 0.05; fill: rgb(87, 87, 87);"/><rect width="6.15046" height="240" transform="translate(234.6711367460968, 0)" fill="rgb(87,87,87)" style="opacity: 0.05; fill: rgb(87, 87, 87);"/><rect width="6.15046" height="240" transform="translate(257.6328571979449, 0)" fill="rgb(87,87,87)" style="opacity: 0.05; fill: rgb(87, 87, 87);"/><rect width="6.15046" height="240" transform="translate(280.59457764979294, 0)" fill="rgb(87,87,87)" style="opacity: 0.05; fill: rgb(87, 87, 87);"/><rect width="6.15046" height="240" transform="translate(303.556298101641, 0)" fill="rgb(87,87,87)" style="opacity: 0.05; fill: rgb(87, 87, 87);"/><rect width="6.15046" height="240" transform="translate(326.51801855348907, 0)" fill="rgb(87,87,87)" style="opacity: 0.05; fill: rgb(87, 87, 87);"/><rect width="6.15046" height="240" transform="translate(349.4797390053372, 0)" fill="rgb(87,87,87)" style="opacity: 0.05; fill: rgb(87, 87, 87);"/><rect width="6.15046" height="240" transform="translate(372.4414594571852, 0)" fill="rgb(87,87,87)" style="opacity: 0.05; fill: rgb(87, 87, 87);"/><rect width="6.56049" height="240" transform="translate(394.9931491866788, 0)" fill="rgb(51,51,51)" style="opacity: 0.05; fill: rgb(51, 51, 51);"/><rect width="6.56049" height="240" transform="translate(417.95486963852693, 0)" fill="rgb(51,51,51)" style="opacity: 0.05; fill: rgb(51, 51, 51);"/></g><g id="y-grid-svg"><g transform="translate(0, 240)"><line x1="0" x2="439" y1="0" y2="0" style="stroke: rgb(238, 238, 238); stroke-width: 1;"/><text transform="translate(-4, 4) translate(-41, -12) translate(41, 0)" fill="rgb(133, 133, 133)" style="text-anchor: end; font-family: BentonSans; font-weight: 400; font-size: 12px;"><tspan x="0" dy="12">−100%</tspan></text></g><g transform="translate(0, 200)"><line x1="0" x2="439" y1="0" y2="0" style="stroke: rgb(238, 238, 238); stroke-width: 1;"/><text transform="translate(-4, 4) translate(-35, -12) translate(35, 0)" fill="rgb(133, 133, 133)" style="text-anchor: end; font-family: BentonSans; font-weight: 400; font-size: 12px;"><tspan x="0" dy="12">−80%</tspan></text></g><g transform="translate(0, 160)"><line x1="0" x2="439" y1="0" y2="0" style="stroke: rgb(238, 238, 238); stroke-width: 1;"/><text transform="translate(-4, 4) translate(-35, -12) translate(35, 0)" fill="rgb(133, 133, 133)" style="text-anchor: end; font-family: BentonSans; font-weight: 400; font-size: 12px;"><tspan x="0" dy="12">−60%</tspan></text></g><g transform="translate(0, 120)"><line x1="0" x2="439" y1="0" y2="0" style="stroke: rgb(238, 238, 238); stroke-width: 1;"/><text transform="translate(-4, 4) translate(-35, -12) translate(35, 0)" fill="rgb(133, 133, 133)" style="text-anchor: end; font-family: BentonSans; font-weight: 400; font-size: 12px;"><tspan x="0" dy="12">−40%</tspan></text></g><g transform="translate(0, 80)"><line x1="0" x2="439" y1="0" y2="0" style="stroke: rgb(238, 238, 238); stroke-width: 1;"/><text transform="translate(-4, 4) translate(-35, -12) translate(35, 0)" fill="rgb(133, 133, 133)" style="text-anchor: end; font-family: BentonSans; font-weight: 400; font-size: 12px;"><tspan x="0" dy="12">−20%</tspan></text></g><g id="tick-svg tick-major-svg" transform="translate(0, 40)"><text transform="translate(-4, 4) translate(-28, -12) translate(28, 0)" fill="rgb(133, 133, 133)" style="text-anchor: end; font-family: BentonSans; font-weight: 400; font-size: 12px;"><tspan x="0" dy="12">+0%</tspan></text></g><g><line x1="0" x2="439" y1="0" y2="0" style="stroke: rgb(238, 238, 238); stroke-width: 1;"/><text transform="translate(-4, 4) translate(-35, -12) translate(35, 0)" fill="rgb(133, 133, 133)" style="text-anchor: end; font-family: BentonSans; font-weight: 400; font-size: 12px;"><tspan x="0" dy="12">+20%</tspan></text></g></g><g id="lines-svg"><g id="moving_average-svg"><path d="M29.24574484652748,34.400000000000006L32.525990625362915,34.599999999999994L35.80623640419835,35.19999999999999L39.086482183033795,35.19999999999999L42.36672796186923,35.400000000000006L45.64697374070467,34.599999999999994L48.92721951954011,36L52.20746529837555,40L55.48771107721099,44.19999999999999L58.76795685604642,46.599999999999994L62.04820263488186,49.80000000000001L65.3284484137173,55.80000000000001L68.60869419255273,64.4L71.88893997138818,72.19999999999999L75.16918575022362,79.4L78.44943152905905,88L81.72967730789449,93L85.00992308672993,98L88.29016886556536,101.4L91.57041464440081,100.6L94.85066042323623,100.80000000000001L98.13090620207169,107.19999999999999L101.41115198090712,111.19999999999999L104.69139775974256,113.79999999999998L107.97164353857801,115.80000000000001L111.25188931741344,117.6L114.53213509624888,121.8L117.8123808750843,128L121.09262665391977,125.2L124.37287243275519,123L127.65311821159062,124.2L130.93336399042607,124.8L134.2136097692615,124.2L137.49385554809695,123L140.77410132693237,119.2L144.05434710576782,117.00000000000001L147.33459288460327,121.8L150.6148386634387,122L153.89508444227414,122L157.17533022110956,121L160.455575999945,119.6L163.73582177878046,117.8L167.01606755761588,115.80000000000001L170.29631333645133,107.6L173.57655911528678,105.19999999999999L176.8568048941222,102.80000000000001L180.13705067295763,100L183.4172964517931,97.80000000000001L186.69754223062853,96L189.97778800946395,94L193.2580337882994,91L196.53827956713485,88L199.81852534597027,87.4L203.0987711248057,86.6L206.37901690364117,83.80000000000001L209.6592626824766,85L212.93950846131202,85.6L216.21975424014747,86.80000000000001L219.5000000189829,88.19999999999999L222.78024579781834,89.19999999999999L226.0604915766538,90.4L229.3407373554892,93.80000000000001L232.62098313432466,92.80000000000001L235.9012289131601,93.6L239.1814746919955,93.6L242.46172047083098,93L245.74196624966643,90.80000000000001L249.02221202850183,91L252.30245780733728,90L255.58270358617276,88.6L258.86294936500815,87.80000000000001L262.1431951438436,87.4L265.42344092267905,85.4L268.70368670151447,83.6L271.98393248034995,79.6L275.26417825918537,76.19999999999999L278.5444240380208,73.19999999999999L281.8246698168562,70.6L285.1049155956917,69L288.3851613745271,70.6L291.66540715336254,69.80000000000001L294.945652932198,69.80000000000001L298.22589871103344,70.80000000000001L301.50614448986886,72.19999999999999L304.7863902687043,71.80000000000001L308.06663604753976,69.4L311.3468818263752,68L314.6271276052106,69L317.907373384046,70L321.1876191628815,69.80000000000001L324.4678649417169,68.6L327.74811072055235,68L331.0283564993878,68.80000000000001L334.30860227822325,68.4L337.58884805705867,68.80000000000001L340.86909383589415,69L344.14933961472957,68L347.429585393565,67.19999999999999L350.70983117240047,66.19999999999999L353.99007695123584,64L357.2703227300713,62.599999999999994L360.5505685089068,60.19999999999999L363.83081428774216,58.19999999999999L367.11106006657764,58.80000000000001L370.3913058454131,57.80000000000001L373.6715516242485,57.599999999999994L376.95179740308396,57L380.2320431819194,56.400000000000006L383.5122889607548,56.19999999999999L386.7925347395903,56L390.0727805184257,54.19999999999999L393.3530262972611,54.599999999999994L396.6332720760966,53.19999999999999L399.91351785493197,53.400000000000006L403.19376363376745,53.599999999999994L406.4740094126029,52.599999999999994L409.7542551914383,50.80000000000001L413.03450097027377,47.19999999999999L416.31474674910925,49.19999999999999L419.5949925279446,55.400000000000006L422.8752383067801,55.19999999999999L426.1554840856155,54.19999999999999L429.43572986445093,55.599999999999994" stroke="rgb(136,136,136)" id="moving_average" style="stroke-width: 2; stroke-dasharray: 0.5, 4; stroke-linejoin: round; stroke-linecap: round; fill: none; mix-blend-mode: normal;"/></g><g id="mn_volume-svg"><path d="M9.564270173514847,33.599999999999994L12.844515952350287,30.19999999999999L16.124761731185725,35.599999999999994L19.40500751002116,32.80000000000001L22.6852532888566,42.599999999999994L25.96549906769204,35L29.24574484652748,30.599999999999994L32.525990625362915,34.80000000000001L35.80623640419835,35L39.086482183033795,35.19999999999999L42.36672796186923,35.19999999999999L45.64697374070467,36.599999999999994L48.92721951954011,44L52.20746529837555,59.19999999999999L55.48771107721099,63.80000000000001L58.76795685604642,52.19999999999999L62.04820263488186,57.19999999999999L65.3284484137173,77L68.60869419255273,97.4L71.88893997138818,98.19999999999999L75.16918575022362,109.80000000000001L78.44943152905905,124.8L81.72967730789449,86L85.00992308672993,92.80000000000001L88.29016886556536,100.6L91.57041464440081,92L94.85066042323623,100.19999999999999L98.13090620207169,153.6L101.41115198090712,153L104.69139775974256,105L107.97164353857801,105.80000000000001L111.25188931741344,113.79999999999998L114.53213509624888,121.6L117.8123808750843,143.4L121.09262665391977,134.2L124.37287243275519,136.8L127.65311821159062,114.2L130.93336399042607,110L134.2136097692615,109.6L137.49385554809695,112.4L140.77410132693237,116.80000000000001L144.05434710576782,118.8L147.33459288460327,171L150.6148386634387,114.99999999999999L153.89508444227414,109.80000000000001L157.17533022110956,103L160.455575999945,102.80000000000001L163.73582177878046,104.6L167.01606755761588,104L170.29631333645133,113.59999999999998L173.57655911528678,99L176.8568048941222,93.19999999999999L180.13705067295763,82.6L183.4172964517931,87.4L186.69754223062853,91.6L189.97778800946395,90.19999999999999L193.2580337882994,93.6L196.53827956713485,77.4L199.81852534597027,89.6L203.0987711248057,76.80000000000001L206.37901690364117,67.4L209.6592626824766,99.4L212.93950846131202,95.6L216.21975424014747,102L219.5000000189829,87.19999999999999L222.78024579781834,96.19999999999999L226.0604915766538,85.4L229.3407373554892,90.6L232.62098313432466,92.19999999999999L235.9012289131601,101.4L239.1814746919955,102.80000000000001L242.46172047083098,81.80000000000001L245.74196624966643,80.80000000000001L249.02221202850183,87.4L252.30245780733728,84L255.58270358617276,82.6L258.86294936500815,94.80000000000001L262.1431951438436,100.80000000000001L265.42344092267905,67.6L268.70368670151447,68L271.98393248034995,59.400000000000006L275.26417825918537,60L278.5444240380208,61.80000000000001L281.8246698168562,76.6L285.1049155956917,89.4L288.3851613745271,78.4L291.66540715336254,62.400000000000006L294.945652932198,59.400000000000006L298.22589871103344,67.6L301.50614448986886,71.6L304.7863902687043,73.4L308.06663604753976,73L311.3468818263752,68.80000000000001L314.6271276052106,69.6L317.907373384046,66.19999999999999L321.1876191628815,66L324.4678649417169,63.599999999999994L327.74811072055235,69.4L331.0283564993878,78.19999999999999L334.30860227822325,66L337.58884805705867,71.6L340.86909383589415,67.80000000000001L344.14933961472957,59.599999999999994L347.429585393565,58.400000000000006L350.70983117240047,61.599999999999994L353.99007695123584,63L357.2703227300713,56.400000000000006L360.5505685089068,54.599999999999994L363.83081428774216,54L367.11106006657764,63.400000000000006L370.3913058454131,52.19999999999999L373.6715516242485,60L376.95179740308396,58L380.2320431819194,52.80000000000001L383.5122889607548,53.400000000000006L386.7925347395903,52.599999999999994L390.0727805184257,49.80000000000001L393.3530262972611,55.400000000000006L396.6332720760966,50.19999999999999L399.91351785493197,59.400000000000006L403.19376363376745,55L406.4740094126029,45.19999999999999L409.7542551914383,41.19999999999999L413.03450097027377,23.80000000000001L416.31474674910925,69.4L419.5949925279446,94.4L422.8752383067801,57.19999999999999L426.1554840856155,47.80000000000001L429.43572986445093,55.19999999999999" stroke="rgb(31,119,180)" id="mn_volume" style="stroke-width: 2; stroke-linejoin: round; stroke-linecap: round; fill: none; mix-blend-mode: normal;"/></g></g><g id="line-symbols-svg"><path d="M -1,0 a 1,1 0 1,0 2,0 a 1,1 0 1,0 -2,0 Z" id="moving_average" transform="translate(429.43572986445093, 55.599999999999994) scale(3.5)" style="fill: rgb(136, 136, 136); mix-blend-mode: normal;"/><path d="M -1,0 a 1,1 0 1,0 2,0 a 1,1 0 1,0 -2,0 Z" id="mn_volume" transform="translate(429.43572986445093, 55.19999999999999) scale(3.5)" style="fill: rgb(31, 119, 180); mix-blend-mode: normal;"/></g><g id="free-texts-svg"><g id="bg-svg"><rect width="93" height="38.40625" transform="translate(3.0236993852003735, 126.99375)" fill="rgb(255,255,255)" style="fill: rgb(255, 255, 255);"/><rect width="93" height="38.40625" transform="translate(52.77410132693237, 159.4)" fill="rgb(255,255,255)" style="fill: rgb(255, 255, 255);"/><rect width="88" height="52.8125" transform="translate(221.42344092267905, 105.4)" fill="rgb(255,255,255)" style="fill: rgb(255, 255, 255);"/><rect width="95" height="52.8125" transform="translate(372.0949925279446, 103.99375)" fill="rgb(255,255,255)" style="fill: rgb(255, 255, 255);"/></g><text transform="translate(91.0237070145949, 141.99375) translate(-83.00000762939453, -12) translate(83.00000762939453, 0)" fill="rgb(106, 106, 106)" style="text-anchor: end; font-family: BentonSans; font-weight: 400; font-size: 12px;"><tspan x="0" dy="12">Stay at Home</tspan><tspan x="0" dy="14.399999999999999">order starts →</tspan></text><text transform="translate(140.77410132693237, 174.4) translate(-83, -12) translate(83, 0)" fill="rgb(106, 106, 106)" style="text-anchor: end; font-family: BentonSans; font-weight: 400; font-size: 12px;"><tspan x="0" dy="12">Snowy →</tspan><tspan x="0" dy="14.399999999999999">Easter Sunday</tspan></text><text transform="translate(265.42344092267905, 120.4) translate(-39, -12) translate(39, 0)" fill="rgb(106, 106, 106)" style="text-anchor: middle; font-family: BentonSans; font-weight: 400; font-size: 12px;"><tspan x="0" dy="12">↑</tspan><tspan x="0" dy="14.399999999999999">Stay at Home</tspan><tspan x="0" dy="14.399999999999999">order ends</tspan></text><text transform="translate(419.5949925279446, 118.99375) translate(-42.5, -12) translate(42.5, 0)" fill="rgb(106, 106, 106)" style="text-anchor: middle; font-family: BentonSans; font-weight: 400; font-size: 12px;"><tspan x="0" dy="12">↑</tspan><tspan x="0" dy="14.399999999999999">Canceled </tspan><tspan x="0" dy="14.399999999999999">July 4th events</tspan></text></g></g></g><g id="mn_volume-svg" clip-path="url(#rect-mask-mn_volume-1)" transform="translate(0, 141)"><clipPath id="rect-mask-mn_volume-1"><rect x="0" y="0" width="16" height="20"/></clipPath><path d="M1,10 L15,10" stroke="rgb(31,119,180)" id="mn_volume" style="stroke-width: 2; stroke-linejoin: round; stroke-linecap: round; fill: none; mix-blend-mode: normal;"/></g><g id="mn_volume-svg"><text transform="translate(20, 144.609375)" fill="rgb(51,51,51)" style="font-family: BentonSans; font-weight: 400; font-size: 12px;"><tspan x="0" dy="12">Traffic volume change from 2016-2019</tspan></text></g><g id="moving_average-svg" clip-path="url(#rect-mask-moving_average-2)" transform="translate(241, 141)"><clipPath id="rect-mask-moving_average-2"><rect x="0" y="0" width="16" height="20"/></clipPath><path d="M1,10 L15,10" stroke="rgb(136,136,136)" id="moving_average" style="stroke-width: 2; stroke-dasharray: 0.5, 4; stroke-linejoin: round; stroke-linecap: round; fill: none; mix-blend-mode: normal;"/></g><g id="moving_average-svg"><text transform="translate(261, 144.609375)" fill="rgb(51,51,51)" style="font-family: BentonSans; font-weight: 400; font-size: 12px;"><tspan x="0" dy="12">Moving 7-day average</tspan></text></g><g id="moving_average-svg"><text transform="translate(485, 242.390625)" fill="rgb(51,51,51)" style="font-family: BentonSans; font-weight: 400; font-size: 12px;"><tspan x="0" dy="12">−8%</tspan></text></g><g id="mn_volume-svg"><text transform="translate(485, 208.390625)" fill="rgb(51,51,51)" style="font-family: BentonSans; font-weight: 400; font-size: 12px;"><tspan x="0" dy="12">−8%</tspan></text></g></g><g id="after-body-svg"/><g id="above-footer-svg"/><g id="footer-svg"><g id="footer-inner-svg"><g id="footer-main-svg"><g id="text-svg"><text transform="translate(0, 456)" fill="rgb(136,136,136)" style="font-family: BentonSans; font-weight: 400; font-size: 11px;"><tspan x="0" dy="11">Chart:</tspan></text><text transform="translate(34, 456)" fill="rgb(136,136,136)" style="font-family: BentonSans; font-weight: 400; font-size: 11px;"><tspan x="0" dy="11">Jeff Hargarten, Star Tribune</tspan></text></g><g id="text-svg"><text transform="translate(174, 456)" fill="rgb(136,136,136)" style="font-family: BentonSans; font-weight: 400; font-size: 11px;"><tspan x="0" dy="11">​ •</tspan></text></g><g id="text-svg"><text transform="translate(185, 456)" fill="rgb(136,136,136)" style="font-family: BentonSans; font-weight: 400; font-size: 11px;"><tspan x="0" dy="11">Source:</tspan></text><text transform="translate(226, 456)" fill="rgb(136,136,136)" style="font-family: BentonSans; font-weight: 400; font-size: 11px;"><tspan x="0" dy="11">Minnesota Department of Transportation</tspan></text></g></g></g></g><g id="below-footer-svg"/></g></svg>