<svg xmlns:xlink="http://www.w3.org/1999/xlink" xmlns="http://www.w3.org/2000/svg" id="exportSvg" width="522" height="474"><defs/><g><g id="header-svg"><g id="text-svg"><text transform="translate(0, -2)" fill="rgb(51,51,51)" style="font-family: BentonSans; font-weight: 700; font-size: 19px;"><tspan x="0" dy="19">Minnesota's traffic is nearly normal again</tspan></text></g><g id="text-svg"><text transform="translate(0, 31)" fill="rgb(51,51,51)" style="font-family: BentonSans; font-weight: 400; font-size: 15px;"><tspan x="0" dy="15">Daily percent changes in traffic on roadways across the state drastically </tspan></text><text transform="translate(0, 51)" fill="rgb(51,51,51)" style="font-family: BentonSans; font-weight: 400; font-size: 15px;"><tspan x="0" dy="15">declined as responses to the coronavirus pandemic intensified, but have </tspan></text><text transform="translate(0, 71)" fill="rgb(51,51,51)" style="font-family: BentonSans; font-weight: 400; font-size: 15px;"><tspan x="0" dy="15">since crept back toward usual levels.</tspan></text><text transform="translate(0, 110)" fill="rgb(51,51,51)" style="font-family: BentonSans; font-weight: 400; font-size: 12px;"><tspan x="0" dy="12">Weekends</tspan></text></g></g><g id="chart-svg"><g id="group-svg" clip-path="url(#rect-mask-group-0)" transform="translate(0, 141)"><clipPath id="rect-mask-group-0"><rect x="0" y="0" width="522" height="292"/></clipPath><g id="group-svg" transform="translate(46, 34)"><g id="x-svg ticks-svg" transform="translate(0, 245)"><g transform="translate(9.564270162000508, 0)"><text transform="translate(-11.5, -12) translate(11.5, 11)" fill="rgb(133, 133, 133)" style="text-anchor: middle; font-family: BentonSans; font-weight: 400; font-size: 12px;"><tspan x="0" dy="12">Mar</tspan></text></g><g transform="translate(112.86597850447345, 0)"><text transform="translate(-10, -12) translate(10, 11)" fill="rgb(133, 133, 133)" style="text-anchor: middle; font-family: BentonSans; font-weight: 400; font-size: 12px;"><tspan x="0" dy="12">Apr</tspan></text></g><g transform="translate(212.83537367460855, 0)"><text transform="translate(-12.500007629394531, -12) translate(12.500007629394531, 11)" fill="rgb(133, 133, 133)" style="text-anchor: middle; font-family: BentonSans; font-weight: 400; font-size: 12px;"><tspan x="0" dy="12">May</tspan></text></g><g transform="translate(316.1370820170815, 0)"><text transform="translate(-10, -12) translate(10, 11)" fill="rgb(133, 133, 133)" style="text-anchor: middle; font-family: BentonSans; font-weight: 400; font-size: 12px;"><tspan x="0" dy="12">Jun</tspan></text></g><g transform="translate(416.10647718721657, 0)"><text transform="translate(-8, -12) translate(8, 11)" fill="rgb(133, 133, 133)" style="text-anchor: middle; font-family: BentonSans; font-weight: 400; font-size: 12px;"><tspan x="0" dy="12">Jul</tspan></text></g></g><g id="x-svg axis-svg" transform="translate(0, 40)"><line x1="0" x2="439" y1="0" y2="0" style="stroke: rgb(51, 51, 51); stroke-width: 1;"/></g><g id="free-range-svg"><rect width="6.24809" height="240" transform="translate(28.308531756400843, 0)" fill="rgb(87,87,87)" style="opacity: 0.05; fill: rgb(87, 87, 87);"/><rect width="6.24809" height="240" transform="translate(51.6347239627657, 0)" fill="rgb(87,87,87)" style="opacity: 0.05; fill: rgb(87, 87, 87);"/><rect width="6.24809" height="240" transform="translate(74.96091616913056, 0)" fill="rgb(87,87,87)" style="opacity: 0.05; fill: rgb(87, 87, 87);"/><rect width="6.24809" height="240" transform="translate(98.28710837549541, 0)" fill="rgb(87,87,87)" style="opacity: 0.05; fill: rgb(87, 87, 87);"/><rect width="6.24809" height="240" transform="translate(121.61330058186026, 0)" fill="rgb(87,87,87)" style="opacity: 0.05; fill: rgb(87, 87, 87);"/><rect width="6.24809" height="240" transform="translate(144.93949278822512, 0)" fill="rgb(87,87,87)" style="opacity: 0.05; fill: rgb(87, 87, 87);"/><rect width="6.24809" height="240" transform="translate(168.26568499458998, 0)" fill="rgb(87,87,87)" style="opacity: 0.05; fill: rgb(87, 87, 87);"/><rect width="6.24809" height="240" transform="translate(191.59187720095483, 0)" fill="rgb(87,87,87)" style="opacity: 0.05; fill: rgb(87, 87, 87);"/><rect width="6.24809" height="240" transform="translate(214.91806940731968, 0)" fill="rgb(87,87,87)" style="opacity: 0.05; fill: rgb(87, 87, 87);"/><rect width="6.24809" height="240" transform="translate(238.24426161368453, 0)" fill="rgb(87,87,87)" style="opacity: 0.05; fill: rgb(87, 87, 87);"/><rect width="6.24809" height="240" transform="translate(261.5704538200494, 0)" fill="rgb(87,87,87)" style="opacity: 0.05; fill: rgb(87, 87, 87);"/><rect width="6.24809" height="240" transform="translate(284.89664602641426, 0)" fill="rgb(87,87,87)" style="opacity: 0.05; fill: rgb(87, 87, 87);"/><rect width="6.24809" height="240" transform="translate(308.2228382327791, 0)" fill="rgb(87,87,87)" style="opacity: 0.05; fill: rgb(87, 87, 87);"/><rect width="6.24809" height="240" transform="translate(331.54903043914396, 0)" fill="rgb(87,87,87)" style="opacity: 0.05; fill: rgb(87, 87, 87);"/><rect width="6.24809" height="240" transform="translate(354.8752226455088, 0)" fill="rgb(87,87,87)" style="opacity: 0.05; fill: rgb(87, 87, 87);"/><rect width="6.24809" height="240" transform="translate(378.20141485187366, 0)" fill="rgb(87,87,87)" style="opacity: 0.05; fill: rgb(87, 87, 87);"/><rect width="6.66463" height="240" transform="translate(401.11106791169635, 0)" fill="rgb(51,51,51)" style="opacity: 0.05; fill: rgb(51, 51, 51);"/><rect width="6.66463" height="240" transform="translate(424.43726011806115, 0)" fill="rgb(51,51,51)" style="opacity: 0.05; fill: rgb(51, 51, 51);"/></g><g id="y-grid-svg"><g transform="translate(0, 240)"><line x1="0" x2="439" y1="0" y2="0" style="stroke: rgb(238, 238, 238); stroke-width: 1;"/><text transform="translate(-4, 4) translate(-41, -12) translate(41, 0)" fill="rgb(133, 133, 133)" style="text-anchor: end; font-family: BentonSans; font-weight: 400; font-size: 12px;"><tspan x="0" dy="12">−100%</tspan></text></g><g transform="translate(0, 200)"><line x1="0" x2="439" y1="0" y2="0" style="stroke: rgb(238, 238, 238); stroke-width: 1;"/><text transform="translate(-4, 4) translate(-35, -12) translate(35, 0)" fill="rgb(133, 133, 133)" style="text-anchor: end; font-family: BentonSans; font-weight: 400; font-size: 12px;"><tspan x="0" dy="12">−80%</tspan></text></g><g transform="translate(0, 160)"><line x1="0" x2="439" y1="0" y2="0" style="stroke: rgb(238, 238, 238); stroke-width: 1;"/><text transform="translate(-4, 4) translate(-35, -12) translate(35, 0)" fill="rgb(133, 133, 133)" style="text-anchor: end; font-family: BentonSans; font-weight: 400; font-size: 12px;"><tspan x="0" dy="12">−60%</tspan></text></g><g transform="translate(0, 120)"><line x1="0" x2="439" y1="0" y2="0" style="stroke: rgb(238, 238, 238); stroke-width: 1;"/><text transform="translate(-4, 4) translate(-35, -12) translate(35, 0)" fill="rgb(133, 133, 133)" style="text-anchor: end; font-family: BentonSans; font-weight: 400; font-size: 12px;"><tspan x="0" dy="12">−40%</tspan></text></g><g transform="translate(0, 80)"><line x1="0" x2="439" y1="0" y2="0" style="stroke: rgb(238, 238, 238); stroke-width: 1;"/><text transform="translate(-4, 4) translate(-35, -12) translate(35, 0)" fill="rgb(133, 133, 133)" style="text-anchor: end; font-family: BentonSans; font-weight: 400; font-size: 12px;"><tspan x="0" dy="12">−20%</tspan></text></g><g id="tick-svg tick-major-svg" transform="translate(0, 40)"><text transform="translate(-4, 4) translate(-28, -12) translate(28, 0)" fill="rgb(133, 133, 133)" style="text-anchor: end; font-family: BentonSans; font-weight: 400; font-size: 12px;"><tspan x="0" dy="12">+0%</tspan></text></g><g><line x1="0" x2="439" y1="0" y2="0" style="stroke: rgb(238, 238, 238); stroke-width: 1;"/><text transform="translate(-4, 4) translate(-35, -12) translate(35, 0)" fill="rgb(133, 133, 133)" style="text-anchor: end; font-family: BentonSans; font-weight: 400; font-size: 12px;"><tspan x="0" dy="12">+20%</tspan></text></g></g><g id="lines-svg"><g id="moving_average-svg"><path d="M29.55814919602753,34.400000000000006L32.89046236836536,34.599999999999994L36.2227755407032,35.19999999999999L39.555088713041044,35.19999999999999L42.88740188537888,35.400000000000006L46.21971505771671,34.599999999999994L49.552028230054546,36L52.88434140239239,40L56.21665457473022,44.19999999999999L59.548967747068055,46.599999999999994L62.881280919405896,49.80000000000001L66.21359409174373,55.80000000000001L69.54590726408156,64.4L72.87822043641941,72.19999999999999L76.21053360875725,79.4L79.54284678109508,88L82.87515995343293,93L86.20747312577076,98L89.53978629810858,101.4L92.87209947044641,100.6L96.20441264278426,100.80000000000001L99.5367258151221,107.19999999999999L102.86903898745993,111.19999999999999L106.20135215979778,113.79999999999998L109.53366533213561,115.80000000000001L112.86597850447345,117.6L116.19829167681128,121.8L119.53060484914913,128L122.86291802148696,125.2L126.1952311938248,123L129.52754436616263,124.2L132.85985753850048,124.8L136.19217071083833,124.2L139.52448388317615,123L142.85679705551397,119.2L146.1891102278518,117.00000000000001L149.52142340018963,121.8L152.85373657252748,122L156.18604974486533,122L159.51836291720315,121L162.850676089541,119.6L166.18298926187882,117.8L169.51530243421666,115.80000000000001L172.8476156065545,107.6L176.17992877889233,105.19999999999999L179.51224195123018,102.80000000000001L182.84455512356803,100L186.17686829590585,97.80000000000001L189.5091814682437,96L192.84149464058154,94L196.17380781291936,91L199.5061209852572,88L202.83843415759503,87.4L206.17074732993288,86.6L209.50306050227073,83.80000000000001L212.83537367460855,85L216.16768684694637,85.6L219.50000001928424,86.80000000000001L222.83231319162203,88.19999999999999L226.1646263639599,89.19999999999999L229.49693953629773,90.4L232.82925270863558,93.80000000000001L236.1615658809734,92.80000000000001L239.49387905331125,93.6L242.82619222564907,93.6L246.15850539798694,93L249.49081857032476,90.80000000000001L252.82313174266255,91L256.15544491500043,90L259.48775808733825,88.6L262.8200712596761,87.80000000000001L266.1523844320139,87.4L269.48469760435177,85.4L272.8170107766896,83.6L276.14932394902746,79.6L279.4816371213653,76.19999999999999L282.8139502937031,73.19999999999999L286.1462634660409,70.6L289.4785766383788,69L292.8108898107166,70.6L296.1432029830545,69.80000000000001L299.4755161553923,69.80000000000001L302.80782932773013,70.80000000000001L306.14014250006795,72.19999999999999L309.47245567240583,71.80000000000001L312.80476884474365,69.4L316.1370820170815,68L319.46939518941934,69L322.8017083617571,70L326.134021534095,69.80000000000001L329.4663347064328,68.6L332.7986478787707,68L336.1309610511085,68.80000000000001L339.4632742234463,68.4L342.79558739578414,68.80000000000001L346.127900568122,69L349.46021374045984,68L352.7925269127977,67.19999999999999L356.12484008513553,66.19999999999999L359.45715325747335,64L362.78946642981117,62.599999999999994L366.12177960214905,60.19999999999999L369.45409277448687,58.19999999999999L372.78640594682474,58.80000000000001L376.11871911916256,57.80000000000001L379.4510322915004,57.599999999999994L382.7833454638382,57L386.1156586361761,56.400000000000006L389.4479718085139,56.19999999999999L392.7802849808518,56L396.11259815318954,54.19999999999999L399.44491132552736,54.599999999999994L402.77722449786523,53.19999999999999L406.10953767020305,53.400000000000006L409.44185084254093,53.599999999999994L412.77416401487875,52.599999999999994L416.10647718721657,50.80000000000001L419.4387903595544,47.19999999999999L422.77110353189227,49.19999999999999L426.1034167042301,55.599999999999994L429.43572987656796,55.19999999999999" stroke="rgb(136,136,136)" id="moving_average" style="stroke-width: 2; stroke-dasharray: 0.5, 4; stroke-linejoin: round; stroke-linecap: round; fill: none; mix-blend-mode: normal;"/></g><g id="mn_volume-svg"><path d="M9.564270162000508,33.599999999999994L12.896583334338347,30.19999999999999L16.228896506676183,35.599999999999994L19.56120967901402,32.80000000000001L22.893522851351854,42.599999999999994L26.22583602368969,35L29.55814919602753,30.599999999999994L32.89046236836536,34.80000000000001L36.2227755407032,35L39.555088713041044,35.19999999999999L42.88740188537888,35.19999999999999L46.21971505771671,36.599999999999994L49.552028230054546,44L52.88434140239239,59.19999999999999L56.21665457473022,63.80000000000001L59.548967747068055,52.19999999999999L62.881280919405896,57.19999999999999L66.21359409174373,77L69.54590726408156,97.4L72.87822043641941,98.19999999999999L76.21053360875725,109.80000000000001L79.54284678109508,124.8L82.87515995343293,86L86.20747312577076,92.80000000000001L89.53978629810858,100.6L92.87209947044641,92L96.20441264278426,100.19999999999999L99.5367258151221,153.6L102.86903898745993,153L106.20135215979778,105L109.53366533213561,105.80000000000001L112.86597850447345,113.79999999999998L116.19829167681128,121.6L119.53060484914913,143.4L122.86291802148696,134.2L126.1952311938248,136.8L129.52754436616263,114.2L132.85985753850048,110L136.19217071083833,109.6L139.52448388317615,112.4L142.85679705551397,116.80000000000001L146.1891102278518,118.8L149.52142340018963,171L152.85373657252748,114.99999999999999L156.18604974486533,109.80000000000001L159.51836291720315,103L162.850676089541,102.80000000000001L166.18298926187882,104.6L169.51530243421666,104L172.8476156065545,113.59999999999998L176.17992877889233,99L179.51224195123018,93.19999999999999L182.84455512356803,82.6L186.17686829590585,87.4L189.5091814682437,91.6L192.84149464058154,90.19999999999999L196.17380781291936,93.6L199.5061209852572,77.4L202.83843415759503,89.6L206.17074732993288,76.80000000000001L209.50306050227073,67.4L212.83537367460855,99.4L216.16768684694637,95.6L219.50000001928424,102L222.83231319162203,87.19999999999999L226.1646263639599,96.19999999999999L229.49693953629773,85.4L232.82925270863558,90.6L236.1615658809734,92.19999999999999L239.49387905331125,101.4L242.82619222564907,102.80000000000001L246.15850539798694,81.80000000000001L249.49081857032476,80.80000000000001L252.82313174266255,87.4L256.15544491500043,84L259.48775808733825,82.6L262.8200712596761,94.80000000000001L266.1523844320139,100.80000000000001L269.48469760435177,67.6L272.8170107766896,68L276.14932394902746,59.400000000000006L279.4816371213653,60L282.8139502937031,61.80000000000001L286.1462634660409,76.6L289.4785766383788,89.4L292.8108898107166,78.4L296.1432029830545,62.400000000000006L299.4755161553923,59.400000000000006L302.80782932773013,67.6L306.14014250006795,71.6L309.47245567240583,73.4L312.80476884474365,73L316.1370820170815,68.80000000000001L319.46939518941934,69.6L322.8017083617571,66.19999999999999L326.134021534095,66L329.4663347064328,63.599999999999994L332.7986478787707,69.4L336.1309610511085,78.19999999999999L339.4632742234463,66L342.79558739578414,71.6L346.127900568122,67.80000000000001L349.46021374045984,59.599999999999994L352.7925269127977,58.400000000000006L356.12484008513553,61.599999999999994L359.45715325747335,63L362.78946642981117,56.400000000000006L366.12177960214905,54.599999999999994L369.45409277448687,54L372.78640594682474,63.400000000000006L376.11871911916256,52.19999999999999L379.4510322915004,60L382.7833454638382,58L386.1156586361761,52.80000000000001L389.4479718085139,53.400000000000006L392.7802849808518,52.599999999999994L396.11259815318954,49.80000000000001L399.44491132552736,55.400000000000006L402.77722449786523,50.19999999999999L406.10953767020305,59.400000000000006L409.44185084254093,55L412.77416401487875,45.19999999999999L416.10647718721657,41.19999999999999L419.4387903595544,23.80000000000001L422.77110353189227,69.4L426.1034167042301,94.6L429.43572987656796,57.19999999999999" stroke="rgb(31,119,180)" id="mn_volume" style="stroke-width: 2; stroke-linejoin: round; stroke-linecap: round; fill: none; mix-blend-mode: normal;"/></g></g><g id="line-symbols-svg"><path d="M -1,0 a 1,1 0 1,0 2,0 a 1,1 0 1,0 -2,0 Z" id="moving_average" transform="translate(429.43572987656796, 55.19999999999999) scale(3.5)" style="fill: rgb(136, 136, 136); mix-blend-mode: normal;"/><path d="M -1,0 a 1,1 0 1,0 2,0 a 1,1 0 1,0 -2,0 Z" id="mn_volume" transform="translate(429.43572987656796, 57.19999999999999) scale(3.5)" style="fill: rgb(31, 119, 180); mix-blend-mode: normal;"/></g><g id="free-texts-svg"><g id="bg-svg"><rect width="93" height="38.40625" transform="translate(4.316713941723464, 126.99375)" fill="rgb(255,255,255)" style="fill: rgb(255, 255, 255);"/><rect width="93" height="38.40625" transform="translate(54.856797055513965, 159.4)" fill="rgb(255,255,255)" style="fill: rgb(255, 255, 255);"/><rect width="88" height="52.8125" transform="translate(225.48469760435177, 105.4)" fill="rgb(255,255,255)" style="fill: rgb(255, 255, 255);"/><rect width="95" height="52.8125" transform="translate(378.60343196301915, 103.99375)" fill="rgb(255,255,255)" style="fill: rgb(255, 255, 255);"/></g><text transform="translate(92.31671394172346, 141.99375) translate(-83, -12) translate(83, 0)" fill="rgb(106, 106, 106)" style="text-anchor: end; font-family: BentonSans; font-weight: 400; font-size: 12px;"><tspan x="0" dy="12">Stay at Home</tspan><tspan x="0" dy="14.399999999999999">order starts →</tspan></text><text transform="translate(142.85679705551397, 174.4) translate(-83, -12) translate(83, 0)" fill="rgb(106, 106, 106)" style="text-anchor: end; font-family: BentonSans; font-weight: 400; font-size: 12px;"><tspan x="0" dy="12">Snowy →</tspan><tspan x="0" dy="14.399999999999999">Easter Sunday</tspan></text><text transform="translate(269.48469760435177, 120.4) translate(-39, -12) translate(39, 0)" fill="rgb(106, 106, 106)" style="text-anchor: middle; font-family: BentonSans; font-weight: 400; font-size: 12px;"><tspan x="0" dy="12">↑</tspan><tspan x="0" dy="14.399999999999999">Stay at Home</tspan><tspan x="0" dy="14.399999999999999">order ends</tspan></text><text transform="translate(426.1034167042301, 118.99375) translate(-42.49998474121094, -12) translate(42.49998474121094, 0)" fill="rgb(106, 106, 106)" style="text-anchor: middle; font-family: BentonSans; font-weight: 400; font-size: 12px;"><tspan x="0" dy="12">↑</tspan><tspan x="0" dy="14.399999999999999">Canceled </tspan><tspan x="0" dy="14.399999999999999">July 4th events</tspan></text></g></g></g><g id="mn_volume-svg" clip-path="url(#rect-mask-mn_volume-1)" transform="translate(0, 141)"><clipPath id="rect-mask-mn_volume-1"><rect x="0" y="0" width="16" height="20"/></clipPath><path d="M1,10 L15,10" stroke="rgb(31,119,180)" id="mn_volume" style="stroke-width: 2; stroke-linejoin: round; stroke-linecap: round; fill: none; mix-blend-mode: normal;"/></g><g id="mn_volume-svg"><text transform="translate(20, 144.609375)" fill="rgb(51,51,51)" style="font-family: BentonSans; font-weight: 400; font-size: 12px;"><tspan x="0" dy="12">Traffic volume change from 2019</tspan></text></g><g id="moving_average-svg" clip-path="url(#rect-mask-moving_average-2)" transform="translate(210, 141)"><clipPath id="rect-mask-moving_average-2"><rect x="0" y="0" width="16" height="20"/></clipPath><path d="M1,10 L15,10" stroke="rgb(136,136,136)" id="moving_average" style="stroke-width: 2; stroke-dasharray: 0.5, 4; stroke-linejoin: round; stroke-linecap: round; fill: none; mix-blend-mode: normal;"/></g><g id="moving_average-svg"><text transform="translate(230, 144.609375)" fill="rgb(51,51,51)" style="font-family: BentonSans; font-weight: 400; font-size: 12px;"><tspan x="0" dy="12">Moving 7-day average</tspan></text></g><g id="moving_average-svg"><text transform="translate(485, 209.1875)" fill="rgb(51,51,51)" style="font-family: BentonSans; font-weight: 400; font-size: 12px;"><tspan x="0" dy="12">−8%</tspan></text></g><g id="mn_volume-svg"><text transform="translate(485, 243.1875)" fill="rgb(51,51,51)" style="font-family: BentonSans; font-weight: 400; font-size: 12px;"><tspan x="0" dy="12">−9%</tspan></text></g></g><g id="after-body-svg"/><g id="above-footer-svg"/><g id="footer-svg"><g id="footer-inner-svg"><g id="footer-main-svg"><g id="text-svg"><text transform="translate(0, 456)" fill="rgb(136,136,136)" style="font-family: BentonSans; font-weight: 400; font-size: 11px;"><tspan x="0" dy="11">Chart:</tspan></text><text transform="translate(34, 456)" fill="rgb(136,136,136)" style="font-family: BentonSans; font-weight: 400; font-size: 11px;"><tspan x="0" dy="11">Jeff Hargarten, Star Tribune</tspan></text></g><g id="text-svg"><text transform="translate(174, 456)" fill="rgb(136,136,136)" style="font-family: BentonSans; font-weight: 400; font-size: 11px;"><tspan x="0" dy="11">​ •</tspan></text></g><g id="text-svg"><text transform="translate(185, 456)" fill="rgb(136,136,136)" style="font-family: BentonSans; font-weight: 400; font-size: 11px;"><tspan x="0" dy="11">Source:</tspan></text><text transform="translate(226, 456)" fill="rgb(136,136,136)" style="font-family: BentonSans; font-weight: 400; font-size: 11px;"><tspan x="0" dy="11">Minnesota Department of Transportation</tspan></text></g></g></g></g><g id="below-footer-svg"/></g></svg>