<svg xmlns:xlink="http://www.w3.org/1999/xlink" xmlns="http://www.w3.org/2000/svg" id="exportSvg" width="522" height="474"><defs/><g><g id="header-svg"><g id="text-svg"><text transform="translate(0, -2)" fill="rgb(51,51,51)" style="font-family: BentonSans; font-weight: 700; font-size: 19px;"><tspan x="0" dy="19">Minnesota's traffic is nearly normal again</tspan></text></g><g id="text-svg"><text transform="translate(0, 31)" fill="rgb(51,51,51)" style="font-family: BentonSans; font-weight: 400; font-size: 15px;"><tspan x="0" dy="15">Daily percent changes in traffic on roadways across the state drastically </tspan></text><text transform="translate(0, 51)" fill="rgb(51,51,51)" style="font-family: BentonSans; font-weight: 400; font-size: 15px;"><tspan x="0" dy="15">declined as responses to the coronavirus pandemic intensified, but have </tspan></text><text transform="translate(0, 71)" fill="rgb(51,51,51)" style="font-family: BentonSans; font-weight: 400; font-size: 15px;"><tspan x="0" dy="15">since crept back toward usual levels.</tspan></text><text transform="translate(0, 110)" fill="rgb(51,51,51)" style="font-family: BentonSans; font-weight: 400; font-size: 12px;"><tspan x="0" dy="12">Weekends</tspan></text></g></g><g id="chart-svg"><g id="group-svg" clip-path="url(#rect-mask-group-0)" transform="translate(0, 141)"><clipPath id="rect-mask-group-0"><rect x="0" y="0" width="522" height="292"/></clipPath><g id="group-svg" transform="translate(46, 34)"><g id="x-svg ticks-svg" transform="translate(0, 245)"><g transform="translate(9.564270165971896, 0)"><text transform="translate(-11.5, -12) translate(11.5, 11)" fill="rgb(133, 133, 133)" style="text-anchor: middle; font-family: BentonSans; font-weight: 400; font-size: 12px;"><tspan x="0" dy="12">Mar</tspan></text></g><g transform="translate(123.73984254343873, 0)"><text transform="translate(-10, -12) translate(10, 11)" fill="rgb(133, 133, 133)" style="text-anchor: middle; font-family: BentonSans; font-weight: 400; font-size: 12px;"><tspan x="0" dy="12">Apr</tspan></text></g><g transform="translate(234.23233194098728, 0)"><text transform="translate(-12.5, -12) translate(12.5, 11)" fill="rgb(133, 133, 133)" style="text-anchor: middle; font-family: BentonSans; font-weight: 400; font-size: 12px;"><tspan x="0" dy="12">May</tspan></text></g><g transform="translate(348.4079043184541, 0)"><text transform="translate(-10, -12) translate(10, 11)" fill="rgb(133, 133, 133)" style="text-anchor: middle; font-family: BentonSans; font-weight: 400; font-size: 12px;"><tspan x="0" dy="12">Jun</tspan></text></g></g><g id="x-svg axis-svg" transform="translate(0, 40)"><line x1="0" x2="439" y1="0" y2="0" style="stroke: rgb(51, 51, 51); stroke-width: 1;"/></g><g id="free-range-svg"><rect width="6.90578" height="240" transform="translate(30.281611928012246, 0)" fill="rgb(87,87,87)" style="opacity: 0.05; fill: rgb(87, 87, 87);"/><rect width="6.90578" height="240" transform="translate(56.06319278744024, 0)" fill="rgb(87,87,87)" style="opacity: 0.05; fill: rgb(87, 87, 87);"/><rect width="6.90578" height="240" transform="translate(81.84477364686823, 0)" fill="rgb(87,87,87)" style="opacity: 0.05; fill: rgb(87, 87, 87);"/><rect width="6.90578" height="240" transform="translate(107.62635450629624, 0)" fill="rgb(87,87,87)" style="opacity: 0.05; fill: rgb(87, 87, 87);"/><rect width="6.90578" height="240" transform="translate(133.40793536572423, 0)" fill="rgb(87,87,87)" style="opacity: 0.05; fill: rgb(87, 87, 87);"/><rect width="6.90578" height="240" transform="translate(159.18951622515223, 0)" fill="rgb(87,87,87)" style="opacity: 0.05; fill: rgb(87, 87, 87);"/><rect width="6.90578" height="240" transform="translate(184.9710970845802, 0)" fill="rgb(87,87,87)" style="opacity: 0.05; fill: rgb(87, 87, 87);"/><rect width="6.90578" height="240" transform="translate(210.7526779440082, 0)" fill="rgb(87,87,87)" style="opacity: 0.05; fill: rgb(87, 87, 87);"/><rect width="6.90578" height="240" transform="translate(236.53425880343622, 0)" fill="rgb(87,87,87)" style="opacity: 0.05; fill: rgb(87, 87, 87);"/><rect width="6.90578" height="240" transform="translate(262.31583966286416, 0)" fill="rgb(87,87,87)" style="opacity: 0.05; fill: rgb(87, 87, 87);"/><rect width="7.36617" height="240" transform="translate(288.09742052229217, 0)" fill="rgb(51,51,51)" style="opacity: 0.05; fill: rgb(51, 51, 51);"/><rect width="7.36617" height="240" transform="translate(313.8790013817202, 0)" fill="rgb(51,51,51)" style="opacity: 0.05; fill: rgb(51, 51, 51);"/><rect width="7.36617" height="240" transform="translate(339.6605822411482, 0)" fill="rgb(51,51,51)" style="opacity: 0.05; fill: rgb(51, 51, 51);"/><rect width="7.36617" height="240" transform="translate(365.4421631005762, 0)" fill="rgb(51,51,51)" style="opacity: 0.05; fill: rgb(51, 51, 51);"/><rect width="7.36617" height="240" transform="translate(391.2237439600042, 0)" fill="rgb(51,51,51)" style="opacity: 0.05; fill: rgb(51, 51, 51);"/><rect width="7.36617" height="240" transform="translate(417.0053248194322, 0)" fill="rgb(51,51,51)" style="opacity: 0.05; fill: rgb(51, 51, 51);"/></g><g id="y-grid-svg"><g transform="translate(0, 240)"><line x1="0" x2="439" y1="0" y2="0" style="stroke: rgb(238, 238, 238); stroke-width: 1;"/><text transform="translate(-4, 4) translate(-41, -12) translate(41, 0)" fill="rgb(133, 133, 133)" style="text-anchor: end; font-family: BentonSans; font-weight: 400; font-size: 12px;"><tspan x="0" dy="12">−100%</tspan></text></g><g transform="translate(0, 200)"><line x1="0" x2="439" y1="0" y2="0" style="stroke: rgb(238, 238, 238); stroke-width: 1;"/><text transform="translate(-4, 4) translate(-35, -12) translate(35, 0)" fill="rgb(133, 133, 133)" style="text-anchor: end; font-family: BentonSans; font-weight: 400; font-size: 12px;"><tspan x="0" dy="12">−80%</tspan></text></g><g transform="translate(0, 160)"><line x1="0" x2="439" y1="0" y2="0" style="stroke: rgb(238, 238, 238); stroke-width: 1;"/><text transform="translate(-4, 4) translate(-35, -12) translate(35, 0)" fill="rgb(133, 133, 133)" style="text-anchor: end; font-family: BentonSans; font-weight: 400; font-size: 12px;"><tspan x="0" dy="12">−60%</tspan></text></g><g transform="translate(0, 120)"><line x1="0" x2="439" y1="0" y2="0" style="stroke: rgb(238, 238, 238); stroke-width: 1;"/><text transform="translate(-4, 4) translate(-35, -12) translate(35, 0)" fill="rgb(133, 133, 133)" style="text-anchor: end; font-family: BentonSans; font-weight: 400; font-size: 12px;"><tspan x="0" dy="12">−40%</tspan></text></g><g transform="translate(0, 80)"><line x1="0" x2="439" y1="0" y2="0" style="stroke: rgb(238, 238, 238); stroke-width: 1;"/><text transform="translate(-4, 4) translate(-35, -12) translate(35, 0)" fill="rgb(133, 133, 133)" style="text-anchor: end; font-family: BentonSans; font-weight: 400; font-size: 12px;"><tspan x="0" dy="12">−20%</tspan></text></g><g id="tick-svg tick-major-svg" transform="translate(0, 40)"><text transform="translate(-4, 4) translate(-28, -12) translate(28, 0)" fill="rgb(133, 133, 133)" style="text-anchor: end; font-family: BentonSans; font-weight: 400; font-size: 12px;"><tspan x="0" dy="12">+0%</tspan></text></g><g><line x1="0" x2="439" y1="0" y2="0" style="stroke: rgb(238, 238, 238); stroke-width: 1;"/><text transform="translate(-4, 4) translate(-35, -12) translate(35, 0)" fill="rgb(133, 133, 133)" style="text-anchor: end; font-family: BentonSans; font-weight: 400; font-size: 12px;"><tspan x="0" dy="12">+20%</tspan></text></g></g><g id="lines-svg"><g id="moving_average-svg"><path d="M31.662768045481606,34.400000000000006L35.34585102539989,34.599999999999994L39.02893400531817,35.19999999999999L42.71201698523646,35.19999999999999L46.39509996515475,35.400000000000006L50.07818294507303,34.599999999999994L53.761265924991314,36L57.444348904909596,40L61.12743188482788,44.19999999999999L64.81051486474617,46.599999999999994L68.49359784466446,49.80000000000001L72.17668082458275,55.80000000000001L75.85976380450103,64.4L79.54284678441931,72.19999999999999L83.2259297643376,79.4L86.90901274425588,88L90.59209572417416,93L94.27517870409244,98L97.95826168401074,101.4L101.64134466392902,100.6L105.3244276438473,100.80000000000001L109.0075106237656,107.19999999999999L112.69059360368388,111.19999999999999L116.37367658360216,113.79999999999998L120.05675956352044,115.80000000000001L123.73984254343873,117.6L127.42292552335701,121.8L131.1060085032753,128L134.78909148319357,125.2L138.47217446311186,123L142.15525744303014,124.2L145.83834042294842,124.8L149.5214234028667,124.2L153.204506382785,123L156.8875893627033,119.2L160.57067234262158,117.00000000000001L164.2537553225399,121.8L167.93683830245817,122L171.61992128237645,122L175.30300426229473,121L178.98608724221302,119.6L182.6691702221313,117.8L186.35225320204958,115.80000000000001L190.03533618196786,107.6L193.71841916188615,105.19999999999999L197.40150214180443,102.80000000000001L201.0845851217227,100L204.767668101641,97.80000000000001L208.45075108155928,96L212.13383406147756,94L215.81691704139584,91L219.50000002131415,88L223.1830830012324,87.4L226.86616598115071,86.6L230.54924896106897,83.80000000000001L234.23233194098728,85L237.91541492090556,85.6L241.59849790082384,86.80000000000001L245.28158088074213,88.19999999999999L248.96466386066044,89.19999999999999L252.6477468405787,90.4L256.330829820497,93.80000000000001L260.01391280041526,92.80000000000001L263.69699578033357,93.6L267.3800787602518,93.6L271.06316174017013,93L274.7462447200884,90.80000000000001L278.4293277000067,91L282.112410679925,90L285.79549365984326,88.6L289.47857663976157,87.80000000000001L293.1616596196798,87.4L296.84474259959813,85.4L300.5278255795164,83.6L304.2109085594347,79.6L307.89399153935295,76.19999999999999L311.57707451927126,73.19999999999999L315.2601574991895,70.6L318.9432404791078,69L322.6263234590261,70.6L326.3094064389444,69.80000000000001L329.99248941886265,69.80000000000001L333.67557239878096,70.80000000000001L337.3586553786992,72.19999999999999L341.0417383586175,71.80000000000001L344.7248213385358,69.4L348.4079043184541,68L352.0909872983724,69L355.77407027829065,70L359.45715325820896,69.80000000000001L363.1402362381273,68.6L366.8233192180456,68L370.50640219796384,68.80000000000001L374.18948517788215,68.4L377.8725681578004,68.80000000000001L381.5556511377187,69L385.23873411763697,68L388.9218170975553,67.19999999999999L392.60490007747353,66.19999999999999L396.28798305739184,64L399.9710660373101,62.599999999999994L403.6541490172284,60.19999999999999L407.33723199714666,58.19999999999999L411.02031497706497,58.80000000000001L414.7033979569832,57.80000000000001L418.38648093690153,57.599999999999994L422.0695639168198,57L425.7526468967381,56.400000000000006L429.4357298766564,56.19999999999999" stroke="rgb(136,136,136)" id="moving_average" style="stroke-width: 2; stroke-dasharray: 0.5, 4; stroke-linejoin: round; stroke-linecap: round; fill: none; mix-blend-mode: normal;"/></g><g id="mn_volume-svg"><path d="M9.564270165971896,33.599999999999994L13.24735314589018,30.19999999999999L16.930436125808466,35.599999999999994L20.613519105726752,32.80000000000001L24.296602085645034,42.599999999999994L27.97968506556332,35L31.662768045481606,30.599999999999994L35.34585102539989,34.80000000000001L39.02893400531817,35L42.71201698523646,35.19999999999999L46.39509996515475,35.19999999999999L50.07818294507303,36.599999999999994L53.761265924991314,44L57.444348904909596,59.19999999999999L61.12743188482788,63.80000000000001L64.81051486474617,52.19999999999999L68.49359784466446,57.19999999999999L72.17668082458275,77L75.85976380450103,97.4L79.54284678441931,98.19999999999999L83.2259297643376,109.80000000000001L86.90901274425588,124.8L90.59209572417416,86L94.27517870409244,92.80000000000001L97.95826168401074,100.6L101.64134466392902,92L105.3244276438473,100.19999999999999L109.0075106237656,153.6L112.69059360368388,153L116.37367658360216,105L120.05675956352044,105.80000000000001L123.73984254343873,113.79999999999998L127.42292552335701,121.6L131.1060085032753,143.4L134.78909148319357,134.2L138.47217446311186,136.8L142.15525744303014,114.2L145.83834042294842,110L149.5214234028667,109.6L153.204506382785,112.4L156.8875893627033,116.80000000000001L160.57067234262158,118.8L164.2537553225399,171L167.93683830245817,114.99999999999999L171.61992128237645,109.80000000000001L175.30300426229473,103L178.98608724221302,102.80000000000001L182.6691702221313,104.6L186.35225320204958,104L190.03533618196786,113.59999999999998L193.71841916188615,99L197.40150214180443,93.19999999999999L201.0845851217227,82.6L204.767668101641,87.4L208.45075108155928,91.6L212.13383406147756,90.19999999999999L215.81691704139584,93.6L219.50000002131415,77.4L223.1830830012324,89.6L226.86616598115071,76.80000000000001L230.54924896106897,67.4L234.23233194098728,99.4L237.91541492090556,95.6L241.59849790082384,102L245.28158088074213,87.19999999999999L248.96466386066044,96.19999999999999L252.6477468405787,85.4L256.330829820497,90.6L260.01391280041526,92.19999999999999L263.69699578033357,101.4L267.3800787602518,102.80000000000001L271.06316174017013,81.80000000000001L274.7462447200884,80.80000000000001L278.4293277000067,87.4L282.112410679925,84L285.79549365984326,82.6L289.47857663976157,94.80000000000001L293.1616596196798,100.80000000000001L296.84474259959813,67.6L300.5278255795164,68L304.2109085594347,59.400000000000006L307.89399153935295,60L311.57707451927126,61.80000000000001L315.2601574991895,76.6L318.9432404791078,89.4L322.6263234590261,78.4L326.3094064389444,62.400000000000006L329.99248941886265,59.400000000000006L333.67557239878096,67.6L337.3586553786992,71.6L341.0417383586175,73.4L344.7248213385358,73L348.4079043184541,68.80000000000001L352.0909872983724,69.6L355.77407027829065,66.19999999999999L359.45715325820896,66L363.1402362381273,63.599999999999994L366.8233192180456,69.4L370.50640219796384,78.19999999999999L374.18948517788215,66L377.8725681578004,71.6L381.5556511377187,67.80000000000001L385.23873411763697,59.599999999999994L388.9218170975553,58.400000000000006L392.60490007747353,61.599999999999994L396.28798305739184,63L399.9710660373101,56.400000000000006L403.6541490172284,54.599999999999994L407.33723199714666,54L411.02031497706497,63.400000000000006L414.7033979569832,52.19999999999999L418.38648093690153,60L422.0695639168198,58L425.7526468967381,52.80000000000001L429.4357298766564,53.400000000000006" stroke="rgb(31,119,180)" id="mn_volume" style="stroke-width: 2; stroke-linejoin: round; stroke-linecap: round; fill: none; mix-blend-mode: normal;"/></g></g><g id="line-symbols-svg"><path d="M -1,0 a 1,1 0 1,0 2,0 a 1,1 0 1,0 -2,0 Z" id="moving_average" transform="translate(429.4357298766564, 56.19999999999999) scale(3.5)" style="fill: rgb(136, 136, 136); mix-blend-mode: normal;"/><path d="M -1,0 a 1,1 0 1,0 2,0 a 1,1 0 1,0 -2,0 Z" id="mn_volume" transform="translate(429.4357298766564, 53.400000000000006) scale(3.5)" style="fill: rgb(31, 119, 180); mix-blend-mode: normal;"/></g><g id="free-texts-svg"><g id="bg-svg"><rect width="93" height="38.40625" transform="translate(4.433637214133299, 122.99375)" fill="rgb(255,255,255)" style="fill: rgb(255, 255, 255);"/><rect width="93" height="38.40625" transform="translate(68.8875893627033, 165.4)" fill="rgb(255,255,255)" style="fill: rgb(255, 255, 255);"/><rect width="88" height="38.40625" transform="translate(223.38007876025182, 111.196875)" fill="rgb(255,255,255)" style="fill: rgb(255, 255, 255);"/></g><text transform="translate(92.4336372141333, 137.99375) translate(-83, -12) translate(83, 0)" fill="rgb(106, 106, 106)" style="text-anchor: end; font-family: BentonSans; font-weight: 400; font-size: 12px;"><tspan x="0" dy="12">Stay at Home</tspan><tspan x="0" dy="14.399999999999999">order starts →</tspan></text><text transform="translate(156.8875893627033, 180.4) translate(-83, -12) translate(83, 0)" fill="rgb(106, 106, 106)" style="text-anchor: end; font-family: BentonSans; font-weight: 400; font-size: 12px;"><tspan x="0" dy="12">Snowy →</tspan><tspan x="0" dy="14.399999999999999">Easter Sunday</tspan></text><text transform="translate(267.3800787602518, 126.196875) translate(-39, -12) translate(39, 0)" fill="rgb(106, 106, 106)" style="text-anchor: middle; font-family: BentonSans; font-weight: 400; font-size: 12px;"><tspan x="0" dy="12">Stay at Home</tspan><tspan x="0" dy="14.399999999999999">order ends →</tspan></text></g></g></g><g id="mn_volume-svg" clip-path="url(#rect-mask-mn_volume-1)" transform="translate(0, 141)"><clipPath id="rect-mask-mn_volume-1"><rect x="0" y="0" width="16" height="20"/></clipPath><path d="M1,10 L15,10" stroke="rgb(31,119,180)" id="mn_volume" style="stroke-width: 2; stroke-linejoin: round; stroke-linecap: round; fill: none; mix-blend-mode: normal;"/></g><g id="mn_volume-svg"><text transform="translate(20, 144.609375)" fill="rgb(51,51,51)" style="font-family: BentonSans; font-weight: 400; font-size: 12px;"><tspan x="0" dy="12">Traffic volume change from 2019</tspan></text></g><g id="moving_average-svg" clip-path="url(#rect-mask-moving_average-2)" transform="translate(210, 141)"><clipPath id="rect-mask-moving_average-2"><rect x="0" y="0" width="16" height="20"/></clipPath><path d="M1,10 L15,10" stroke="rgb(136,136,136)" id="moving_average" style="stroke-width: 2; stroke-dasharray: 0.5, 4; stroke-linejoin: round; stroke-linecap: round; fill: none; mix-blend-mode: normal;"/></g><g id="moving_average-svg"><text transform="translate(230, 144.609375)" fill="rgb(51,51,51)" style="font-family: BentonSans; font-weight: 400; font-size: 12px;"><tspan x="0" dy="12">Moving 7-day average</tspan></text></g><g id="moving_average-svg"><text transform="translate(485, 241.796875)" fill="rgb(51,51,51)" style="font-family: BentonSans; font-weight: 400; font-size: 12px;"><tspan x="0" dy="12">−8%</tspan></text></g><g id="mn_volume-svg"><text transform="translate(485, 207.796875)" fill="rgb(51,51,51)" style="font-family: BentonSans; font-weight: 400; font-size: 12px;"><tspan x="0" dy="12">−7%</tspan></text></g></g><g id="after-body-svg"/><g id="above-footer-svg"/><g id="footer-svg"><g id="footer-inner-svg"><g id="footer-main-svg"><g id="text-svg"><text transform="translate(0, 456)" fill="rgb(136,136,136)" style="font-family: BentonSans; font-weight: 400; font-size: 11px;"><tspan x="0" dy="11">Chart:</tspan></text><text transform="translate(34, 456)" fill="rgb(136,136,136)" style="font-family: BentonSans; font-weight: 400; font-size: 11px;"><tspan x="0" dy="11">Jeff Hargarten, Star Tribune</tspan></text></g><g id="text-svg"><text transform="translate(174, 456)" fill="rgb(136,136,136)" style="font-family: BentonSans; font-weight: 400; font-size: 11px;"><tspan x="0" dy="11">​ •</tspan></text></g><g id="text-svg"><text transform="translate(185, 456)" fill="rgb(136,136,136)" style="font-family: BentonSans; font-weight: 400; font-size: 11px;"><tspan x="0" dy="11">Source:</tspan></text><text transform="translate(226, 456)" fill="rgb(136,136,136)" style="font-family: BentonSans; font-weight: 400; font-size: 11px;"><tspan x="0" dy="11">Minnesota Department of Transportation</tspan></text></g></g></g></g><g id="below-footer-svg"/></g></svg>