<svg xmlns:xlink="http://www.w3.org/1999/xlink" xmlns="http://www.w3.org/2000/svg" id="exportSvg" width="522" height="474"><defs/><g><g id="header-svg"><g id="text-svg"><text transform="translate(0, -2)" fill="rgb(51,51,51)" style="font-family: BentonSans; font-weight: 700; font-size: 19px;"><tspan x="0" dy="19">Minnesota's traffic is nearly normal again</tspan></text></g><g id="text-svg"><text transform="translate(0, 31)" fill="rgb(51,51,51)" style="font-family: BentonSans; font-weight: 400; font-size: 15px;"><tspan x="0" dy="15">Daily percent changes in traffic on roadways across the state drastically </tspan></text><text transform="translate(0, 51)" fill="rgb(51,51,51)" style="font-family: BentonSans; font-weight: 400; font-size: 15px;"><tspan x="0" dy="15">declined as responses to the coronavirus pandemic intensified, but have </tspan></text><text transform="translate(0, 71)" fill="rgb(51,51,51)" style="font-family: BentonSans; font-weight: 400; font-size: 15px;"><tspan x="0" dy="15">since crept back toward usual levels.</tspan></text><text transform="translate(0, 110)" fill="rgb(51,51,51)" style="font-family: BentonSans; font-weight: 400; font-size: 12px;"><tspan x="0" dy="12">Weekends</tspan></text></g></g><g id="chart-svg"><g id="group-svg" clip-path="url(#rect-mask-group-0)" transform="translate(0, 141)"><clipPath id="rect-mask-group-0"><rect x="0" y="0" width="522" height="292"/></clipPath><g id="group-svg" transform="translate(46, 34)"><g id="x-svg ticks-svg" transform="translate(0, 245)"><g transform="translate(9.56140353166159, 0)"><text transform="translate(-11.5, -12) translate(11.5, 11)" fill="rgb(133, 133, 133)" style="text-anchor: middle; font-family: BentonSans; font-weight: 400; font-size: 12px;"><tspan x="0" dy="12">Mar</tspan></text></g><g transform="translate(97.4742809606037, 0)"><text transform="translate(-10, -12) translate(10, 11)" fill="rgb(133, 133, 133)" style="text-anchor: middle; font-family: BentonSans; font-weight: 400; font-size: 12px;"><tspan x="0" dy="12">Apr</tspan></text></g><g transform="translate(182.55125911764446, 0)"><text transform="translate(-12.5, -12) translate(12.5, 11)" fill="rgb(133, 133, 133)" style="text-anchor: middle; font-family: BentonSans; font-weight: 400; font-size: 12px;"><tspan x="0" dy="12">May</tspan></text></g><g transform="translate(270.4641365465866, 0)"><text transform="translate(-10, -12) translate(10, 11)" fill="rgb(133, 133, 133)" style="text-anchor: middle; font-family: BentonSans; font-weight: 400; font-size: 12px;"><tspan x="0" dy="12">Jun</tspan></text></g><g transform="translate(355.54111470362733, 0)"><text transform="translate(-8, -12) translate(8, 11)" fill="rgb(133, 133, 133)" style="text-anchor: middle; font-family: BentonSans; font-weight: 400; font-size: 12px;"><tspan x="0" dy="12">Jul</tspan></text></g></g><g id="x-svg axis-svg" transform="translate(0, 40)"><line x1="0" x2="436" y1="0" y2="0" style="stroke: rgb(51, 51, 51); stroke-width: 1;"/></g><g id="free-range-svg"><rect width="5.31731" height="240" transform="translate(25.513336936106732, 0)" fill="rgb(87,87,87)" style="opacity: 0.05; fill: rgb(87, 87, 87);"/><rect width="5.31731" height="240" transform="translate(45.36463183941624, 0)" fill="rgb(87,87,87)" style="opacity: 0.05; fill: rgb(87, 87, 87);"/><rect width="5.31731" height="240" transform="translate(65.21592674272576, 0)" fill="rgb(87,87,87)" style="opacity: 0.05; fill: rgb(87, 87, 87);"/><rect width="5.31731" height="240" transform="translate(85.06722164603526, 0)" fill="rgb(87,87,87)" style="opacity: 0.05; fill: rgb(87, 87, 87);"/><rect width="5.31731" height="240" transform="translate(104.91851654934477, 0)" fill="rgb(87,87,87)" style="opacity: 0.05; fill: rgb(87, 87, 87);"/><rect width="5.31731" height="240" transform="translate(124.76981145265428, 0)" fill="rgb(87,87,87)" style="opacity: 0.05; fill: rgb(87, 87, 87);"/><rect width="5.31731" height="240" transform="translate(144.6211063559638, 0)" fill="rgb(87,87,87)" style="opacity: 0.05; fill: rgb(87, 87, 87);"/><rect width="5.31731" height="240" transform="translate(164.4724012592733, 0)" fill="rgb(87,87,87)" style="opacity: 0.05; fill: rgb(87, 87, 87);"/><rect width="5.31731" height="240" transform="translate(184.32369616258282, 0)" fill="rgb(87,87,87)" style="opacity: 0.05; fill: rgb(87, 87, 87);"/><rect width="5.31731" height="240" transform="translate(204.17499106589233, 0)" fill="rgb(87,87,87)" style="opacity: 0.05; fill: rgb(87, 87, 87);"/><rect width="5.31731" height="240" transform="translate(224.02628596920187, 0)" fill="rgb(87,87,87)" style="opacity: 0.05; fill: rgb(87, 87, 87);"/><rect width="5.31731" height="240" transform="translate(243.87758087251137, 0)" fill="rgb(87,87,87)" style="opacity: 0.05; fill: rgb(87, 87, 87);"/><rect width="5.31731" height="240" transform="translate(263.7288757758208, 0)" fill="rgb(87,87,87)" style="opacity: 0.05; fill: rgb(87, 87, 87);"/><rect width="5.31731" height="240" transform="translate(283.58017067913033, 0)" fill="rgb(87,87,87)" style="opacity: 0.05; fill: rgb(87, 87, 87);"/><rect width="5.31731" height="240" transform="translate(303.43146558243984, 0)" fill="rgb(87,87,87)" style="opacity: 0.05; fill: rgb(87, 87, 87);"/><rect width="5.31731" height="240" transform="translate(323.2827604857494, 0)" fill="rgb(87,87,87)" style="opacity: 0.05; fill: rgb(87, 87, 87);"/><rect width="5.6718" height="240" transform="translate(342.77956798007125, 0)" fill="rgb(51,51,51)" style="opacity: 0.05; fill: rgb(51, 51, 51);"/><rect width="5.6718" height="240" transform="translate(362.63086288338076, 0)" fill="rgb(51,51,51)" style="opacity: 0.05; fill: rgb(51, 51, 51);"/><rect width="5.6718" height="240" transform="translate(382.4821577866902, 0)" fill="rgb(51,51,51)" style="opacity: 0.05; fill: rgb(51, 51, 51);"/><rect width="5.6718" height="240" transform="translate(402.3334526899998, 0)" fill="rgb(51,51,51)" style="opacity: 0.05; fill: rgb(51, 51, 51);"/><rect width="5.6718" height="240" transform="translate(422.1847475933093, 0)" fill="rgb(51,51,51)" style="opacity: 0.05; fill: rgb(51, 51, 51);"/></g><g id="y-grid-svg"><g transform="translate(0, 240)"><line x1="0" x2="436" y1="0" y2="0" style="stroke: rgb(238, 238, 238); stroke-width: 1;"/><text transform="translate(-4, 4) translate(-41, -12) translate(41, 0)" fill="rgb(133, 133, 133)" style="text-anchor: end; font-family: BentonSans; font-weight: 400; font-size: 12px;"><tspan x="0" dy="12">−100%</tspan></text></g><g transform="translate(0, 200)"><line x1="0" x2="436" y1="0" y2="0" style="stroke: rgb(238, 238, 238); stroke-width: 1;"/><text transform="translate(-4, 4) translate(-35, -12) translate(35, 0)" fill="rgb(133, 133, 133)" style="text-anchor: end; font-family: BentonSans; font-weight: 400; font-size: 12px;"><tspan x="0" dy="12">−80%</tspan></text></g><g transform="translate(0, 160)"><line x1="0" x2="436" y1="0" y2="0" style="stroke: rgb(238, 238, 238); stroke-width: 1;"/><text transform="translate(-4, 4) translate(-35, -12) translate(35, 0)" fill="rgb(133, 133, 133)" style="text-anchor: end; font-family: BentonSans; font-weight: 400; font-size: 12px;"><tspan x="0" dy="12">−60%</tspan></text></g><g transform="translate(0, 120)"><line x1="0" x2="436" y1="0" y2="0" style="stroke: rgb(238, 238, 238); stroke-width: 1;"/><text transform="translate(-4, 4) translate(-35, -12) translate(35, 0)" fill="rgb(133, 133, 133)" style="text-anchor: end; font-family: BentonSans; font-weight: 400; font-size: 12px;"><tspan x="0" dy="12">−40%</tspan></text></g><g transform="translate(0, 80)"><line x1="0" x2="436" y1="0" y2="0" style="stroke: rgb(238, 238, 238); stroke-width: 1;"/><text transform="translate(-4, 4) translate(-35, -12) translate(35, 0)" fill="rgb(133, 133, 133)" style="text-anchor: end; font-family: BentonSans; font-weight: 400; font-size: 12px;"><tspan x="0" dy="12">−20%</tspan></text></g><g id="tick-svg tick-major-svg" transform="translate(0, 40)"><text transform="translate(-4, 4) translate(-28, -12) translate(28, 0)" fill="rgb(133, 133, 133)" style="text-anchor: end; font-family: BentonSans; font-weight: 400; font-size: 12px;"><tspan x="0" dy="12">+0%</tspan></text></g><g><line x1="0" x2="436" y1="0" y2="0" style="stroke: rgb(238, 238, 238); stroke-width: 1;"/><text transform="translate(-4, 4) translate(-35, -12) translate(35, 0)" fill="rgb(133, 133, 133)" style="text-anchor: end; font-family: BentonSans; font-weight: 400; font-size: 12px;"><tspan x="0" dy="12">+20%</tspan></text></g></g><g id="lines-svg"><g id="moving_average-svg"><path d="M26.57679916306974,34.400000000000006L29.4126984349711,34.599999999999994L32.24859770687246,35.19999999999999L35.084496978773814,35.19999999999999L37.92039625067518,35.400000000000006L40.756295522576536,34.599999999999994L43.5921947944779,36L46.42809406637925,40L49.263993338280606,44.19999999999999L52.099892610181975,46.599999999999994L54.93579188208333,49.80000000000001L57.77169115398469,55.80000000000001L60.607590425886045,64.4L63.443489697787406,72.19999999999999L66.27938896968875,79.4L69.11528824159012,88L71.95118751349148,93L74.78708678539284,98L77.6229860572942,101.4L80.45888532919555,100.6L83.29478460109692,100.80000000000001L86.13068387299828,107.19999999999999L88.96658314489963,111.19999999999999L91.80248241680098,113.79999999999998L94.63838168870235,115.80000000000001L97.4742809606037,117.6L100.31018023250506,121.8L103.14607950440643,128L105.98197877630778,125.2L108.81787804820915,123L111.65377732011049,124.2L114.48967659201186,124.8L117.32557586391323,124.2L120.16147513581458,123L122.99737440771595,119.2L125.83327367961729,117.00000000000001L128.66917295151868,121.8L131.50507222342,122L134.34097149532138,122L137.1768707672227,121L140.0127700391241,119.6L142.84866931102545,117.8L145.6845685829268,115.80000000000001L148.52046785482818,107.6L151.3563671267295,105.19999999999999L154.1922663986309,102.80000000000001L157.02816567053225,100L159.8640649424336,97.80000000000001L162.69996421433495,96L165.5358634862363,94L168.37176275813766,91L171.20766203003905,88L174.0435613019404,87.4L176.87946057384175,86.6L179.7153598457431,83.80000000000001L182.55125911764446,85L185.38715838954585,85.6L188.22305766144717,86.80000000000001L191.05895693334855,88.19999999999999L193.8948562052499,89.19999999999999L196.73075547715126,90.4L199.56665474905262,93.80000000000001L202.40255402095397,92.80000000000001L205.23845329285535,93.6L208.0743525647567,93.6L210.91025183665806,93L213.74615110855942,90.80000000000001L216.58205038046077,91L219.41794965236215,90L222.2538489242635,88.6L225.08974819616483,87.80000000000001L227.9256474680662,87.4L230.76154673996757,85.4L233.59744601186893,83.6L236.43334528377028,79.6L239.26924455567166,76.19999999999999L242.10514382757302,73.19999999999999L244.94104309947434,70.6L247.7769423713757,69L250.6128416432771,70.6L253.44874091517843,69.80000000000001L256.2846401870798,69.80000000000001L259.12053945898117,70.80000000000001L261.9564387308825,72.19999999999999L264.7923380027839,71.80000000000001L267.6282372746852,69.4L270.4641365465866,68L273.30003581848797,69L276.1359350903893,70L278.9718343622906,69.80000000000001L281.80773363419206,68.6L284.6436329060934,68L287.4795321779947,68.80000000000001L290.3154314498961,68.4L293.1513307217975,68.80000000000001L295.9872299936988,69L298.8231292656002,68L301.65902853750157,67.19999999999999L304.4949278094029,66.19999999999999L307.3308270813042,64L310.1667263532056,62.599999999999994L313.002625625107,60.19999999999999L315.8385248970083,58.19999999999999L318.6744241689097,58.80000000000001L321.5103234408111,57.80000000000001L324.3462227127124,57.599999999999994L327.1821219846138,57L330.0180212565151,56.400000000000006L332.8539205284165,56.19999999999999L335.6898198003178,56L338.5257190722192,54.19999999999999L341.3616183441206,54.599999999999994L344.1975176160219,53.19999999999999L347.0334168879233,53.400000000000006L349.8693161598246,53.599999999999994L352.705215431726,52.400000000000006L355.54111470362733,50.80000000000001L358.3770139755287,47.19999999999999L361.21291324743004,49.19999999999999L364.0488125193314,55.400000000000006L366.8847117912328,55.19999999999999L369.72061106313413,53.80000000000001L372.5565103350355,55.19999999999999L375.3924096069369,58L378.2283088788382,63L381.06420815073955,61L383.90010742264093,57L386.7360066945423,57L389.57190596644364,58.80000000000001L392.407805238345,59.80000000000001L395.2437045102464,58.400000000000006L398.07960378214773,57.400000000000006L400.91550305404905,57.19999999999999L403.7514023259505,56.80000000000001L406.5873015978518,56.80000000000001L409.42320086975315,56L412.2591001416545,55.80000000000001L415.0949994135559,55.599999999999994L417.93089868545724,55.400000000000006L420.7667979573586,55.19999999999999L423.60269722925995,56L426.4385965011613,56.80000000000001" stroke="rgb(136,136,136)" id="moving_average" style="stroke-width: 2; stroke-dasharray: 0.5, 4; stroke-linejoin: round; stroke-linecap: round; fill: none; mix-blend-mode: normal;"/></g><g id="mn_volume-svg"><path d="M9.56140353166159,33.599999999999994L12.397302803562948,30.19999999999999L15.233202075464307,35.599999999999994L18.069101347365663,32.80000000000001L20.905000619267025,42.599999999999994L23.740899891168382,35L26.57679916306974,30.599999999999994L29.4126984349711,34.80000000000001L32.24859770687246,35L35.084496978773814,35.19999999999999L37.92039625067518,35.19999999999999L40.756295522576536,36.599999999999994L43.5921947944779,44L46.42809406637925,59.19999999999999L49.263993338280606,63.80000000000001L52.099892610181975,52.19999999999999L54.93579188208333,57.19999999999999L57.77169115398469,77L60.607590425886045,97.4L63.443489697787406,98.19999999999999L66.27938896968875,109.80000000000001L69.11528824159012,124.8L71.95118751349148,86L74.78708678539284,92.80000000000001L77.6229860572942,100.6L80.45888532919555,92L83.29478460109692,100.19999999999999L86.13068387299828,153.6L88.96658314489963,153L91.80248241680098,105L94.63838168870235,105.80000000000001L97.4742809606037,113.79999999999998L100.31018023250506,121.6L103.14607950440643,143.4L105.98197877630778,134.2L108.81787804820915,136.8L111.65377732011049,114.2L114.48967659201186,110L117.32557586391323,109.6L120.16147513581458,112.4L122.99737440771595,116.80000000000001L125.83327367961729,118.8L128.66917295151868,171L131.50507222342,114.99999999999999L134.34097149532138,109.80000000000001L137.1768707672227,103L140.0127700391241,102.80000000000001L142.84866931102545,104.6L145.6845685829268,104L148.52046785482818,113.59999999999998L151.3563671267295,99L154.1922663986309,93.19999999999999L157.02816567053225,82.6L159.8640649424336,87.4L162.69996421433495,91.6L165.5358634862363,90.19999999999999L168.37176275813766,93.6L171.20766203003905,77.4L174.0435613019404,89.6L176.87946057384175,76.80000000000001L179.7153598457431,67.4L182.55125911764446,99.4L185.38715838954585,95.6L188.22305766144717,102L191.05895693334855,87.19999999999999L193.8948562052499,96.19999999999999L196.73075547715126,85.4L199.56665474905262,90.6L202.40255402095397,92.19999999999999L205.23845329285535,101.4L208.0743525647567,102.80000000000001L210.91025183665806,81.80000000000001L213.74615110855942,80.80000000000001L216.58205038046077,87.4L219.41794965236215,84L222.2538489242635,82.6L225.08974819616483,94.80000000000001L227.9256474680662,100.80000000000001L230.76154673996757,67.6L233.59744601186893,68L236.43334528377028,59.400000000000006L239.26924455567166,60L242.10514382757302,61.80000000000001L244.94104309947434,76.6L247.7769423713757,89.4L250.6128416432771,78.4L253.44874091517843,62.400000000000006L256.2846401870798,59.400000000000006L259.12053945898117,67.6L261.9564387308825,71.6L264.7923380027839,73.4L267.6282372746852,73L270.4641365465866,68.80000000000001L273.30003581848797,69.6L276.1359350903893,66.19999999999999L278.9718343622906,66L281.80773363419206,63.599999999999994L284.6436329060934,69.4L287.4795321779947,78.19999999999999L290.3154314498961,66L293.1513307217975,71.6L295.9872299936988,67.80000000000001L298.8231292656002,59.599999999999994L301.65902853750157,58.400000000000006L304.4949278094029,61.599999999999994L307.3308270813042,63L310.1667263532056,56.400000000000006L313.002625625107,54.599999999999994L315.8385248970083,54L318.6744241689097,63.400000000000006L321.5103234408111,52.19999999999999L324.3462227127124,60L327.1821219846138,58L330.0180212565151,52.80000000000001L332.8539205284165,53.400000000000006L335.6898198003178,52.599999999999994L338.5257190722192,49.80000000000001L341.3616183441206,55.19999999999999L344.1975176160219,50.19999999999999L347.0334168879233,59.400000000000006L349.8693161598246,55L352.705215431726,45.19999999999999L355.54111470362733,41.19999999999999L358.3770139755287,23.80000000000001L361.21291324743004,69.4L364.0488125193314,94.4L366.8847117912328,57.19999999999999L369.72061106313413,45.80000000000001L372.5565103350355,55L375.3924096069369,60.599999999999994L378.2283088788382,58L381.06420815073955,55.400000000000006L383.90010742264093,66.4L386.7360066945423,57.599999999999994L389.57190596644364,58L392.407805238345,62.80000000000001L395.2437045102464,51.19999999999999L398.07960378214773,49.80000000000001L400.91550305404905,54L403.7514023259505,64L406.5873015978518,57.19999999999999L409.42320086975315,53L412.2591001416545,61.19999999999999L415.0949994135559,50.400000000000006L417.93089868545724,48.599999999999994L420.7667979573586,52.400000000000006L423.60269722925995,68.6L426.4385965011613,62.80000000000001" stroke="rgb(31,119,180)" id="mn_volume" style="stroke-width: 2; stroke-linejoin: round; stroke-linecap: round; fill: none; mix-blend-mode: normal;"/></g></g><g id="line-symbols-svg"><path d="M -1,0 a 1,1 0 1,0 2,0 a 1,1 0 1,0 -2,0 Z" id="moving_average" transform="translate(426.4385965011613, 56.80000000000001) scale(3.5)" style="fill: rgb(136, 136, 136); mix-blend-mode: normal;"/><path d="M -1,0 a 1,1 0 1,0 2,0 a 1,1 0 1,0 -2,0 Z" id="mn_volume" transform="translate(426.4385965011613, 62.80000000000001) scale(3.5)" style="fill: rgb(31, 119, 180); mix-blend-mode: normal;"/></g><g id="free-texts-svg"><g id="bg-svg"><rect width="78.6562" height="38.40625" transform="translate(-8.013764549454663, 126.99375)" fill="rgb(255,255,255)" style="fill: rgb(255, 255, 255);"/><rect width="78.9844" height="38.40625" transform="translate(34.99737440771595, 159.4)" fill="rgb(255,255,255)" style="fill: rgb(255, 255, 255);"/><rect width="75.3438" height="52.8125" transform="translate(186.7615543693621, 105.4)" fill="rgb(255,255,255)" style="fill: rgb(255, 255, 255);"/><rect width="82.3281" height="52.8125" transform="translate(316.5488125193314, 103.99375)" fill="rgb(255,255,255)" style="fill: rgb(255, 255, 255);"/></g><text transform="translate(79.98623545054534, 141.99375) translate(-83, -12) translate(83, 0)" fill="rgb(106, 106, 106)" style="text-anchor: end; font-family: BentonSans; font-weight: 400; font-size: 12px;"><tspan x="0" dy="12">Stay at Home</tspan><tspan x="0" dy="14.399999999999999">order starts →</tspan></text><text transform="translate(122.99737440771595, 174.4) translate(-83, -12) translate(83, 0)" fill="rgb(106, 106, 106)" style="text-anchor: end; font-family: BentonSans; font-weight: 400; font-size: 12px;"><tspan x="0" dy="12">Snowy →</tspan><tspan x="0" dy="14.399999999999999">Easter Sunday</tspan></text><text transform="translate(230.76154673996757, 120.4) translate(-38.99999237060547, -12) translate(38.99999237060547, 0)" fill="rgb(106, 106, 106)" style="text-anchor: middle; font-family: BentonSans; font-weight: 400; font-size: 12px;"><tspan x="0" dy="12">↑</tspan><tspan x="0" dy="14.399999999999999">Stay at Home</tspan><tspan x="0" dy="14.399999999999999">order ends</tspan></text><text transform="translate(364.0488125193314, 118.99375) translate(-42.5, -12) translate(42.5, 0)" fill="rgb(106, 106, 106)" style="text-anchor: middle; font-family: BentonSans; font-weight: 400; font-size: 12px;"><tspan x="0" dy="12">↑</tspan><tspan x="0" dy="14.399999999999999">Canceled </tspan><tspan x="0" dy="14.399999999999999">July 4th events</tspan></text></g></g></g><g id="mn_volume-svg" clip-path="url(#rect-mask-mn_volume-1)" transform="translate(0, 141)"><clipPath id="rect-mask-mn_volume-1"><rect x="0" y="0" width="16" height="20"/></clipPath><path d="M1,10 L15,10" stroke="rgb(31,119,180)" id="mn_volume" style="stroke-width: 2; stroke-linejoin: round; stroke-linecap: round; fill: none; mix-blend-mode: normal;"/></g><g id="mn_volume-svg"><text transform="translate(20, 144.609375)" fill="rgb(51,51,51)" style="font-family: BentonSans; font-weight: 400; font-size: 12px;"><tspan x="0" dy="12">Traffic volume change from 2016-2019</tspan></text></g><g id="moving_average-svg" clip-path="url(#rect-mask-moving_average-2)" transform="translate(241, 141)"><clipPath id="rect-mask-moving_average-2"><rect x="0" y="0" width="16" height="20"/></clipPath><path d="M1,10 L15,10" stroke="rgb(136,136,136)" id="moving_average" style="stroke-width: 2; stroke-dasharray: 0.5, 4; stroke-linejoin: round; stroke-linecap: round; fill: none; mix-blend-mode: normal;"/></g><g id="moving_average-svg"><text transform="translate(261, 144.609375)" fill="rgb(51,51,51)" style="font-family: BentonSans; font-weight: 400; font-size: 12px;"><tspan x="0" dy="12">Moving 7-day average</tspan></text></g><g id="moving_average-svg"><text transform="translate(482, 212.796875)" fill="rgb(51,51,51)" style="font-family: BentonSans; font-weight: 400; font-size: 12px;"><tspan x="0" dy="12">−8%</tspan></text></g><g id="mn_volume-svg"><text transform="translate(482, 246.796875)" fill="rgb(51,51,51)" style="font-family: BentonSans; font-weight: 400; font-size: 12px;"><tspan x="0" dy="12">−11%</tspan></text></g></g><g id="after-body-svg"/><g id="above-footer-svg"/><g id="footer-svg"><g id="footer-inner-svg"><g id="footer-main-svg"><g id="text-svg"><text transform="translate(0, 456)" fill="rgb(136,136,136)" style="font-family: BentonSans; font-weight: 400; font-size: 11px;"><tspan x="0" dy="11">Chart:</tspan></text><text transform="translate(34, 456)" fill="rgb(136,136,136)" style="font-family: BentonSans; font-weight: 400; font-size: 11px;"><tspan x="0" dy="11">Jeff Hargarten, Star Tribune</tspan></text></g><g id="text-svg"><text transform="translate(174, 456)" fill="rgb(136,136,136)" style="font-family: BentonSans; font-weight: 400; font-size: 11px;"><tspan x="0" dy="11">​ •</tspan></text></g><g id="text-svg"><text transform="translate(185, 456)" fill="rgb(136,136,136)" style="font-family: BentonSans; font-weight: 400; font-size: 11px;"><tspan x="0" dy="11">Source:</tspan></text><text transform="translate(226, 456)" fill="rgb(136,136,136)" style="font-family: BentonSans; font-weight: 400; font-size: 11px;"><tspan x="0" dy="11">Minnesota Department of Transportation</tspan></text></g></g></g></g><g id="below-footer-svg"/></g></svg>