<svg xmlns:xlink="http://www.w3.org/1999/xlink" xmlns="http://www.w3.org/2000/svg" id="exportSvg" width="522" height="474"><defs/><g><g id="header-svg"><g id="text-svg"><text transform="translate(0, -2)" fill="rgb(51,51,51)" style="font-family: BentonSans; font-weight: 700; font-size: 19px;"><tspan x="0" dy="19">Minnesota's traffic is nearly normal again</tspan></text></g><g id="text-svg"><text transform="translate(0, 31)" fill="rgb(51,51,51)" style="font-family: BentonSans; font-weight: 400; font-size: 15px;"><tspan x="0" dy="15">Daily percent changes in traffic on roadways across the state drastically </tspan></text><text transform="translate(0, 51)" fill="rgb(51,51,51)" style="font-family: BentonSans; font-weight: 400; font-size: 15px;"><tspan x="0" dy="15">declined as responses to the coronavirus pandemic intensified, but have </tspan></text><text transform="translate(0, 71)" fill="rgb(51,51,51)" style="font-family: BentonSans; font-weight: 400; font-size: 15px;"><tspan x="0" dy="15">since crept back toward usual levels.</tspan></text><text transform="translate(0, 110)" fill="rgb(51,51,51)" style="font-family: BentonSans; font-weight: 400; font-size: 12px;"><tspan x="0" dy="12">Weekends</tspan></text></g></g><g id="chart-svg"><g id="group-svg" clip-path="url(#rect-mask-group-0)" transform="translate(0, 141)"><clipPath id="rect-mask-group-0"><rect x="0" y="0" width="522" height="292"/></clipPath><g id="group-svg" transform="translate(46, 34)"><g id="x-svg ticks-svg" transform="translate(0, 245)"><g transform="translate(9.5642701786089, 0)"><text transform="translate(-11.5, -12) translate(11.5, 11)" fill="rgb(133, 133, 133)" style="text-anchor: middle; font-family: BentonSans; font-weight: 400; font-size: 12px;"><tspan x="0" dy="12">Mar</tspan></text></g><g transform="translate(121.77129819778943, 0)"><text transform="translate(-10, -12) translate(10, 11)" fill="rgb(133, 133, 133)" style="text-anchor: middle; font-family: BentonSans; font-weight: 400; font-size: 12px;"><tspan x="0" dy="12">Apr</tspan></text></g><g transform="translate(230.35874466796412, 0)"><text transform="translate(-12.5, -12) translate(12.5, 11)" fill="rgb(133, 133, 133)" style="text-anchor: middle; font-family: BentonSans; font-weight: 400; font-size: 12px;"><tspan x="0" dy="12">May</tspan></text></g><g transform="translate(342.56577268714466, 0)"><text transform="translate(-10, -12) translate(10, 11)" fill="rgb(133, 133, 133)" style="text-anchor: middle; font-family: BentonSans; font-weight: 400; font-size: 12px;"><tspan x="0" dy="12">Jun</tspan></text></g></g><g id="x-svg axis-svg" transform="translate(0, 40)"><line x1="0" x2="439" y1="0" y2="0" style="stroke: rgb(51, 51, 51); stroke-width: 1;"/></g><g id="free-range-svg"><rect width="6.78672" height="240" transform="translate(29.924416391766655, 0)" fill="rgb(87,87,87)" style="opacity: 0.05; fill: rgb(87, 87, 87);"/><rect width="6.78672" height="240" transform="translate(55.261487234807426, 0)" fill="rgb(87,87,87)" style="opacity: 0.05; fill: rgb(87, 87, 87);"/><rect width="6.78672" height="240" transform="translate(80.59855807784818, 0)" fill="rgb(87,87,87)" style="opacity: 0.05; fill: rgb(87, 87, 87);"/><rect width="6.78672" height="240" transform="translate(105.93562892088895, 0)" fill="rgb(87,87,87)" style="opacity: 0.05; fill: rgb(87, 87, 87);"/><rect width="6.78672" height="240" transform="translate(131.2726997639297, 0)" fill="rgb(87,87,87)" style="opacity: 0.05; fill: rgb(87, 87, 87);"/><rect width="6.78672" height="240" transform="translate(156.60977060697047, 0)" fill="rgb(87,87,87)" style="opacity: 0.05; fill: rgb(87, 87, 87);"/><rect width="6.78672" height="240" transform="translate(181.94684145001122, 0)" fill="rgb(87,87,87)" style="opacity: 0.05; fill: rgb(87, 87, 87);"/><rect width="6.78672" height="240" transform="translate(207.283912293052, 0)" fill="rgb(87,87,87)" style="opacity: 0.05; fill: rgb(87, 87, 87);"/><rect width="6.78672" height="240" transform="translate(232.62098313609275, 0)" fill="rgb(87,87,87)" style="opacity: 0.05; fill: rgb(87, 87, 87);"/><rect width="6.78672" height="240" transform="translate(257.9580539791335, 0)" fill="rgb(87,87,87)" style="opacity: 0.05; fill: rgb(87, 87, 87);"/><rect width="7.23916" height="240" transform="translate(283.2951248221743, 0)" fill="rgb(51,51,51)" style="opacity: 0.05; fill: rgb(51, 51, 51);"/><rect width="7.23916" height="240" transform="translate(308.632195665215, 0)" fill="rgb(51,51,51)" style="opacity: 0.05; fill: rgb(51, 51, 51);"/><rect width="7.23916" height="240" transform="translate(333.96926650825577, 0)" fill="rgb(51,51,51)" style="opacity: 0.05; fill: rgb(51, 51, 51);"/><rect width="7.23916" height="240" transform="translate(359.3063373512966, 0)" fill="rgb(51,51,51)" style="opacity: 0.05; fill: rgb(51, 51, 51);"/><rect width="7.23916" height="240" transform="translate(384.6434081943373, 0)" fill="rgb(51,51,51)" style="opacity: 0.05; fill: rgb(51, 51, 51);"/><rect width="7.23916" height="240" transform="translate(409.98047903737813, 0)" fill="rgb(51,51,51)" style="opacity: 0.05; fill: rgb(51, 51, 51);"/></g><g id="y-grid-svg"><g transform="translate(0, 240)"><line x1="0" x2="439" y1="0" y2="0" style="stroke: rgb(238, 238, 238); stroke-width: 1;"/><text transform="translate(-4, 4) translate(-41, -12) translate(41, 0)" fill="rgb(133, 133, 133)" style="text-anchor: end; font-family: BentonSans; font-weight: 400; font-size: 12px;"><tspan x="0" dy="12">−100%</tspan></text></g><g transform="translate(0, 200)"><line x1="0" x2="439" y1="0" y2="0" style="stroke: rgb(238, 238, 238); stroke-width: 1;"/><text transform="translate(-4, 4) translate(-35, -12) translate(35, 0)" fill="rgb(133, 133, 133)" style="text-anchor: end; font-family: BentonSans; font-weight: 400; font-size: 12px;"><tspan x="0" dy="12">−80%</tspan></text></g><g transform="translate(0, 160)"><line x1="0" x2="439" y1="0" y2="0" style="stroke: rgb(238, 238, 238); stroke-width: 1;"/><text transform="translate(-4, 4) translate(-35, -12) translate(35, 0)" fill="rgb(133, 133, 133)" style="text-anchor: end; font-family: BentonSans; font-weight: 400; font-size: 12px;"><tspan x="0" dy="12">−60%</tspan></text></g><g transform="translate(0, 120)"><line x1="0" x2="439" y1="0" y2="0" style="stroke: rgb(238, 238, 238); stroke-width: 1;"/><text transform="translate(-4, 4) translate(-35, -12) translate(35, 0)" fill="rgb(133, 133, 133)" style="text-anchor: end; font-family: BentonSans; font-weight: 400; font-size: 12px;"><tspan x="0" dy="12">−40%</tspan></text></g><g transform="translate(0, 80)"><line x1="0" x2="439" y1="0" y2="0" style="stroke: rgb(238, 238, 238); stroke-width: 1;"/><text transform="translate(-4, 4) translate(-35, -12) translate(35, 0)" fill="rgb(133, 133, 133)" style="text-anchor: end; font-family: BentonSans; font-weight: 400; font-size: 12px;"><tspan x="0" dy="12">−20%</tspan></text></g><g id="tick-svg tick-major-svg" transform="translate(0, 40)"><text transform="translate(-4, 4) translate(-28, -12) translate(28, 0)" fill="rgb(133, 133, 133)" style="text-anchor: end; font-family: BentonSans; font-weight: 400; font-size: 12px;"><tspan x="0" dy="12">+0%</tspan></text></g><g><line x1="0" x2="439" y1="0" y2="0" style="stroke: rgb(238, 238, 238); stroke-width: 1;"/><text transform="translate(-4, 4) translate(-35, -12) translate(35, 0)" fill="rgb(133, 133, 133)" style="text-anchor: end; font-family: BentonSans; font-weight: 400; font-size: 12px;"><tspan x="0" dy="12">+20%</tspan></text></g></g><g id="lines-svg"><g id="moving_average-svg"><path d="M31.281759472643838,34.400000000000006L34.901341021649664,34.599999999999994L38.520922570655486,35.19999999999999L42.140504119661315,35.19999999999999L45.76008566866713,35.400000000000006L49.37966721767295,34.599999999999994L52.99924876667878,36L56.6188303156846,40L60.23841186469043,44.19999999999999L63.85799341369625,46.599999999999994L67.47757496270208,49.80000000000001L71.0971565117079,55.80000000000001L74.71673806071372,64.4L78.33631960971955,72.19999999999999L81.95590115872535,79.4L85.57548270773118,88L89.19506425673701,93L92.81464580574284,98L96.43422735474866,101.4L100.05380890375449,100.6L103.67339045276032,100.80000000000001L107.29297200176613,107.19999999999999L110.91255355077195,111.19999999999999L114.53213509977779,113.79999999999998L118.15171664878359,115.80000000000001L121.77129819778943,117.6L125.39087974679525,121.8L129.01046129580106,128L132.6300428448069,125.2L136.2496243938127,123L139.86920594281855,124.2L143.48878749182435,124.8L147.10836904083018,124.2L150.727950589836,123L154.34753213884184,119.2L157.96711368784764,117.00000000000001L161.58669523685347,121.8L165.2062767858593,122L168.82585833486513,122L172.44543988387096,121L176.06502143287676,119.6L179.6846029818826,117.8L183.30418453088842,115.80000000000001L186.92376607989425,107.6L190.54334762890008,105.19999999999999L194.16292917790588,102.80000000000001L197.7825107269117,100L201.40209227591754,97.80000000000001L205.02167382492337,96L208.64125537392917,94L212.26083692293503,91L215.88041847194083,88L219.50000002094666,87.4L223.11958156995246,86.6L226.7391631189583,83.80000000000001L230.35874466796412,85L233.97832621696998,85.6L237.59790776597575,86.80000000000001L241.21748931498158,88.19999999999999L244.83707086398744,89.19999999999999L248.45665241299326,90.4L252.07623396199907,93.80000000000001L255.6958155110049,92.80000000000001L259.31539706001075,93.6L262.9349786090165,93.6L266.55456015802235,93L270.1741417070282,90.80000000000001L273.793723256034,91L277.4133048050398,90L281.0328863540457,88.6L284.6524679030515,87.80000000000001L288.2720494520573,87.4L291.8916310010631,85.4L295.51121255006893,83.6L299.13079409907476,79.6L302.7503756480806,76.19999999999999L306.3699571970864,73.19999999999999L309.98953874609225,70.6L313.609120295098,69L317.22870184410385,70.6L320.8482833931097,69.80000000000001L324.46786494211557,69.80000000000001L328.08744649112134,70.80000000000001L331.70702804012717,72.19999999999999L335.326609589133,71.80000000000001L338.94619113813883,69.4L342.56577268714466,68L346.1853542361505,69L349.8049357851563,70L353.4245173341621,69.80000000000001L357.0440988831679,68.6L360.66368043217375,68L364.28326198117963,68.80000000000001L367.9028435301854,68.4L371.52242507919124,68.80000000000001L375.14200662819707,69L378.76158817720284,68L382.38116972620867,67.19999999999999L386.00075127521455,66.19999999999999L389.6203328242204,64L393.23991437322616,62.599999999999994L396.859495922232,60.19999999999999L400.4790774712378,58.19999999999999L404.09865902024364,58.80000000000001L407.7182405692495,57.80000000000001L411.3378221182553,57.599999999999994L414.95740366726113,57L418.5769852162669,56.400000000000006L422.19656676527273,56.19999999999999L425.81614831427856,56L429.43572986328445,54.19999999999999" stroke="rgb(136,136,136)" id="moving_average" style="stroke-width: 2; stroke-dasharray: 0.5, 4; stroke-linejoin: round; stroke-linecap: round; fill: none; mix-blend-mode: normal;"/></g><g id="mn_volume-svg"><path d="M9.5642701786089,33.599999999999994L13.183851727614723,30.19999999999999L16.80343327662055,35.599999999999994L20.42301482562637,32.80000000000001L24.042596374632193,42.599999999999994L27.66217792363802,35L31.281759472643838,30.599999999999994L34.901341021649664,34.80000000000001L38.520922570655486,35L42.140504119661315,35.19999999999999L45.76008566866713,35.19999999999999L49.37966721767295,36.599999999999994L52.99924876667878,44L56.6188303156846,59.19999999999999L60.23841186469043,63.80000000000001L63.85799341369625,52.19999999999999L67.47757496270208,57.19999999999999L71.0971565117079,77L74.71673806071372,97.4L78.33631960971955,98.19999999999999L81.95590115872535,109.80000000000001L85.57548270773118,124.8L89.19506425673701,86L92.81464580574284,92.80000000000001L96.43422735474866,100.6L100.05380890375449,92L103.67339045276032,100.19999999999999L107.29297200176613,153.6L110.91255355077195,153L114.53213509977779,105L118.15171664878359,105.80000000000001L121.77129819778943,113.79999999999998L125.39087974679525,121.6L129.01046129580106,143.4L132.6300428448069,134.2L136.2496243938127,136.8L139.86920594281855,114.2L143.48878749182435,110L147.10836904083018,109.6L150.727950589836,112.4L154.34753213884184,116.80000000000001L157.96711368784764,118.8L161.58669523685347,171L165.2062767858593,114.99999999999999L168.82585833486513,109.80000000000001L172.44543988387096,103L176.06502143287676,102.80000000000001L179.6846029818826,104.6L183.30418453088842,104L186.92376607989425,113.59999999999998L190.54334762890008,99L194.16292917790588,93.19999999999999L197.7825107269117,82.6L201.40209227591754,87.4L205.02167382492337,91.6L208.64125537392917,90.19999999999999L212.26083692293503,93.6L215.88041847194083,77.4L219.50000002094666,89.6L223.11958156995246,76.80000000000001L226.7391631189583,67.4L230.35874466796412,99.4L233.97832621696998,95.6L237.59790776597575,102L241.21748931498158,87.19999999999999L244.83707086398744,96.19999999999999L248.45665241299326,85.4L252.07623396199907,90.6L255.6958155110049,92.19999999999999L259.31539706001075,101.4L262.9349786090165,102.80000000000001L266.55456015802235,81.80000000000001L270.1741417070282,80.80000000000001L273.793723256034,87.4L277.4133048050398,84L281.0328863540457,82.6L284.6524679030515,94.80000000000001L288.2720494520573,100.80000000000001L291.8916310010631,67.6L295.51121255006893,68L299.13079409907476,59.400000000000006L302.7503756480806,60L306.3699571970864,61.80000000000001L309.98953874609225,76.6L313.609120295098,89.4L317.22870184410385,78.4L320.8482833931097,62.400000000000006L324.46786494211557,59.400000000000006L328.08744649112134,67.6L331.70702804012717,71.6L335.326609589133,73.4L338.94619113813883,73L342.56577268714466,68.80000000000001L346.1853542361505,69.6L349.8049357851563,66.19999999999999L353.4245173341621,66L357.0440988831679,63.599999999999994L360.66368043217375,69.4L364.28326198117963,78.19999999999999L367.9028435301854,66L371.52242507919124,71.6L375.14200662819707,67.80000000000001L378.76158817720284,59.599999999999994L382.38116972620867,58.400000000000006L386.00075127521455,61.599999999999994L389.6203328242204,63L393.23991437322616,56.400000000000006L396.859495922232,54.599999999999994L400.4790774712378,54L404.09865902024364,63.400000000000006L407.7182405692495,52.19999999999999L411.3378221182553,60L414.95740366726113,58L418.5769852162669,52.80000000000001L422.19656676527273,53.400000000000006L425.81614831427856,52.599999999999994L429.43572986328445,49.80000000000001" stroke="rgb(31,119,180)" id="mn_volume" style="stroke-width: 2; stroke-linejoin: round; stroke-linecap: round; fill: none; mix-blend-mode: normal;"/></g></g><g id="line-symbols-svg"><path d="M -1,0 a 1,1 0 1,0 2,0 a 1,1 0 1,0 -2,0 Z" id="moving_average" transform="translate(429.43572986328445, 54.19999999999999) scale(3.5)" style="fill: rgb(136, 136, 136); mix-blend-mode: normal;"/><path d="M -1,0 a 1,1 0 1,0 2,0 a 1,1 0 1,0 -2,0 Z" id="mn_volume" transform="translate(429.43572986328445, 49.80000000000001) scale(3.5)" style="fill: rgb(31, 119, 180); mix-blend-mode: normal;"/></g><g id="free-texts-svg"><g id="bg-svg"><rect width="93" height="38.40625" transform="translate(3.004855031239927, 122.99375)" fill="rgb(255,255,255)" style="fill: rgb(255, 255, 255);"/><rect width="93" height="38.40625" transform="translate(66.34753213884184, 165.4)" fill="rgb(255,255,255)" style="fill: rgb(255, 255, 255);"/><rect width="88" height="38.40625" transform="translate(218.93497860901653, 111.196875)" fill="rgb(255,255,255)" style="fill: rgb(255, 255, 255);"/></g><text transform="translate(91.00485503123993, 137.99375) translate(-83, -12) translate(83, 0)" fill="rgb(106, 106, 106)" style="text-anchor: end; font-family: BentonSans; font-weight: 400; font-size: 12px;"><tspan x="0" dy="12">Stay at Home</tspan><tspan x="0" dy="14.399999999999999">order starts →</tspan></text><text transform="translate(154.34753213884184, 180.4) translate(-83, -12) translate(83, 0)" fill="rgb(106, 106, 106)" style="text-anchor: end; font-family: BentonSans; font-weight: 400; font-size: 12px;"><tspan x="0" dy="12">Snowy →</tspan><tspan x="0" dy="14.399999999999999">Easter Sunday</tspan></text><text transform="translate(262.9349786090165, 126.196875) translate(-39, -12) translate(39, 0)" fill="rgb(106, 106, 106)" style="text-anchor: middle; font-family: BentonSans; font-weight: 400; font-size: 12px;"><tspan x="0" dy="12">Stay at Home</tspan><tspan x="0" dy="14.399999999999999">order ends →</tspan></text></g></g></g><g id="mn_volume-svg" clip-path="url(#rect-mask-mn_volume-1)" transform="translate(0, 141)"><clipPath id="rect-mask-mn_volume-1"><rect x="0" y="0" width="16" height="20"/></clipPath><path d="M1,10 L15,10" stroke="rgb(31,119,180)" id="mn_volume" style="stroke-width: 2; stroke-linejoin: round; stroke-linecap: round; fill: none; mix-blend-mode: normal;"/></g><g id="mn_volume-svg"><text transform="translate(20, 144.609375)" fill="rgb(51,51,51)" style="font-family: BentonSans; font-weight: 400; font-size: 12px;"><tspan x="0" dy="12">Traffic volume change from 2019</tspan></text></g><g id="moving_average-svg" clip-path="url(#rect-mask-moving_average-2)" transform="translate(210, 141)"><clipPath id="rect-mask-moving_average-2"><rect x="0" y="0" width="16" height="20"/></clipPath><path d="M1,10 L15,10" stroke="rgb(136,136,136)" id="moving_average" style="stroke-width: 2; stroke-dasharray: 0.5, 4; stroke-linejoin: round; stroke-linecap: round; fill: none; mix-blend-mode: normal;"/></g><g id="moving_average-svg"><text transform="translate(230, 144.609375)" fill="rgb(51,51,51)" style="font-family: BentonSans; font-weight: 400; font-size: 12px;"><tspan x="0" dy="12">Moving 7-day average</tspan></text></g><g id="moving_average-svg"><text transform="translate(485, 238.984375)" fill="rgb(51,51,51)" style="font-family: BentonSans; font-weight: 400; font-size: 12px;"><tspan x="0" dy="12">−7%</tspan></text></g><g id="mn_volume-svg"><text transform="translate(485, 205)" fill="rgb(51,51,51)" style="font-family: BentonSans; font-weight: 400; font-size: 12px;"><tspan x="0" dy="12">−5%</tspan></text></g></g><g id="after-body-svg"/><g id="above-footer-svg"/><g id="footer-svg"><g id="footer-inner-svg"><g id="footer-main-svg"><g id="text-svg"><text transform="translate(0, 456)" fill="rgb(136,136,136)" style="font-family: BentonSans; font-weight: 400; font-size: 11px;"><tspan x="0" dy="11">Chart:</tspan></text><text transform="translate(34, 456)" fill="rgb(136,136,136)" style="font-family: BentonSans; font-weight: 400; font-size: 11px;"><tspan x="0" dy="11">Jeff Hargarten, Star Tribune</tspan></text></g><g id="text-svg"><text transform="translate(174, 456)" fill="rgb(136,136,136)" style="font-family: BentonSans; font-weight: 400; font-size: 11px;"><tspan x="0" dy="11">​ •</tspan></text></g><g id="text-svg"><text transform="translate(185, 456)" fill="rgb(136,136,136)" style="font-family: BentonSans; font-weight: 400; font-size: 11px;"><tspan x="0" dy="11">Source:</tspan></text><text transform="translate(226, 456)" fill="rgb(136,136,136)" style="font-family: BentonSans; font-weight: 400; font-size: 11px;"><tspan x="0" dy="11">Minnesota Department of Transportation</tspan></text></g></g></g></g><g id="below-footer-svg"/></g></svg>