<svg xmlns:xlink="http://www.w3.org/1999/xlink" xmlns="http://www.w3.org/2000/svg" id="exportSvg" width="522" height="474"><defs/><g><g id="header-svg"><g id="text-svg"><text transform="translate(0, -2)" fill="rgb(51,51,51)" style="font-family: BentonSans; font-weight: 700; font-size: 19px;"><tspan x="0" dy="19">Minnesota's traffic is nearly normal again</tspan></text></g><g id="text-svg"><text transform="translate(0, 31)" fill="rgb(51,51,51)" style="font-family: BentonSans; font-weight: 400; font-size: 15px;"><tspan x="0" dy="15">Daily percent changes in traffic on roadways across the state drastically </tspan></text><text transform="translate(0, 51)" fill="rgb(51,51,51)" style="font-family: BentonSans; font-weight: 400; font-size: 15px;"><tspan x="0" dy="15">declined as responses to the coronavirus pandemic intensified, but have </tspan></text><text transform="translate(0, 71)" fill="rgb(51,51,51)" style="font-family: BentonSans; font-weight: 400; font-size: 15px;"><tspan x="0" dy="15">since crept back toward usual levels.</tspan></text><text transform="translate(0, 110)" fill="rgb(51,51,51)" style="font-family: BentonSans; font-weight: 400; font-size: 12px;"><tspan x="0" dy="12">Weekends</tspan></text></g></g><g id="chart-svg"><g id="group-svg" clip-path="url(#rect-mask-group-0)" transform="translate(0, 141)"><clipPath id="rect-mask-group-0"><rect x="0" y="0" width="522" height="292"/></clipPath><g id="group-svg" transform="translate(46, 34)"><g id="x-svg ticks-svg" transform="translate(0, 245)"><g transform="translate(9.564270189167653, 0)"><text transform="translate(-11.5, -12) translate(11.5, 11)" fill="rgb(133, 133, 133)" style="text-anchor: middle; font-family: BentonSans; font-weight: 400; font-size: 12px;"><tspan x="0" dy="12">Mar</tspan></text></g><g transform="translate(117.13464415211503, 0)"><text transform="translate(-10, -12) translate(10, 11)" fill="rgb(133, 133, 133)" style="text-anchor: middle; font-family: BentonSans; font-weight: 400; font-size: 12px;"><tspan x="0" dy="12">Apr</tspan></text></g><g transform="translate(221.23500605174152, 0)"><text transform="translate(-12.499992370605469, -12) translate(12.499992370605469, 11)" fill="rgb(133, 133, 133)" style="text-anchor: middle; font-family: BentonSans; font-weight: 400; font-size: 12px;"><tspan x="0" dy="12">May</tspan></text></g><g transform="translate(328.8053800146889, 0)"><text transform="translate(-10, -12) translate(10, 11)" fill="rgb(133, 133, 133)" style="text-anchor: middle; font-family: BentonSans; font-weight: 400; font-size: 12px;"><tspan x="0" dy="12">Jun</tspan></text></g><g transform="translate(432.9057419143154, 0)"><text transform="translate(-8, -12) translate(8, 11)" fill="rgb(133, 133, 133)" style="text-anchor: middle; font-family: BentonSans; font-weight: 400; font-size: 12px;"><tspan x="0" dy="12">Jul</tspan></text></g></g><g id="x-svg axis-svg" transform="translate(0, 40)"><line x1="0" x2="439" y1="0" y2="0" style="stroke: rgb(51, 51, 51); stroke-width: 1;"/></g><g id="free-range-svg"><rect width="6.50627" height="240" transform="translate(29.08308804534762, 0)" fill="rgb(87,87,87)" style="opacity: 0.05; fill: rgb(87, 87, 87);"/><rect width="6.50627" height="240" transform="translate(53.3731724885938, 0)" fill="rgb(87,87,87)" style="opacity: 0.05; fill: rgb(87, 87, 87);"/><rect width="6.50627" height="240" transform="translate(77.66325693183998, 0)" fill="rgb(87,87,87)" style="opacity: 0.05; fill: rgb(87, 87, 87);"/><rect width="6.50627" height="240" transform="translate(101.95334137508617, 0)" fill="rgb(87,87,87)" style="opacity: 0.05; fill: rgb(87, 87, 87);"/><rect width="6.50627" height="240" transform="translate(126.24342581833234, 0)" fill="rgb(87,87,87)" style="opacity: 0.05; fill: rgb(87, 87, 87);"/><rect width="6.50627" height="240" transform="translate(150.53351026157853, 0)" fill="rgb(87,87,87)" style="opacity: 0.05; fill: rgb(87, 87, 87);"/><rect width="6.50627" height="240" transform="translate(174.8235947048247, 0)" fill="rgb(87,87,87)" style="opacity: 0.05; fill: rgb(87, 87, 87);"/><rect width="6.50627" height="240" transform="translate(199.1136791480709, 0)" fill="rgb(87,87,87)" style="opacity: 0.05; fill: rgb(87, 87, 87);"/><rect width="6.50627" height="240" transform="translate(223.4037635913171, 0)" fill="rgb(87,87,87)" style="opacity: 0.05; fill: rgb(87, 87, 87);"/><rect width="6.50627" height="240" transform="translate(247.69384803456327, 0)" fill="rgb(87,87,87)" style="opacity: 0.05; fill: rgb(87, 87, 87);"/><rect width="6.50627" height="240" transform="translate(271.98393247780945, 0)" fill="rgb(87,87,87)" style="opacity: 0.05; fill: rgb(87, 87, 87);"/><rect width="6.50627" height="240" transform="translate(296.27401692105565, 0)" fill="rgb(87,87,87)" style="opacity: 0.05; fill: rgb(87, 87, 87);"/><rect width="6.50627" height="240" transform="translate(320.56410136430185, 0)" fill="rgb(87,87,87)" style="opacity: 0.05; fill: rgb(87, 87, 87);"/><rect width="6.50627" height="240" transform="translate(344.854185807548, 0)" fill="rgb(87,87,87)" style="opacity: 0.05; fill: rgb(87, 87, 87);"/><rect width="6.50627" height="240" transform="translate(369.1442702507942, 0)" fill="rgb(87,87,87)" style="opacity: 0.05; fill: rgb(87, 87, 87);"/><rect width="6.50627" height="240" transform="translate(393.4343546940404, 0)" fill="rgb(87,87,87)" style="opacity: 0.05; fill: rgb(87, 87, 87);"/><rect width="6.94002" height="240" transform="translate(417.29068762937146, 0)" fill="rgb(51,51,51)" style="opacity: 0.05; fill: rgb(51, 51, 51);"/></g><g id="y-grid-svg"><g transform="translate(0, 240)"><line x1="0" x2="439" y1="0" y2="0" style="stroke: rgb(238, 238, 238); stroke-width: 1;"/><text transform="translate(-4, 4) translate(-41, -12) translate(41, 0)" fill="rgb(133, 133, 133)" style="text-anchor: end; font-family: BentonSans; font-weight: 400; font-size: 12px;"><tspan x="0" dy="12">−100%</tspan></text></g><g transform="translate(0, 200)"><line x1="0" x2="439" y1="0" y2="0" style="stroke: rgb(238, 238, 238); stroke-width: 1;"/><text transform="translate(-4, 4) translate(-35, -12) translate(35, 0)" fill="rgb(133, 133, 133)" style="text-anchor: end; font-family: BentonSans; font-weight: 400; font-size: 12px;"><tspan x="0" dy="12">−80%</tspan></text></g><g transform="translate(0, 160)"><line x1="0" x2="439" y1="0" y2="0" style="stroke: rgb(238, 238, 238); stroke-width: 1;"/><text transform="translate(-4, 4) translate(-35, -12) translate(35, 0)" fill="rgb(133, 133, 133)" style="text-anchor: end; font-family: BentonSans; font-weight: 400; font-size: 12px;"><tspan x="0" dy="12">−60%</tspan></text></g><g transform="translate(0, 120)"><line x1="0" x2="439" y1="0" y2="0" style="stroke: rgb(238, 238, 238); stroke-width: 1;"/><text transform="translate(-4, 4) translate(-35, -12) translate(35, 0)" fill="rgb(133, 133, 133)" style="text-anchor: end; font-family: BentonSans; font-weight: 400; font-size: 12px;"><tspan x="0" dy="12">−40%</tspan></text></g><g transform="translate(0, 80)"><line x1="0" x2="439" y1="0" y2="0" style="stroke: rgb(238, 238, 238); stroke-width: 1;"/><text transform="translate(-4, 4) translate(-35, -12) translate(35, 0)" fill="rgb(133, 133, 133)" style="text-anchor: end; font-family: BentonSans; font-weight: 400; font-size: 12px;"><tspan x="0" dy="12">−20%</tspan></text></g><g id="tick-svg tick-major-svg" transform="translate(0, 40)"><text transform="translate(-4, 4) translate(-28, -12) translate(28, 0)" fill="rgb(133, 133, 133)" style="text-anchor: end; font-family: BentonSans; font-weight: 400; font-size: 12px;"><tspan x="0" dy="12">+0%</tspan></text></g><g><line x1="0" x2="439" y1="0" y2="0" style="stroke: rgb(238, 238, 238); stroke-width: 1;"/><text transform="translate(-4, 4) translate(-35, -12) translate(35, 0)" fill="rgb(133, 133, 133)" style="text-anchor: end; font-family: BentonSans; font-weight: 400; font-size: 12px;"><tspan x="0" dy="12">+20%</tspan></text></g></g><g id="lines-svg"><g id="moving_average-svg"><path d="M30.38434256909295,34.400000000000006L33.85435463241384,34.599999999999994L37.32436669573472,35.19999999999999L40.7943787590556,35.19999999999999L44.264390822376484,35.400000000000006L47.73440288569737,34.599999999999994L51.20441494901825,36L54.67442701233913,40L58.14443907566001,44.19999999999999L61.614451138980904,46.599999999999994L65.08446320230179,49.80000000000001L68.55447526562267,55.80000000000001L72.02448732894355,64.4L75.49449939226443,72.19999999999999L78.96451145558531,79.4L82.43452351890619,88L85.90453558222708,93L89.37454764554796,98L92.84455970886886,101.4L96.31457177218974,100.6L99.78458383551062,100.80000000000001L103.2545958988315,107.19999999999999L106.72460796215238,111.19999999999999L110.19462002547327,113.79999999999998L113.66463208879414,115.80000000000001L117.13464415211503,117.6L120.60465621543592,121.8L124.07466827875679,128L127.54468034207768,125.2L131.01469240539856,123L134.48470446871946,124.2L137.95471653204032,124.8L141.42472859536122,124.2L144.8947406586821,123L148.36475272200298,119.2L151.83476478532387,117.00000000000001L155.30477684864474,121.8L158.77478891196563,122L162.2448009752865,122L165.7148130386074,121L169.18482510192828,119.6L172.65483716524915,117.8L176.12484922857004,115.80000000000001L179.59486129189094,107.6L183.0648733552118,105.19999999999999L186.5348854185327,102.80000000000001L190.0048974818536,100L193.47490954517448,97.80000000000001L196.94492160849535,96L200.41493367181624,94L203.8849457351371,91L207.354957798458,88L210.8249698617789,87.4L214.29498192509976,86.6L217.76499398842066,83.80000000000001L221.23500605174152,85L224.7050181150624,85.6L228.1750301783833,86.80000000000001L231.64504224170418,88.19999999999999L235.11505430502504,89.19999999999999L238.58506636834596,90.4L242.05507843166683,93.80000000000001L245.5250904949877,92.80000000000001L248.9951025583086,93.6L252.46511462162948,93.6L255.93512668495035,93L259.4051387482712,90.80000000000001L262.87515081159216,91L266.345162874913,90L269.8151749382339,88.6L273.28518700155473,87.80000000000001L276.7551990648757,87.4L280.2252111281965,85.4L283.6952231915174,83.6L287.1652352548383,79.6L290.6352473181592,76.19999999999999L294.1052593814801,73.19999999999999L297.57527144480093,70.6L301.0452835081219,69L304.5152955714427,70.6L307.9853076347636,69.80000000000001L311.4553196980845,69.80000000000001L314.9253317614054,70.80000000000001L318.39534382472624,72.19999999999999L321.8653558880472,71.80000000000001L325.335367951368,69.4L328.8053800146889,68L332.27539207800976,69L335.7454041413307,70L339.21541620465155,69.80000000000001L342.68542826797244,68.6L346.15544033129333,68L349.62545239461423,68.80000000000001L353.09546445793507,68.4L356.56547652125596,68.80000000000001L360.03548858457685,69L363.50550064789775,68L366.97551271121864,67.19999999999999L370.44552477453954,66.19999999999999L373.91553683786043,64L377.38554890118127,62.599999999999994L380.85556096450216,60.19999999999999L384.32557302782305,58.19999999999999L387.79558509114395,58.80000000000001L391.2655971544648,57.80000000000001L394.73560921778574,57.599999999999994L398.2056212811066,57L401.67563334442747,56.400000000000006L405.1456454077483,56.19999999999999L408.61565747106926,56L412.0856695343901,54.19999999999999L415.555681597711,54.599999999999994L419.0256936610319,53.19999999999999L422.4957057243528,53.400000000000006L425.9657177876736,53.599999999999994L429.4357298509945,52.599999999999994" stroke="rgb(136,136,136)" id="moving_average" style="stroke-width: 2; stroke-dasharray: 0.5, 4; stroke-linejoin: round; stroke-linecap: round; fill: none; mix-blend-mode: normal;"/></g><g id="mn_volume-svg"><path d="M9.564270189167653,33.599999999999994L13.034282252488534,30.19999999999999L16.504294315809418,35.599999999999994L19.9743063791303,32.80000000000001L23.444318442451184,42.599999999999994L26.914330505772067,35L30.38434256909295,30.599999999999994L33.85435463241384,34.80000000000001L37.32436669573472,35L40.7943787590556,35.19999999999999L44.264390822376484,35.19999999999999L47.73440288569737,36.599999999999994L51.20441494901825,44L54.67442701233913,59.19999999999999L58.14443907566001,63.80000000000001L61.614451138980904,52.19999999999999L65.08446320230179,57.19999999999999L68.55447526562267,77L72.02448732894355,97.4L75.49449939226443,98.19999999999999L78.96451145558531,109.80000000000001L82.43452351890619,124.8L85.90453558222708,86L89.37454764554796,92.80000000000001L92.84455970886886,100.6L96.31457177218974,92L99.78458383551062,100.19999999999999L103.2545958988315,153.6L106.72460796215238,153L110.19462002547327,105L113.66463208879414,105.80000000000001L117.13464415211503,113.79999999999998L120.60465621543592,121.6L124.07466827875679,143.4L127.54468034207768,134.2L131.01469240539856,136.8L134.48470446871946,114.2L137.95471653204032,110L141.42472859536122,109.6L144.8947406586821,112.4L148.36475272200298,116.80000000000001L151.83476478532387,118.8L155.30477684864474,171L158.77478891196563,114.99999999999999L162.2448009752865,109.80000000000001L165.7148130386074,103L169.18482510192828,102.80000000000001L172.65483716524915,104.6L176.12484922857004,104L179.59486129189094,113.59999999999998L183.0648733552118,99L186.5348854185327,93.19999999999999L190.0048974818536,82.6L193.47490954517448,87.4L196.94492160849535,91.6L200.41493367181624,90.19999999999999L203.8849457351371,93.6L207.354957798458,77.4L210.8249698617789,89.6L214.29498192509976,76.80000000000001L217.76499398842066,67.4L221.23500605174152,99.4L224.7050181150624,95.6L228.1750301783833,102L231.64504224170418,87.19999999999999L235.11505430502504,96.19999999999999L238.58506636834596,85.4L242.05507843166683,90.6L245.5250904949877,92.19999999999999L248.9951025583086,101.4L252.46511462162948,102.80000000000001L255.93512668495035,81.80000000000001L259.4051387482712,80.80000000000001L262.87515081159216,87.4L266.345162874913,84L269.8151749382339,82.6L273.28518700155473,94.80000000000001L276.7551990648757,100.80000000000001L280.2252111281965,67.6L283.6952231915174,68L287.1652352548383,59.400000000000006L290.6352473181592,60L294.1052593814801,61.80000000000001L297.57527144480093,76.6L301.0452835081219,89.4L304.5152955714427,78.4L307.9853076347636,62.400000000000006L311.4553196980845,59.400000000000006L314.9253317614054,67.6L318.39534382472624,71.6L321.8653558880472,73.4L325.335367951368,73L328.8053800146889,68.80000000000001L332.27539207800976,69.6L335.7454041413307,66.19999999999999L339.21541620465155,66L342.68542826797244,63.599999999999994L346.15544033129333,69.4L349.62545239461423,78.19999999999999L353.09546445793507,66L356.56547652125596,71.6L360.03548858457685,67.80000000000001L363.50550064789775,59.599999999999994L366.97551271121864,58.400000000000006L370.44552477453954,61.599999999999994L373.91553683786043,63L377.38554890118127,56.400000000000006L380.85556096450216,54.599999999999994L384.32557302782305,54L387.79558509114395,63.400000000000006L391.2655971544648,52.19999999999999L394.73560921778574,60L398.2056212811066,58L401.67563334442747,52.80000000000001L405.1456454077483,53.400000000000006L408.61565747106926,52.599999999999994L412.0856695343901,49.80000000000001L415.555681597711,55.400000000000006L419.0256936610319,50.19999999999999L422.4957057243528,59.400000000000006L425.9657177876736,55L429.4357298509945,45.19999999999999" stroke="rgb(31,119,180)" id="mn_volume" style="stroke-width: 2; stroke-linejoin: round; stroke-linecap: round; fill: none; mix-blend-mode: normal;"/></g></g><g id="line-symbols-svg"><path d="M -1,0 a 1,1 0 1,0 2,0 a 1,1 0 1,0 -2,0 Z" id="moving_average" transform="translate(429.4357298509945, 52.599999999999994) scale(3.5)" style="fill: rgb(136, 136, 136); mix-blend-mode: normal;"/><path d="M -1,0 a 1,1 0 1,0 2,0 a 1,1 0 1,0 -2,0 Z" id="mn_volume" transform="translate(429.4357298509945, 45.19999999999999) scale(3.5)" style="fill: rgb(31, 119, 180); mix-blend-mode: normal;"/></g><g id="free-texts-svg"><g id="bg-svg"><rect width="93" height="38.40625" transform="translate(7.736236428302917, 126.99375)" fill="rgb(255,255,255)" style="fill: rgb(255, 255, 255);"/><rect width="93" height="38.40625" transform="translate(60.364752722002976, 159.4)" fill="rgb(255,255,255)" style="fill: rgb(255, 255, 255);"/><rect width="88" height="52.8125" transform="translate(236.22521112819652, 105.4)" fill="rgb(255,255,255)" style="fill: rgb(255, 255, 255);"/></g><text transform="translate(95.73623642830292, 141.99375) translate(-83, -12) translate(83, 0)" fill="rgb(106, 106, 106)" style="text-anchor: end; font-family: BentonSans; font-weight: 400; font-size: 12px;"><tspan x="0" dy="12">Stay at Home</tspan><tspan x="0" dy="14.399999999999999">order starts →</tspan></text><text transform="translate(148.36475272200298, 174.4) translate(-83, -12) translate(83, 0)" fill="rgb(106, 106, 106)" style="text-anchor: end; font-family: BentonSans; font-weight: 400; font-size: 12px;"><tspan x="0" dy="12">Snowy →</tspan><tspan x="0" dy="14.399999999999999">Easter Sunday</tspan></text><text transform="translate(280.2252111281965, 120.4) translate(-39, -12) translate(39, 0)" fill="rgb(106, 106, 106)" style="text-anchor: middle; font-family: BentonSans; font-weight: 400; font-size: 12px;"><tspan x="0" dy="12">↑</tspan><tspan x="0" dy="14.399999999999999">Stay at Home</tspan><tspan x="0" dy="14.399999999999999">order ends</tspan></text></g></g></g><g id="mn_volume-svg" clip-path="url(#rect-mask-mn_volume-1)" transform="translate(0, 141)"><clipPath id="rect-mask-mn_volume-1"><rect x="0" y="0" width="16" height="20"/></clipPath><path d="M1,10 L15,10" stroke="rgb(31,119,180)" id="mn_volume" style="stroke-width: 2; stroke-linejoin: round; stroke-linecap: round; fill: none; mix-blend-mode: normal;"/></g><g id="mn_volume-svg"><text transform="translate(20, 144.609375)" fill="rgb(51,51,51)" style="font-family: BentonSans; font-weight: 400; font-size: 12px;"><tspan x="0" dy="12">Traffic volume change from 2019</tspan></text></g><g id="moving_average-svg" clip-path="url(#rect-mask-moving_average-2)" transform="translate(210, 141)"><clipPath id="rect-mask-moving_average-2"><rect x="0" y="0" width="16" height="20"/></clipPath><path d="M1,10 L15,10" stroke="rgb(136,136,136)" id="moving_average" style="stroke-width: 2; stroke-dasharray: 0.5, 4; stroke-linejoin: round; stroke-linecap: round; fill: none; mix-blend-mode: normal;"/></g><g id="moving_average-svg"><text transform="translate(230, 144.609375)" fill="rgb(51,51,51)" style="font-family: BentonSans; font-weight: 400; font-size: 12px;"><tspan x="0" dy="12">Moving 7-day average</tspan></text></g><g id="moving_average-svg"><text transform="translate(485, 235.890625)" fill="rgb(51,51,51)" style="font-family: BentonSans; font-weight: 400; font-size: 12px;"><tspan x="0" dy="12">−6%</tspan></text></g><g id="mn_volume-svg"><text transform="translate(485, 201.890625)" fill="rgb(51,51,51)" style="font-family: BentonSans; font-weight: 400; font-size: 12px;"><tspan x="0" dy="12">−3%</tspan></text></g></g><g id="after-body-svg"/><g id="above-footer-svg"/><g id="footer-svg"><g id="footer-inner-svg"><g id="footer-main-svg"><g id="text-svg"><text transform="translate(0, 456)" fill="rgb(136,136,136)" style="font-family: BentonSans; font-weight: 400; font-size: 11px;"><tspan x="0" dy="11">Chart:</tspan></text><text transform="translate(34, 456)" fill="rgb(136,136,136)" style="font-family: BentonSans; font-weight: 400; font-size: 11px;"><tspan x="0" dy="11">Jeff Hargarten, Star Tribune</tspan></text></g><g id="text-svg"><text transform="translate(174, 456)" fill="rgb(136,136,136)" style="font-family: BentonSans; font-weight: 400; font-size: 11px;"><tspan x="0" dy="11">​ •</tspan></text></g><g id="text-svg"><text transform="translate(185, 456)" fill="rgb(136,136,136)" style="font-family: BentonSans; font-weight: 400; font-size: 11px;"><tspan x="0" dy="11">Source:</tspan></text><text transform="translate(226, 456)" fill="rgb(136,136,136)" style="font-family: BentonSans; font-weight: 400; font-size: 11px;"><tspan x="0" dy="11">Minnesota Department of Transportation</tspan></text></g></g></g></g><g id="below-footer-svg"/></g></svg>