<svg xmlns:xlink="http://www.w3.org/1999/xlink" xmlns="http://www.w3.org/2000/svg" id="exportSvg" width="522" height="474"><defs/><g><g id="header-svg"><g id="text-svg"><text transform="translate(0, -2)" fill="rgb(51,51,51)" style="font-family: BentonSans; font-weight: 700; font-size: 19px;"><tspan x="0" dy="19">Minnesota's traffic is nearly normal again</tspan></text></g><g id="text-svg"><text transform="translate(0, 31)" fill="rgb(51,51,51)" style="font-family: BentonSans; font-weight: 400; font-size: 15px;"><tspan x="0" dy="15">Daily percent changes in traffic on roadways across the state drastically </tspan></text><text transform="translate(0, 51)" fill="rgb(51,51,51)" style="font-family: BentonSans; font-weight: 400; font-size: 15px;"><tspan x="0" dy="15">declined as responses to the coronavirus pandemic intensified, but have </tspan></text><text transform="translate(0, 71)" fill="rgb(51,51,51)" style="font-family: BentonSans; font-weight: 400; font-size: 15px;"><tspan x="0" dy="15">since crept back toward usual levels.</tspan></text><text transform="translate(0, 110)" fill="rgb(51,51,51)" style="font-family: BentonSans; font-weight: 400; font-size: 12px;"><tspan x="0" dy="12">Weekends</tspan></text></g></g><g id="chart-svg"><g id="group-svg" clip-path="url(#rect-mask-group-0)" transform="translate(0, 141)"><clipPath id="rect-mask-group-0"><rect x="0" y="0" width="522" height="292"/></clipPath><g id="group-svg" transform="translate(46, 34)"><g id="x-svg ticks-svg" transform="translate(0, 245)"><g transform="translate(9.564270194382454, 0)"><text transform="translate(-11.5, -12) translate(11.5, 11)" fill="rgb(133, 133, 133)" style="text-anchor: middle; font-family: BentonSans; font-weight: 400; font-size: 12px;"><tspan x="0" dy="12">Mar</tspan></text></g><g transform="translate(125.77869206307318, 0)"><text transform="translate(-10, -12) translate(10, 11)" fill="rgb(133, 133, 133)" style="text-anchor: middle; font-family: BentonSans; font-weight: 400; font-size: 12px;"><tspan x="0" dy="12">Apr</tspan></text></g><g transform="translate(238.24426161341904, 0)"><text transform="translate(-12.5, -12) translate(12.5, 11)" fill="rgb(133, 133, 133)" style="text-anchor: middle; font-family: BentonSans; font-weight: 400; font-size: 12px;"><tspan x="0" dy="12">May</tspan></text></g><g transform="translate(354.4586834821098, 0)"><text transform="translate(-10, -12) translate(10, 11)" fill="rgb(133, 133, 133)" style="text-anchor: middle; font-family: BentonSans; font-weight: 400; font-size: 12px;"><tspan x="0" dy="12">Jun</tspan></text></g></g><g id="x-svg axis-svg" transform="translate(0, 40)"><line x1="0" x2="439" y1="0" y2="0" style="stroke: rgb(51, 51, 51); stroke-width: 1;"/></g><g id="free-range-svg"><rect width="7.0291" height="240" transform="translate(30.651564485072306, 0)" fill="rgb(87,87,87)" style="opacity: 0.05; fill: rgb(87, 87, 87);"/><rect width="7.0291" height="240" transform="translate(56.89353071348635, 0)" fill="rgb(87,87,87)" style="opacity: 0.05; fill: rgb(87, 87, 87);"/><rect width="7.0291" height="240" transform="translate(83.13549694190039, 0)" fill="rgb(87,87,87)" style="opacity: 0.05; fill: rgb(87, 87, 87);"/><rect width="7.0291" height="240" transform="translate(109.37746317031441, 0)" fill="rgb(87,87,87)" style="opacity: 0.05; fill: rgb(87, 87, 87);"/><rect width="7.0291" height="240" transform="translate(135.61942939872844, 0)" fill="rgb(87,87,87)" style="opacity: 0.05; fill: rgb(87, 87, 87);"/><rect width="7.0291" height="240" transform="translate(161.86139562714249, 0)" fill="rgb(87,87,87)" style="opacity: 0.05; fill: rgb(87, 87, 87);"/><rect width="7.0291" height="240" transform="translate(188.10336185555653, 0)" fill="rgb(87,87,87)" style="opacity: 0.05; fill: rgb(87, 87, 87);"/><rect width="7.0291" height="240" transform="translate(214.34532808397057, 0)" fill="rgb(87,87,87)" style="opacity: 0.05; fill: rgb(87, 87, 87);"/><rect width="7.0291" height="240" transform="translate(240.5872943123846, 0)" fill="rgb(87,87,87)" style="opacity: 0.05; fill: rgb(87, 87, 87);"/><rect width="7.0291" height="240" transform="translate(266.82926054079866, 0)" fill="rgb(87,87,87)" style="opacity: 0.05; fill: rgb(87, 87, 87);"/><rect width="7.4977" height="240" transform="translate(293.07122676921267, 0)" fill="rgb(51,51,51)" style="opacity: 0.05; fill: rgb(51, 51, 51);"/><rect width="7.4977" height="240" transform="translate(319.31319299762674, 0)" fill="rgb(51,51,51)" style="opacity: 0.05; fill: rgb(51, 51, 51);"/><rect width="7.4977" height="240" transform="translate(345.55515922604076, 0)" fill="rgb(51,51,51)" style="opacity: 0.05; fill: rgb(51, 51, 51);"/><rect width="7.4977" height="240" transform="translate(371.7971254544548, 0)" fill="rgb(51,51,51)" style="opacity: 0.05; fill: rgb(51, 51, 51);"/><rect width="7.4977" height="240" transform="translate(398.0390916828688, 0)" fill="rgb(51,51,51)" style="opacity: 0.05; fill: rgb(51, 51, 51);"/><rect width="7.4977" height="240" transform="translate(424.28105791128286, 0)" fill="rgb(51,51,51)" style="opacity: 0.05; fill: rgb(51, 51, 51);"/></g><g id="y-grid-svg"><g transform="translate(0, 240)"><line x1="0" x2="439" y1="0" y2="0" style="stroke: rgb(238, 238, 238); stroke-width: 1;"/><text transform="translate(-4, 4) translate(-41, -12) translate(41, 0)" fill="rgb(133, 133, 133)" style="text-anchor: end; font-family: BentonSans; font-weight: 400; font-size: 12px;"><tspan x="0" dy="12">−100%</tspan></text></g><g transform="translate(0, 200)"><line x1="0" x2="439" y1="0" y2="0" style="stroke: rgb(238, 238, 238); stroke-width: 1;"/><text transform="translate(-4, 4) translate(-35, -12) translate(35, 0)" fill="rgb(133, 133, 133)" style="text-anchor: end; font-family: BentonSans; font-weight: 400; font-size: 12px;"><tspan x="0" dy="12">−80%</tspan></text></g><g transform="translate(0, 160)"><line x1="0" x2="439" y1="0" y2="0" style="stroke: rgb(238, 238, 238); stroke-width: 1;"/><text transform="translate(-4, 4) translate(-35, -12) translate(35, 0)" fill="rgb(133, 133, 133)" style="text-anchor: end; font-family: BentonSans; font-weight: 400; font-size: 12px;"><tspan x="0" dy="12">−60%</tspan></text></g><g transform="translate(0, 120)"><line x1="0" x2="439" y1="0" y2="0" style="stroke: rgb(238, 238, 238); stroke-width: 1;"/><text transform="translate(-4, 4) translate(-35, -12) translate(35, 0)" fill="rgb(133, 133, 133)" style="text-anchor: end; font-family: BentonSans; font-weight: 400; font-size: 12px;"><tspan x="0" dy="12">−40%</tspan></text></g><g transform="translate(0, 80)"><line x1="0" x2="439" y1="0" y2="0" style="stroke: rgb(238, 238, 238); stroke-width: 1;"/><text transform="translate(-4, 4) translate(-35, -12) translate(35, 0)" fill="rgb(133, 133, 133)" style="text-anchor: end; font-family: BentonSans; font-weight: 400; font-size: 12px;"><tspan x="0" dy="12">−20%</tspan></text></g><g id="tick-svg tick-major-svg" transform="translate(0, 40)"><text transform="translate(-4, 4) translate(-28, -12) translate(28, 0)" fill="rgb(133, 133, 133)" style="text-anchor: end; font-family: BentonSans; font-weight: 400; font-size: 12px;"><tspan x="0" dy="12">+0%</tspan></text></g><g><line x1="0" x2="439" y1="0" y2="0" style="stroke: rgb(238, 238, 238); stroke-width: 1;"/><text transform="translate(-4, 4) translate(-35, -12) translate(35, 0)" fill="rgb(133, 133, 133)" style="text-anchor: end; font-family: BentonSans; font-weight: 400; font-size: 12px;"><tspan x="0" dy="12">+20%</tspan></text></g></g><g id="lines-svg"><g id="moving_average-svg"><path d="M32.05738410445163,34.400000000000006L35.80623642279649,34.599999999999994L39.555088741141354,35.19999999999999L43.30394105948621,35.19999999999999L47.05279337783107,35.400000000000006L50.80164569617594,34.599999999999994L54.550498014520805,36L58.299350332865664,40L62.048202651210524,44.19999999999999L65.79705496955539,46.599999999999994L69.54590728790025,49.80000000000001L73.29475960624512,55.80000000000001L77.04361192458998,64.4L80.79246424293484,72.19999999999999L84.5413165612797,79.4L88.29016887962456,88L92.03902119796942,93L95.78787351631429,98L99.53672583465915,101.4L103.28557815300401,100.6L107.03443047134888,100.80000000000001L110.78328278969373,107.19999999999999L114.53213510803859,111.19999999999999L118.28098742638346,113.79999999999998L122.02983974472832,115.80000000000001L125.77869206307318,117.6L129.52754438141804,121.8L133.27639669976293,128L137.0252490181078,125.2L140.77410133645265,123L144.5229536547975,124.2L148.27180597314236,124.8L152.02065829148722,124.2L155.76951060983208,123L159.51836292817697,119.2L163.2672152465218,117.00000000000001L167.01606756486666,121.8L170.76491988321152,122L174.51377220155638,122L178.26262451990127,121L182.01147683824612,119.6L185.76032915659098,117.8L189.50918147493584,115.80000000000001L193.2580337932807,107.6L197.00688611162556,105.19999999999999L200.75573842997045,102.80000000000001L204.5045907483153,100L208.25344306666017,97.80000000000001L212.00229538500503,96L215.7511477033499,94L219.50000002169475,91L223.2488523400396,88L226.9977046583845,87.4L230.74655697672932,86.6L234.4954092950742,83.80000000000001L238.24426161341904,85L241.99311393176393,85.6L245.7419662501088,86.80000000000001L249.49081856845368,88.19999999999999L253.2396708867985,89.19999999999999L256.9885232051434,90.4L260.73737552348825,93.80000000000001L264.48622784183306,92.80000000000001L268.235080160178,93.6L271.9839324785228,93.6L275.7327847968677,93L279.48163711521255,90.80000000000001L283.2304894335574,91L286.97934175190227,90L290.7281940702471,88.6L294.477046388592,87.80000000000001L298.22589870693685,87.4L301.9747510252817,85.4L305.7236033436266,83.6L309.4724556619714,79.6L313.22130798031634,76.19999999999999L316.97016029866114,73.19999999999999L320.71901261700606,70.6L324.4678649353509,69L328.2167172536957,70.6L331.96556957204064,69.80000000000001L335.71442189038544,69.80000000000001L339.46327420873035,70.80000000000001L343.2121265270752,72.19999999999999L346.9609788454201,71.80000000000001L350.70983116376493,69.4L354.4586834821098,68L358.20753580045465,69L361.9563881187995,70L365.70524043714437,69.80000000000001L369.4540927554893,68.6L373.2029450738341,68L376.951797392179,68.80000000000001L380.7006497105238,68.4L384.4495020288687,68.80000000000001L388.1983543472136,69L391.9472066655584,68L395.6960589839033,67.19999999999999L399.4449113022481,66.19999999999999L403.193763620593,64L406.9426159389379,62.599999999999994L410.69146825728274,60.19999999999999L414.4403205756276,58.19999999999999L418.18917289397245,58.599999999999994L421.9380252123173,57.80000000000001L425.6868775306622,57.400000000000006L429.43572984900703,56.599999999999994" stroke="rgb(136,136,136)" id="moving_average" style="stroke-width: 2; stroke-dasharray: 0.5, 4; stroke-linejoin: round; stroke-linecap: round; fill: none; mix-blend-mode: normal;"/></g><g id="mn_volume-svg"><path d="M9.564270194382454,33.599999999999994L13.313122512727315,30.19999999999999L17.061974831072177,35.599999999999994L20.81082714941704,32.80000000000001L24.559679467761903,42.599999999999994L28.308531786106762,35L32.05738410445163,30.599999999999994L35.80623642279649,34.80000000000001L39.555088741141354,35L43.30394105948621,35.19999999999999L47.05279337783107,35.19999999999999L50.80164569617594,36.599999999999994L54.550498014520805,44L58.299350332865664,59.19999999999999L62.048202651210524,63.80000000000001L65.79705496955539,52.19999999999999L69.54590728790025,57.19999999999999L73.29475960624512,77L77.04361192458998,97.4L80.79246424293484,98.19999999999999L84.5413165612797,109.80000000000001L88.29016887962456,124.8L92.03902119796942,86L95.78787351631429,92.80000000000001L99.53672583465915,100.6L103.28557815300401,92L107.03443047134888,100.19999999999999L110.78328278969373,153.6L114.53213510803859,153L118.28098742638346,105L122.02983974472832,105.80000000000001L125.77869206307318,113.79999999999998L129.52754438141804,121.6L133.27639669976293,143.4L137.0252490181078,134.2L140.77410133645265,136.8L144.5229536547975,114.2L148.27180597314236,110L152.02065829148722,109.6L155.76951060983208,112.4L159.51836292817697,116.80000000000001L163.2672152465218,118.8L167.01606756486666,171L170.76491988321152,114.99999999999999L174.51377220155638,109.80000000000001L178.26262451990127,103L182.01147683824612,102.80000000000001L185.76032915659098,104.6L189.50918147493584,104L193.2580337932807,113.59999999999998L197.00688611162556,99L200.75573842997045,93.19999999999999L204.5045907483153,82.6L208.25344306666017,87.4L212.00229538500503,91.6L215.7511477033499,90.19999999999999L219.50000002169475,93.6L223.2488523400396,77.4L226.9977046583845,89.6L230.74655697672932,76.80000000000001L234.4954092950742,67.4L238.24426161341904,99.4L241.99311393176393,95.6L245.7419662501088,102L249.49081856845368,87.19999999999999L253.2396708867985,96.19999999999999L256.9885232051434,85.4L260.73737552348825,90.6L264.48622784183306,92.19999999999999L268.235080160178,101.4L271.9839324785228,102.80000000000001L275.7327847968677,81.80000000000001L279.48163711521255,80.80000000000001L283.2304894335574,87.4L286.97934175190227,84L290.7281940702471,82.6L294.477046388592,94.80000000000001L298.22589870693685,100.80000000000001L301.9747510252817,67.6L305.7236033436266,68L309.4724556619714,59.400000000000006L313.22130798031634,60L316.97016029866114,61.80000000000001L320.71901261700606,76.6L324.4678649353509,89.4L328.2167172536957,78.4L331.96556957204064,62.400000000000006L335.71442189038544,59.400000000000006L339.46327420873035,67.6L343.2121265270752,71.6L346.9609788454201,73.4L350.70983116376493,73L354.4586834821098,68.80000000000001L358.20753580045465,69.6L361.9563881187995,66.19999999999999L365.70524043714437,66L369.4540927554893,63.599999999999994L373.2029450738341,69.4L376.951797392179,78.19999999999999L380.7006497105238,66L384.4495020288687,71.6L388.1983543472136,67.80000000000001L391.9472066655584,59.599999999999994L395.6960589839033,58.400000000000006L399.4449113022481,61.599999999999994L403.193763620593,63L406.9426159389379,56.400000000000006L410.69146825728274,54.599999999999994L414.4403205756276,54L418.18917289397245,62.80000000000001L421.9380252123173,51.80000000000001L425.6868775306622,59.400000000000006L429.43572984900703,57" stroke="rgb(31,119,180)" id="mn_volume" style="stroke-width: 2; stroke-linejoin: round; stroke-linecap: round; fill: none; mix-blend-mode: normal;"/></g></g><g id="line-symbols-svg"><path d="M -1,0 a 1,1 0 1,0 2,0 a 1,1 0 1,0 -2,0 Z" id="moving_average" transform="translate(429.43572984900703, 56.599999999999994) scale(3.5)" style="fill: rgb(136, 136, 136); mix-blend-mode: normal;"/><path d="M -1,0 a 1,1 0 1,0 2,0 a 1,1 0 1,0 -2,0 Z" id="mn_volume" transform="translate(429.43572984900703, 57) scale(3.5)" style="fill: rgb(31, 119, 180); mix-blend-mode: normal;"/></g><g id="free-texts-svg"><g id="bg-svg"><rect width="93" height="38.40625" transform="translate(5.913439727747317, 122.99375)" fill="rgb(255,255,255)" style="fill: rgb(255, 255, 255);"/><rect width="93" height="38.40625" transform="translate(71.51836292817697, 165.4)" fill="rgb(255,255,255)" style="fill: rgb(255, 255, 255);"/><rect width="88" height="38.40625" transform="translate(227.98393247852277, 111.196875)" fill="rgb(255,255,255)" style="fill: rgb(255, 255, 255);"/></g><text transform="translate(93.91344735714185, 137.99375) translate(-83.00000762939453, -12) translate(83.00000762939453, 0)" fill="rgb(106, 106, 106)" style="text-anchor: end; font-family: BentonSans; font-weight: 400; font-size: 12px;"><tspan x="0" dy="12">Stay at Home</tspan><tspan x="0" dy="14.399999999999999">order starts →</tspan></text><text transform="translate(159.51836292817697, 180.4) translate(-83, -12) translate(83, 0)" fill="rgb(106, 106, 106)" style="text-anchor: end; font-family: BentonSans; font-weight: 400; font-size: 12px;"><tspan x="0" dy="12">Snowy →</tspan><tspan x="0" dy="14.399999999999999">Easter Sunday</tspan></text><text transform="translate(271.9839324785228, 126.196875) translate(-39, -12) translate(39, 0)" fill="rgb(106, 106, 106)" style="text-anchor: middle; font-family: BentonSans; font-weight: 400; font-size: 12px;"><tspan x="0" dy="12">Stay at Home</tspan><tspan x="0" dy="14.399999999999999">order ends →</tspan></text></g></g></g><g id="mn_volume-svg" clip-path="url(#rect-mask-mn_volume-1)" transform="translate(0, 141)"><clipPath id="rect-mask-mn_volume-1"><rect x="0" y="0" width="16" height="20"/></clipPath><path d="M1,10 L15,10" stroke="rgb(31,119,180)" id="mn_volume" style="stroke-width: 2; stroke-linejoin: round; stroke-linecap: round; fill: none; mix-blend-mode: normal;"/></g><g id="mn_volume-svg"><text transform="translate(20, 144.609375)" fill="rgb(51,51,51)" style="font-family: BentonSans; font-weight: 400; font-size: 12px;"><tspan x="0" dy="12">Traffic volume change from 2019</tspan></text></g><g id="moving_average-svg" clip-path="url(#rect-mask-moving_average-2)" transform="translate(210, 141)"><clipPath id="rect-mask-moving_average-2"><rect x="0" y="0" width="16" height="20"/></clipPath><path d="M1,10 L15,10" stroke="rgb(136,136,136)" id="moving_average" style="stroke-width: 2; stroke-dasharray: 0.5, 4; stroke-linejoin: round; stroke-linecap: round; fill: none; mix-blend-mode: normal;"/></g><g id="moving_average-svg"><text transform="translate(230, 144.609375)" fill="rgb(51,51,51)" style="font-family: BentonSans; font-weight: 400; font-size: 12px;"><tspan x="0" dy="12">Moving 7-day average</tspan></text></g><g id="moving_average-svg"><text transform="translate(485, 209.796875)" fill="rgb(51,51,51)" style="font-family: BentonSans; font-weight: 400; font-size: 12px;"><tspan x="0" dy="12">−8%</tspan></text></g><g id="mn_volume-svg"><text transform="translate(485, 243.796875)" fill="rgb(51,51,51)" style="font-family: BentonSans; font-weight: 400; font-size: 12px;"><tspan x="0" dy="12">−8%</tspan></text></g></g><g id="after-body-svg"/><g id="above-footer-svg"/><g id="footer-svg"><g id="footer-inner-svg"><g id="footer-main-svg"><g id="text-svg"><text transform="translate(0, 456)" fill="rgb(136,136,136)" style="font-family: BentonSans; font-weight: 400; font-size: 11px;"><tspan x="0" dy="11">Chart:</tspan></text><text transform="translate(34, 456)" fill="rgb(136,136,136)" style="font-family: BentonSans; font-weight: 400; font-size: 11px;"><tspan x="0" dy="11">Jeff Hargarten, Star Tribune</tspan></text></g><g id="text-svg"><text transform="translate(174, 456)" fill="rgb(136,136,136)" style="font-family: BentonSans; font-weight: 400; font-size: 11px;"><tspan x="0" dy="11">​ •</tspan></text></g><g id="text-svg"><text transform="translate(185, 456)" fill="rgb(136,136,136)" style="font-family: BentonSans; font-weight: 400; font-size: 11px;"><tspan x="0" dy="11">Source:</tspan></text><text transform="translate(226, 456)" fill="rgb(136,136,136)" style="font-family: BentonSans; font-weight: 400; font-size: 11px;"><tspan x="0" dy="11">Minnesota Department of Transportation</tspan></text></g></g></g></g><g id="below-footer-svg"/></g></svg>