<svg xmlns:xlink="http://www.w3.org/1999/xlink" xmlns="http://www.w3.org/2000/svg" id="exportSvg" width="603" height="594"><defs/><g><g id="header-svg"><g id="text-svg"><text transform="translate(0, -2)" fill="rgb(51,51,51)" style="font-family: BentonSans; font-weight: 700; font-size: 19px;"><tspan x="0" dy="19">Minnesotans are more active, but in different ways</tspan></text></g><g id="text-svg"><text transform="translate(0, 31)" fill="rgb(51,51,51)" style="font-family: BentonSans; font-weight: 400; font-size: 15px;"><tspan x="0" dy="15">Location tracking data aggregated by Google shows that while Minnesotans are </tspan></text><text transform="translate(0, 51)" fill="rgb(51,51,51)" style="font-family: BentonSans; font-weight: 400; font-size: 15px;"><tspan x="0" dy="15">frequenting work, transit and shopping destinations less, they're outdoors more.</tspan></text></g></g><g id="chart-svg"><g id="group-svg" clip-path="url(#rect-mask-group-0)" transform="translate(0, 104)"><clipPath id="rect-mask-group-0"><rect x="0" y="0" width="603" height="449"/></clipPath><g id="group-svg" transform="translate(48, 10)"><g id="x-svg ticks-svg" transform="translate(0, 426)"><g transform="translate(9.600798450439566, 0)"><text transform="translate(-11.5, -12) translate(11.5, 11)" fill="rgb(133, 133, 133)" style="text-anchor: middle; font-family: BentonSans; font-weight: 400; font-size: 12px;"><tspan x="0" dy="12">Mar</tspan></text></g><g transform="translate(51.58247146576093, 0)"><text transform="translate(-10, -12) translate(10, 11)" fill="rgb(133, 133, 133)" style="text-anchor: middle; font-family: BentonSans; font-weight: 400; font-size: 12px;"><tspan x="0" dy="12">Apr</tspan></text></g><g transform="translate(93.5641444810823, 0)"><text transform="translate(-6, -12) translate(6, 11)" fill="rgb(133, 133, 133)" style="text-anchor: middle; font-family: BentonSans; font-weight: 400; font-size: 12px;"><tspan x="0" dy="12">12</tspan></text></g><g transform="translate(135.54581749640366, 0)"><text transform="translate(-6, -12) translate(6, 11)" fill="rgb(133, 133, 133)" style="text-anchor: middle; font-family: BentonSans; font-weight: 400; font-size: 12px;"><tspan x="0" dy="12">19</tspan></text></g><g transform="translate(177.527490511725, 0)"><text transform="translate(-7, -12) translate(7, 11)" fill="rgb(133, 133, 133)" style="text-anchor: middle; font-family: BentonSans; font-weight: 400; font-size: 12px;"><tspan x="0" dy="12">26</tspan></text></g><g transform="translate(219.5091635270464, 0)"><text transform="translate(-12.499992370605469, -12) translate(12.499992370605469, 11)" fill="rgb(133, 133, 133)" style="text-anchor: middle; font-family: BentonSans; font-weight: 400; font-size: 12px;"><tspan x="0" dy="12">May</tspan></text></g><g transform="translate(261.49083654236773, 0)"><text transform="translate(-6.5, -12) translate(6.5, 11)" fill="rgb(133, 133, 133)" style="text-anchor: middle; font-family: BentonSans; font-weight: 400; font-size: 12px;"><tspan x="0" dy="12">10</tspan></text></g><g transform="translate(303.47250955768914, 0)"><text transform="translate(-6, -12) translate(6, 11)" fill="rgb(133, 133, 133)" style="text-anchor: middle; font-family: BentonSans; font-weight: 400; font-size: 12px;"><tspan x="0" dy="12">17</tspan></text></g><g transform="translate(345.4541825730105, 0)"><text transform="translate(-7.5, -12) translate(7.5, 11)" fill="rgb(133, 133, 133)" style="text-anchor: middle; font-family: BentonSans; font-weight: 400; font-size: 12px;"><tspan x="0" dy="12">24</tspan></text></g><g transform="translate(387.43585558833183, 0)"><text transform="translate(-6, -12) translate(6, 11)" fill="rgb(133, 133, 133)" style="text-anchor: middle; font-family: BentonSans; font-weight: 400; font-size: 12px;"><tspan x="0" dy="12">31</tspan></text></g><g transform="translate(429.4175286036532, 0)"><text transform="translate(-10, -12) translate(10, 11)" fill="rgb(133, 133, 133)" style="text-anchor: middle; font-family: BentonSans; font-weight: 400; font-size: 12px;"><tspan x="0" dy="12">Jun</tspan></text></g><g transform="translate(471.3992016189746, 0)"><text transform="translate(-6.5, -12) translate(6.5, 11)" fill="rgb(133, 133, 133)" style="text-anchor: middle; font-family: BentonSans; font-weight: 400; font-size: 12px;"><tspan x="0" dy="12">14</tspan></text></g></g><g id="x-svg axis-svg" transform="translate(0, 324.7714285714286)"><line x1="0" x2="481" y1="0" y2="0" style="stroke: rgb(51, 51, 51); stroke-width: 1;"/></g><g id="y-grid-svg"><g transform="translate(0, 414.98571428571427)"><line x1="0" x2="481" y1="0" y2="0" style="stroke: rgb(238, 238, 238); stroke-width: 1;"/><text transform="translate(-4, 4) translate(-35, -12) translate(35, 0)" fill="rgb(133, 133, 133)" style="text-anchor: end; font-family: BentonSans; font-weight: 400; font-size: 12px;"><tspan x="0" dy="12">−60%</tspan></text></g><g transform="translate(0, 384.9142857142857)"><line x1="0" x2="481" y1="0" y2="0" style="stroke: rgb(238, 238, 238); stroke-width: 1;"/><text transform="translate(-4, 4) translate(-35, -12) translate(35, 0)" fill="rgb(133, 133, 133)" style="text-anchor: end; font-family: BentonSans; font-weight: 400; font-size: 12px;"><tspan x="0" dy="12">−40%</tspan></text></g><g transform="translate(0, 354.84285714285716)"><line x1="0" x2="481" y1="0" y2="0" style="stroke: rgb(238, 238, 238); stroke-width: 1;"/><text transform="translate(-4, 4) translate(-35, -12) translate(35, 0)" fill="rgb(133, 133, 133)" style="text-anchor: end; font-family: BentonSans; font-weight: 400; font-size: 12px;"><tspan x="0" dy="12">−20%</tspan></text></g><g id="tick-svg tick-major-svg" transform="translate(0, 324.7714285714286)"><text transform="translate(-4, 4) translate(-28, -12) translate(28, 0)" fill="rgb(133, 133, 133)" style="text-anchor: end; font-family: BentonSans; font-weight: 400; font-size: 12px;"><tspan x="0" dy="12">+0%</tspan></text></g><g transform="translate(0, 294.7)"><line x1="0" x2="481" y1="0" y2="0" style="stroke: rgb(238, 238, 238); stroke-width: 1;"/><text transform="translate(-4, 4) translate(-35, -12) translate(35, 0)" fill="rgb(133, 133, 133)" style="text-anchor: end; font-family: BentonSans; font-weight: 400; font-size: 12px;"><tspan x="0" dy="12">+20%</tspan></text></g><g transform="translate(0, 264.62857142857143)"><line x1="0" x2="481" y1="0" y2="0" style="stroke: rgb(238, 238, 238); stroke-width: 1;"/><text transform="translate(-4, 4) translate(-35, -12) translate(35, 0)" fill="rgb(133, 133, 133)" style="text-anchor: end; font-family: BentonSans; font-weight: 400; font-size: 12px;"><tspan x="0" dy="12">+40%</tspan></text></g><g transform="translate(0, 234.55714285714288)"><line x1="0" x2="481" y1="0" y2="0" style="stroke: rgb(238, 238, 238); stroke-width: 1;"/><text transform="translate(-4, 4) translate(-35, -12) translate(35, 0)" fill="rgb(133, 133, 133)" style="text-anchor: end; font-family: BentonSans; font-weight: 400; font-size: 12px;"><tspan x="0" dy="12">+60%</tspan></text></g><g transform="translate(0, 204.4857142857143)"><line x1="0" x2="481" y1="0" y2="0" style="stroke: rgb(238, 238, 238); stroke-width: 1;"/><text transform="translate(-4, 4) translate(-35, -12) translate(35, 0)" fill="rgb(133, 133, 133)" style="text-anchor: end; font-family: BentonSans; font-weight: 400; font-size: 12px;"><tspan x="0" dy="12">+80%</tspan></text></g><g transform="translate(0, 174.4142857142857)"><line x1="0" x2="481" y1="0" y2="0" style="stroke: rgb(238, 238, 238); stroke-width: 1;"/><text transform="translate(-4, 4) translate(-41, -12) translate(41, 0)" fill="rgb(133, 133, 133)" style="text-anchor: end; font-family: BentonSans; font-weight: 400; font-size: 12px;"><tspan x="0" dy="12">+100%</tspan></text></g><g transform="translate(0, 144.34285714285716)"><line x1="0" x2="481" y1="0" y2="0" style="stroke: rgb(238, 238, 238); stroke-width: 1;"/><text transform="translate(-4, 4) translate(-40, -12) translate(40, 0)" fill="rgb(133, 133, 133)" style="text-anchor: end; font-family: BentonSans; font-weight: 400; font-size: 12px;"><tspan x="0" dy="12">+120%</tspan></text></g><g transform="translate(0, 114.2714285714286)"><line x1="0" x2="481" y1="0" y2="0" style="stroke: rgb(238, 238, 238); stroke-width: 1;"/><text transform="translate(-4, 4) translate(-40, -12) translate(40, 0)" fill="rgb(133, 133, 133)" style="text-anchor: end; font-family: BentonSans; font-weight: 400; font-size: 12px;"><tspan x="0" dy="12">+140%</tspan></text></g><g transform="translate(0, 84.19999999999999)"><line x1="0" x2="481" y1="0" y2="0" style="stroke: rgb(238, 238, 238); stroke-width: 1;"/><text transform="translate(-4, 4) translate(-40, -12) translate(40, 0)" fill="rgb(133, 133, 133)" style="text-anchor: end; font-family: BentonSans; font-weight: 400; font-size: 12px;"><tspan x="0" dy="12">+160%</tspan></text></g><g transform="translate(0, 54.12857142857143)"><line x1="0" x2="481" y1="0" y2="0" style="stroke: rgb(238, 238, 238); stroke-width: 1;"/><text transform="translate(-4, 4) translate(-40, -12) translate(40, 0)" fill="rgb(133, 133, 133)" style="text-anchor: end; font-family: BentonSans; font-weight: 400; font-size: 12px;"><tspan x="0" dy="12">+180%</tspan></text></g><g transform="translate(0, 24.05714285714288)"><line x1="0" x2="481" y1="0" y2="0" style="stroke: rgb(238, 238, 238); stroke-width: 1;"/><text transform="translate(-4, 4) translate(-43, -12) translate(43, 0)" fill="rgb(133, 133, 133)" style="text-anchor: end; font-family: BentonSans; font-weight: 400; font-size: 12px;"><tspan x="0" dy="12">+200%</tspan></text></g></g><g id="lines-svg"><g id="Retail-svg &amp;-svg recreation-svg"><path d="M9.600798450439566,411.9785714285714C23.594689455546686,404.1265873015873,37.58858046065381,396.2746031746032,51.58247146576093,393.9357142857143C63.577235184424175,391.9309523809524,75.57199890308742,392.05625000000003,87.56676262175067,390.92857142857144C123.5510537777404,387.54553571428573,159.53534493373016,377.39642857142854,195.5196360897199,377.39642857142854C229.50479995926577,377.39642857142854,263.4899638288116,381.90714285714284,297.4751276983575,381.90714285714284C351.4515644323421,381.90714285714284,405.4280011663267,364.0803160919543,459.4044379003113,344.3178571428572C463.40269247319907,342.85397129477593,467.4009470460868,341.33055707595935,471.3992016189746,339.8071428571428" stroke="rgb(222,163,129)" id="Retail &amp; recreation" style="stroke-width: 2; stroke-linejoin: round; stroke-linecap: round; fill: none; mix-blend-mode: normal;"/></g><g id="Grocery-svg &amp;-svg pharmacy-svg"><path d="M9.600798450439566,377.39642857142854C23.594689455546686,369.10108363858365,37.58858046065381,360.8057387057387,51.58247146576093,351.8357142857143C63.577235184424175,344.14712192569334,75.57199890308742,327.77857142857147,87.56676262175067,327.77857142857147C123.5510537777404,327.77857142857147,159.53534493373016,339.8071428571428,195.5196360897199,339.8071428571428C229.50479995926577,339.8071428571428,263.4899638288116,333.97215508257176,297.4751276983575,330.7857142857143C351.4515644323421,325.7248965495289,405.4280011663267,314.24642857142857,459.4044379003113,314.24642857142857C463.40269247319907,314.24642857142857,467.4009470460868,315.75,471.3992016189746,317.25357142857143" stroke="rgb(107,178,244)" id="Grocery &amp; pharmacy" style="stroke-width: 2; stroke-linejoin: round; stroke-linecap: round; fill: none; mix-blend-mode: normal;"/></g><g id="Transit-svg stations-svg"><path d="M9.600798450439566,421C23.594689455546686,418.28521825396825,37.58858046065381,415.5704365079365,51.58247146576093,411.9785714285714C63.577235184424175,408.89982993197276,75.57199890308742,401.4535714285714,87.56676262175067,401.4535714285714C123.5510537777404,401.4535714285714,159.53534493373016,402.95714285714286,195.5196360897199,402.95714285714286C229.50479995926577,402.95714285714286,263.4899638288116,400.9540684624018,297.4751276983575,398.44642857142856C351.4515644323421,394.4637063916475,405.4280011663267,391.93095238095236,459.4044379003113,378.9C463.40269247319907,377.93474426807757,467.4009470460868,376.9138007054674,471.3992016189746,375.89285714285717" stroke="rgb(128,173,173)" id="Transit stations" style="stroke-width: 2; stroke-linejoin: round; stroke-linecap: round; fill: none; mix-blend-mode: normal;"/></g><g id="Parks-svg"><path d="M9.600798450439566,348.8285714285714C23.594689455546686,263.125,37.58858046065381,177.42142857142855,51.58247146576093,177.42142857142855C63.577235184424175,177.42142857142855,75.57199890308742,249.59285714285716,87.56676262175067,249.59285714285716C123.5510537777404,249.59285714285716,159.53534493373016,142.83928571428572,195.5196360897199,142.83928571428572C229.50479995926577,142.83928571428572,263.4899638288116,243.57857142857142,297.4751276983575,243.57857142857142C351.4515644323421,243.57857142857142,405.4280011663267,175.91785714285714,459.4044379003113,40.59642857142859C463.40269247319907,30.572619047619014,467.4009470460868,15.286309523809507,471.3992016189746,0" stroke="rgb(90,158,101)" id="Parks" style="stroke-width: 2; stroke-linejoin: round; stroke-linecap: round; fill: none; mix-blend-mode: normal;"/></g><g id="Workplaces-svg"><path d="M9.600798450439566,381.90714285714284C23.594689455546686,381.42844169719166,37.58858046065381,380.94974053724053,51.58247146576093,380.4035714285714C63.577235184424175,379.9354264782836,75.57199890308742,379.40119047619044,87.56676262175067,378.9C123.5510537777404,377.39642857142854,159.53534493373016,377.03001200480196,195.5196360897199,374.38928571428573C229.50479995926577,371.89526643990934,263.4899638288116,363.8642857142857,297.4751276983575,363.8642857142857C351.4515644323421,363.8642857142857,405.4280011663267,381.90714285714284,459.4044379003113,381.90714285714284C463.40269247319907,381.90714285714284,467.4009470460868,360.85714285714283,471.3992016189746,339.8071428571428" stroke="rgb(125,115,156)" id="Workplaces" style="stroke-width: 2; stroke-linejoin: round; stroke-linecap: round; fill: none; mix-blend-mode: normal;"/></g><g id="Residential-svg"><path d="M9.600798450439566,303.72142857142853C23.594689455546686,305.225,37.58858046065381,306.72857142857146,51.58247146576093,306.72857142857146C63.577235184424175,306.72857142857146,75.57199890308742,303.72142857142853,87.56676262175067,303.72142857142853C123.5510537777404,303.72142857142853,159.53534493373016,312.74285714285713,195.5196360897199,312.74285714285713C229.50479995926577,312.74285714285713,263.4899638288116,309.73571428571427,297.4751276983575,309.73571428571427C351.4515644323421,309.73571428571427,405.4280011663267,309.73571428571427,459.4044379003113,309.73571428571427C463.40269247319907,309.73571428571427,467.4009470460868,317.25357142857143,471.3992016189746,324.7714285714286" stroke="rgb(0,89,147)" id="Residential" style="stroke-width: 2; stroke-linejoin: round; stroke-linecap: round; fill: none; mix-blend-mode: normal;"/></g></g><g id="line-symbols-svg"><path d="M -1,0 a 1,1 0 1,0 2,0 a 1,1 0 1,0 -2,0 Z" id="Retail &amp; recreation" transform="translate(471.3992016189746, 339.8071428571428) scale(3.5)" style="fill: rgb(222, 163, 129); mix-blend-mode: normal;"/><path d="M -1,0 a 1,1 0 1,0 2,0 a 1,1 0 1,0 -2,0 Z" id="Grocery &amp; pharmacy" transform="translate(471.3992016189746, 317.25357142857143) scale(3.5)" style="fill: rgb(107, 178, 244); mix-blend-mode: normal;"/><path d="M -1,0 a 1,1 0 1,0 2,0 a 1,1 0 1,0 -2,0 Z" id="Transit stations" transform="translate(471.3992016189746, 375.89285714285717) scale(3.5)" style="fill: rgb(128, 173, 173); mix-blend-mode: normal;"/><path d="M -1,0 a 1,1 0 1,0 2,0 a 1,1 0 1,0 -2,0 Z" id="Parks" transform="translate(471.3992016189746, 0) scale(3.5)" style="fill: rgb(90, 158, 101); mix-blend-mode: normal;"/><path d="M -1,0 a 1,1 0 1,0 2,0 a 1,1 0 1,0 -2,0 Z" id="Workplaces" transform="translate(471.3992016189746, 339.8071428571428) scale(3.5)" style="fill: rgb(125, 115, 156); mix-blend-mode: normal;"/><path d="M -1,0 a 1,1 0 1,0 2,0 a 1,1 0 1,0 -2,0 Z" id="Residential" transform="translate(471.3992016189746, 324.7714285714286) scale(3.5)" style="fill: rgb(0, 89, 147); mix-blend-mode: normal;"/></g><g id="lbl-connect-lines-svg"><path d="M471.3992016189746,339.8071428571428L478,370.8073741213227" stroke="rgb(222,163,129)" id="Retail &amp; recreation" style="stroke-width: 1; stroke-dasharray: 2, 2; stroke-linejoin: miter; stroke-linecap: butt; fill: none; mix-blend-mode: normal;"/><path d="M471.3992016189746,317.25357142857143L478,269.1991543698418" stroke="rgb(107,178,244)" id="Grocery &amp; pharmacy" style="stroke-width: 1; stroke-dasharray: 2, 2; stroke-linejoin: miter; stroke-linecap: butt; fill: none; mix-blend-mode: normal;"/><path d="M471.3992016189746,375.89285714285717L478,415.3880623856825" stroke="rgb(128,173,173)" id="Transit stations" style="stroke-width: 1; stroke-dasharray: 2, 2; stroke-linejoin: miter; stroke-linecap: butt; fill: none; mix-blend-mode: normal;"/><path d="M471.3992016189746,339.8071428571428L478,335.3223176394259" stroke="rgb(125,115,156)" id="Workplaces" style="stroke-width: 1; stroke-dasharray: 2, 2; stroke-linejoin: miter; stroke-linecap: butt; fill: none; mix-blend-mode: normal;"/><path d="M471.3992016189746,324.7714285714286L478,306.8152343408699" stroke="rgb(0,89,147)" id="Residential" style="stroke-width: 1; stroke-dasharray: 2, 2; stroke-linejoin: miter; stroke-linecap: butt; fill: none; mix-blend-mode: normal;"/></g></g></g><g id="Retail-svg &amp;-svg recreation-svg"><text transform="translate(529, 479.796875)" fill="rgb(222,163,129)" style="font-family: BentonSans; font-weight: 400; font-size: 12px;"><tspan x="0" dy="12">Retail &amp; </tspan></text><text transform="translate(529, 493.796875)" fill="rgb(222,163,129)" style="font-family: BentonSans; font-weight: 400; font-size: 12px;"><tspan x="0" dy="12">recreation</tspan></text></g><g id="Grocery-svg &amp;-svg pharmacy-svg"><text transform="translate(529, 378.1875)" fill="rgb(107,178,244)" style="font-family: BentonSans; font-weight: 400; font-size: 12px;"><tspan x="0" dy="12">Grocery &amp; </tspan></text><text transform="translate(529, 392.1875)" fill="rgb(107,178,244)" style="font-family: BentonSans; font-weight: 400; font-size: 12px;"><tspan x="0" dy="12">pharmacy</tspan></text></g><g id="Transit-svg stations-svg"><text transform="translate(529, 524.375)" fill="rgb(128,173,173)" style="font-family: BentonSans; font-weight: 400; font-size: 12px;"><tspan x="0" dy="12">Transit </tspan></text><text transform="translate(529, 538.375)" fill="rgb(128,173,173)" style="font-family: BentonSans; font-weight: 400; font-size: 12px;"><tspan x="0" dy="12">stations</tspan></text></g><g id="Parks-svg"><text transform="translate(529, 109)" fill="rgb(90,158,101)" style="font-family: BentonSans; font-weight: 400; font-size: 12px;"><tspan x="0" dy="12">Parks</tspan></text></g><g id="Workplaces-svg"><text transform="translate(529, 444.3125)" fill="rgb(125,115,156)" style="font-family: BentonSans; font-weight: 400; font-size: 12px;"><tspan x="0" dy="12">Workplaces</tspan></text></g><g id="Residential-svg"><text transform="translate(529, 415.8125)" fill="rgb(0,89,147)" style="font-family: BentonSans; font-weight: 400; font-size: 12px;"><tspan x="0" dy="12">Residential</tspan></text></g></g><g id="after-body-svg"/><g id="above-footer-svg"/><g id="footer-svg"><g id="footer-inner-svg"><g id="footer-main-svg"><g id="text-svg"><text transform="translate(0, 576)" fill="rgb(136,136,136)" style="font-family: BentonSans; font-weight: 400; font-size: 11px;"><tspan x="0" dy="11">Chart:</tspan></text><text transform="translate(34, 576)" fill="rgb(136,136,136)" style="font-family: BentonSans; font-weight: 400; font-size: 11px;"><tspan x="0" dy="11">Jeff Hargarten, Star Tribune</tspan></text></g><g id="text-svg"><text transform="translate(174, 576)" fill="rgb(136,136,136)" style="font-family: BentonSans; font-weight: 400; font-size: 11px;"><tspan x="0" dy="11">​ •</tspan></text></g><g id="text-svg"><text transform="translate(185, 576)" fill="rgb(136,136,136)" style="font-family: BentonSans; font-weight: 400; font-size: 11px;"><tspan x="0" dy="11">Source:</tspan></text><text transform="translate(226, 576)" fill="rgb(136,136,136)" style="font-family: BentonSans; font-weight: 400; font-size: 11px;"><tspan x="0" dy="11">Google</tspan></text></g></g></g></g><g id="below-footer-svg"/></g></svg>