<svg xmlns:xlink="http://www.w3.org/1999/xlink" xmlns="http://www.w3.org/2000/svg" id="exportSvg" width="522" height="400"><defs/><g><g id="header-svg"><g id="text-svg"><text transform="translate(0, -2)" fill="rgb(51,51,51)" style="font-family: BentonSans; font-weight: 700; font-size: 19px;"><tspan x="0" dy="19">Transit ridership remains low</tspan></text></g><g id="text-svg"><text transform="translate(0, 31)" fill="rgb(51,51,51)" style="font-family: BentonSans; font-weight: 400; font-size: 15px;"><tspan x="0" dy="15">Due to distancing concerns, work from home arrangements and a </tspan></text><text transform="translate(0, 51)" fill="rgb(51,51,51)" style="font-family: BentonSans; font-weight: 400; font-size: 15px;"><tspan x="0" dy="15">continued reduction in service, many riders haven't yet returned to using </tspan></text><text transform="translate(0, 71)" fill="rgb(51,51,51)" style="font-family: BentonSans; font-weight: 400; font-size: 15px;"><tspan x="0" dy="15">buses or rail in the metro area.</tspan></text></g></g><g id="chart-svg"><g id="group-svg" clip-path="url(#rect-mask-group-0)" transform="translate(0, 124)"><clipPath id="rect-mask-group-0"><rect x="0" y="0" width="522" height="235"/></clipPath><g id="group-svg" transform="translate(46, 34)"><g id="x-svg ticks-svg" transform="translate(0, 188)"><g transform="translate(34.40741438277119, 0)"><text transform="translate(-11.5, -12) translate(11.5, 11)" fill="rgb(133, 133, 133)" style="text-anchor: middle; font-family: BentonSans; font-weight: 400; font-size: 12px;"><tspan x="0" dy="12">Mar</tspan></text></g><g transform="translate(162.62123200908195, 0)"><text transform="translate(-10, -12) translate(10, 11)" fill="rgb(133, 133, 133)" style="text-anchor: middle; font-family: BentonSans; font-weight: 400; font-size: 12px;"><tspan x="0" dy="12">Apr</tspan></text></g><g transform="translate(286.69912003454397, 0)"><text transform="translate(-12.5, -12) translate(12.5, 11)" fill="rgb(133, 133, 133)" style="text-anchor: middle; font-family: BentonSans; font-weight: 400; font-size: 12px;"><tspan x="0" dy="12">May</tspan></text></g><g transform="translate(414.9129376608547, 0)"><text transform="translate(-10, -12) translate(10, 11)" fill="rgb(133, 133, 133)" style="text-anchor: middle; font-family: BentonSans; font-weight: 400; font-size: 12px;"><tspan x="0" dy="12">Jun</tspan></text></g></g><g id="x-svg axis-svg" transform="translate(0, 30.5)"><line x1="0" x2="470" y1="0" y2="0" style="stroke: rgb(51, 51, 51); stroke-width: 1;"/></g><g id="free-range-svg"><rect width="16.5437" height="183" transform="translate(402.5051488583085, 0)" fill="rgb(51,51,51)" style="opacity: 0.11; fill: rgb(51, 51, 51);"/></g><g id="y-grid-svg"><g transform="translate(0, 183)"><line x1="0" x2="470" y1="0" y2="0" style="stroke: rgb(238, 238, 238); stroke-width: 1;"/><text transform="translate(-4, 4) translate(-41, -12) translate(41, 0)" fill="rgb(133, 133, 133)" style="text-anchor: end; font-family: BentonSans; font-weight: 400; font-size: 12px;"><tspan x="0" dy="12">−100%</tspan></text></g><g transform="translate(0, 152.5)"><line x1="0" x2="470" y1="0" y2="0" style="stroke: rgb(238, 238, 238); stroke-width: 1;"/><text transform="translate(-4, 4) translate(-35, -12) translate(35, 0)" fill="rgb(133, 133, 133)" style="text-anchor: end; font-family: BentonSans; font-weight: 400; font-size: 12px;"><tspan x="0" dy="12">−80%</tspan></text></g><g transform="translate(0, 122)"><line x1="0" x2="470" y1="0" y2="0" style="stroke: rgb(238, 238, 238); stroke-width: 1;"/><text transform="translate(-4, 4) translate(-35, -12) translate(35, 0)" fill="rgb(133, 133, 133)" style="text-anchor: end; font-family: BentonSans; font-weight: 400; font-size: 12px;"><tspan x="0" dy="12">−60%</tspan></text></g><g transform="translate(0, 91.5)"><line x1="0" x2="470" y1="0" y2="0" style="stroke: rgb(238, 238, 238); stroke-width: 1;"/><text transform="translate(-4, 4) translate(-35, -12) translate(35, 0)" fill="rgb(133, 133, 133)" style="text-anchor: end; font-family: BentonSans; font-weight: 400; font-size: 12px;"><tspan x="0" dy="12">−40%</tspan></text></g><g transform="translate(0, 61)"><line x1="0" x2="470" y1="0" y2="0" style="stroke: rgb(238, 238, 238); stroke-width: 1;"/><text transform="translate(-4, 4) translate(-35, -12) translate(35, 0)" fill="rgb(133, 133, 133)" style="text-anchor: end; font-family: BentonSans; font-weight: 400; font-size: 12px;"><tspan x="0" dy="12">−20%</tspan></text></g><g id="tick-svg tick-major-svg" transform="translate(0, 30.5)"><text transform="translate(-4, 4) translate(-20, -12) translate(20, 0)" fill="rgb(133, 133, 133)" style="text-anchor: end; font-family: BentonSans; font-weight: 400; font-size: 12px;"><tspan x="0" dy="12">0%</tspan></text></g><g><line x1="0" x2="470" y1="0" y2="0" style="stroke: rgb(238, 238, 238); stroke-width: 1;"/><text transform="translate(-4, 4) translate(-27, -12) translate(27, 0)" fill="rgb(133, 133, 133)" style="text-anchor: end; font-family: BentonSans; font-weight: 400; font-size: 12px;"><tspan x="0" dy="12">20%</tspan></text></g></g><g id="lines-svg"><g id="Express-svg"><path d="M9.591836777678784,2.1350000000000193L13.72776637852752,1.982500000000016L17.863695979376253,0.6100000000000136L21.999625580224986,9.150000000000006L26.13555518107372,42.85249999999999L38.54334398361992,2.7450000000000045L42.67927358446865,-0.3050000000000068L46.81520318531739,2.592500000000001L50.95113278616612,18.452499999999986L55.08706238701485,47.58000000000001L67.49485118956105,28.36499999999998L71.63078079040979,18.909999999999997L75.76671039125853,24.705000000000013L79.90263999210725,46.360000000000014L84.038569592956,79.91000000000001L96.44635839550219,122.915L100.58228799635093,139.385L104.71821759719965,148.6875L108.8541471980484,153.72L112.99007679889714,158.6L125.39786560144331,163.6325L129.53379520229205,163.48000000000002L133.66972480314078,173.85L137.80565440398954,173.545L141.94158400483826,174.155L154.34937280738447,174.765L158.4853024082332,174.765L162.62123200908195,175.375L166.75716160993065,174.91750000000002L170.8930912107794,176.1375L183.3008800133256,175.5275L187.43680961417434,175.375L191.57273921502306,175.375L195.70866881587182,175.375L199.84459841672054,175.68L212.25238721926675,177.05249999999998L216.38831682011548,176.7475L220.52424642096423,176.7475L224.66017602181293,177.3575L228.79610562266168,175.985L241.20389442520786,177.05249999999998L245.3398240260566,176.7475L249.47575362690537,176.7475L253.6116832277541,176.1375L257.7476128286028,176.1375L270.155401631149,175.5275L274.29133123199773,176.1375L278.42726083284646,175.5275L282.5631904336952,175.2225L286.69912003454397,174.6125L299.10690883709015,175.5275L303.24283843793893,175.2225L307.3787680387876,174.6125L311.5146976396363,174.46L315.65062724048505,175.2225L328.0584160430313,175.07L332.19434564388,174.6125L336.3302752447288,174.155L340.4662048455775,174.3075L344.60213444642625,174.6125L357.0099232489724,173.85L361.14585284982115,173.3925L365.2817824506699,173.3925L369.41771205151866,174.0025L373.5536416523674,174.765L390.0973600557623,173.545L394.233289656611,172.935L398.36921925745975,176.595L402.5051488583085,183L414.9129376608547,183L419.04886726170344,183L423.18479686255216,174.6125L427.3207264634009,175.2225L431.4566560642496,174.765L443.86444486679585,173.3925L448.0003744676446,172.4775L452.1363040684933,173.0875L456.2722336693421,173.545L460.40816327019076,174.6125" stroke="rgb(137,176,125)" id="Express" style="stroke-width: 2; stroke-linejoin: round; stroke-linecap: round; fill: none; mix-blend-mode: normal;"/></g><g id="Rail-svg"><path d="M9.591836777678784,21.044999999999987L13.72776637852752,34.3125L17.863695979376253,26.382499999999993L21.999625580224986,29.28L26.13555518107372,41.47999999999999L38.54334398361992,23.485000000000014L42.67927358446865,26.382499999999993L46.81520318531739,31.414999999999992L50.95113278616612,31.26249999999999L55.08706238701485,53.375L67.49485118956105,64.05L71.63078079040979,65.57499999999999L75.76671039125853,55.66250000000001L79.90263999210725,62.98249999999999L84.038569592956,73.2L96.44635839550219,99.735L100.58228799635093,105.0725L104.71821759719965,120.16999999999999L108.8541471980484,130.3875L112.99007679889714,122.915L125.39786560144331,129.93L129.53379520229205,132.065L133.66972480314078,140.4525L137.80565440398954,139.2325L141.94158400483826,138.165L154.34937280738447,143.96L158.4853024082332,143.655L162.62123200908195,141.21499999999997L166.75716160993065,144.57L170.8930912107794,132.2175L183.3008800133256,137.0975L187.43680961417434,144.265L191.57273921502306,140.7575L195.70866881587182,149.14499999999998L199.84459841672054,140.91000000000003L212.25238721926675,145.79L216.38831682011548,155.55L220.52424642096423,131.6075L224.66017602181293,140.4525L228.79610562266168,137.4025L241.20389442520786,151.585L245.3398240260566,156.9225L249.47575362690537,158.1425L253.6116832277541,181.17L257.7476128286028,179.1875L270.155401631149,180.56L274.29133123199773,180.56L278.42726083284646,179.95L282.5631904336952,156.465L286.69912003454397,141.21499999999997L299.10690883709015,146.705L303.24283843793893,151.4325L307.3787680387876,151.4325L311.5146976396363,155.7025L315.65062724048505,145.02749999999997L328.0584160430313,150.8225L332.19434564388,149.14499999999998L336.3302752447288,148.535L340.4662048455775,145.485L344.60213444642625,156.0075L357.0099232489724,146.705L361.14585284982115,150.5175L365.2817824506699,155.7025L369.41771205151866,161.04L373.5536416523674,160.58249999999998L390.0973600557623,155.55L394.233289656611,145.6375L398.36921925745975,180.1025L402.5051488583085,183L414.9129376608547,183L419.04886726170344,183L423.18479686255216,183L427.3207264634009,158.905L431.4566560642496,159.9725L443.86444486679585,162.4125L448.0003744676446,161.04L452.1363040684933,166.07250000000002L456.2722336693421,157.98999999999998L460.40816327019076,158.1425" stroke="rgb(128,173,173)" id="Rail" style="stroke-width: 2; stroke-linejoin: round; stroke-linecap: round; fill: none; mix-blend-mode: normal;"/></g><g id="Local-svg"><path d="M9.591836777678784,34.922500000000014L13.72776637852752,36.14250000000001L17.863695979376253,32.17749999999998L21.999625580224986,38.43000000000001L26.13555518107372,37.057500000000005L38.54334398361992,36.14250000000001L42.67927358446865,30.347499999999997L46.81520318531739,32.94L50.95113278616612,35.685L55.08706238701485,40.10749999999999L67.49485118956105,47.42750000000001L71.63078079040979,47.58000000000001L75.76671039125853,47.1225L79.90263999210725,55.052499999999995L84.038569592956,54.442499999999995L96.44635839550219,86.61999999999999L100.58228799635093,93.635L104.71821759719965,109.64750000000001L108.8541471980484,118.34L112.99007679889714,112.85L125.39786560144331,121.39L129.53379520229205,123.22L133.66972480314078,129.47250000000003L137.80565440398954,122.1525L141.94158400483826,119.7125L154.34937280738447,123.3725L158.4853024082332,123.22L162.62123200908195,115.44250000000001L166.75716160993065,123.525L170.8930912107794,124.5925L183.3008800133256,123.22L187.43680961417434,123.22L191.57273921502306,123.67750000000001L195.70866881587182,128.71L199.84459841672054,121.39L212.25238721926675,129.015L216.38831682011548,132.37L220.52424642096423,126.88L224.66017602181293,128.405L228.79610562266168,124.89750000000001L241.20389442520786,130.235L245.3398240260566,127.49L249.47575362690537,124.745L253.6116832277541,118.7975L257.7476128286028,125.965L270.155401631149,120.9325L274.29133123199773,133.4375L278.42726083284646,122.915L282.5631904336952,121.8475L286.69912003454397,116.0525L299.10690883709015,120.16999999999999L303.24283843793893,125.66L307.3787680387876,123.83000000000001L311.5146976396363,123.3725L315.65062724048505,122.1525L328.0584160430313,121.2375L332.19434564388,121.2375L336.3302752447288,127.3375L340.4662048455775,121.39L344.60213444642625,117.5775L357.0099232489724,118.95L361.14585284982115,118.1875L365.2817824506699,118.1875L369.41771205151866,123.525L373.5536416523674,120.9325L390.0973600557623,122.7625L394.233289656611,118.645L398.36921925745975,146.2475L402.5051488583085,183L414.9129376608547,183L419.04886726170344,183L423.18479686255216,127.0325L427.3207264634009,125.35499999999999L431.4566560642496,122.915L443.86444486679585,119.7125L448.0003744676446,120.01750000000001L452.1363040684933,119.255L456.2722336693421,111.4775L460.40816327019076,114.68" stroke="rgb(179,120,98)" id="Local" style="stroke-width: 2; stroke-linejoin: round; stroke-linecap: round; fill: none; mix-blend-mode: normal;"/></g></g><g id="line-symbols-svg"><path d="M -1,0 a 1,1 0 1,0 2,0 a 1,1 0 1,0 -2,0 Z" id="Express" transform="translate(460.40816327019076, 174.6125) scale(3.5)" style="fill: rgb(137, 176, 125); mix-blend-mode: normal;"/><path d="M -1,0 a 1,1 0 1,0 2,0 a 1,1 0 1,0 -2,0 Z" id="Rail" transform="translate(460.40816327019076, 158.1425) scale(3.5)" style="fill: rgb(128, 173, 173); mix-blend-mode: normal;"/><path d="M -1,0 a 1,1 0 1,0 2,0 a 1,1 0 1,0 -2,0 Z" id="Local" transform="translate(460.40816327019076, 114.68) scale(3.5)" style="fill: rgb(179, 120, 98); mix-blend-mode: normal;"/></g><g id="free-texts-svg"><g id="bg-svg"><rect width="87" height="23" transform="translate(314.78655684133383, 64.37500000000001)" fill="rgb(255,255,255)" style="fill: rgb(255, 255, 255);"/></g><text transform="translate(319.78655684133383, 78.37500000000001) translate(0, -11)" fill="rgb(51, 51, 51)" style="font-family: BentonSans; font-weight: 400; font-size: 11px;"><tspan x="0" dy="11">Floyd unrest →</tspan></text></g></g></g><g id="Express-svg" clip-path="url(#rect-mask-Express-1)" transform="translate(0, 124)"><clipPath id="rect-mask-Express-1"><rect x="0" y="0" width="16" height="20"/></clipPath><path d="M1,10 L15,10" stroke="rgb(137,176,125)" id="Express" style="stroke-width: 2; stroke-linejoin: round; stroke-linecap: round; fill: none; mix-blend-mode: normal;"/></g><g id="Express-svg"><text transform="translate(20, 127.609375)" fill="rgb(51,51,51)" style="font-family: BentonSans; font-weight: 400; font-size: 12px;"><tspan x="0" dy="12">Express</tspan></text></g><g id="Local-svg" clip-path="url(#rect-mask-Local-2)" transform="translate(72, 124)"><clipPath id="rect-mask-Local-2"><rect x="0" y="0" width="16" height="20"/></clipPath><path d="M1,10 L15,10" stroke="rgb(179,120,98)" id="Local" style="stroke-width: 2; stroke-linejoin: round; stroke-linecap: round; fill: none; mix-blend-mode: normal;"/></g><g id="Local-svg"><text transform="translate(92, 127.609375)" fill="rgb(51,51,51)" style="font-family: BentonSans; font-weight: 400; font-size: 12px;"><tspan x="0" dy="12">Local</tspan></text></g><g id="Rail-svg" clip-path="url(#rect-mask-Rail-3)" transform="translate(130, 124)"><clipPath id="rect-mask-Rail-3"><rect x="0" y="0" width="16" height="20"/></clipPath><path d="M1,10 L15,10" stroke="rgb(128,173,173)" id="Rail" style="stroke-width: 2; stroke-linejoin: round; stroke-linecap: round; fill: none; mix-blend-mode: normal;"/></g><g id="Rail-svg"><text transform="translate(150, 127.609375)" fill="rgb(51,51,51)" style="font-family: BentonSans; font-weight: 400; font-size: 12px;"><tspan x="0" dy="12">Rail</tspan></text></g></g><g id="after-body-svg"/><g id="above-footer-svg"/><g id="footer-svg"><g id="footer-inner-svg"><g id="footer-main-svg"><g id="text-svg"><text transform="translate(0, 382)" fill="rgb(136,136,136)" style="font-family: BentonSans; font-weight: 400; font-size: 11px;"><tspan x="0" dy="11">Chart:</tspan></text><text transform="translate(34, 382)" fill="rgb(136,136,136)" style="font-family: BentonSans; font-weight: 400; font-size: 11px;"><tspan x="0" dy="11">Jeff Hargarten, Star Tribune</tspan></text></g><g id="text-svg"><text transform="translate(174, 382)" fill="rgb(136,136,136)" style="font-family: BentonSans; font-weight: 400; font-size: 11px;"><tspan x="0" dy="11">​ •</tspan></text></g><g id="text-svg"><text transform="translate(185, 382)" fill="rgb(136,136,136)" style="font-family: BentonSans; font-weight: 400; font-size: 11px;"><tspan x="0" dy="11">Source:</tspan></text><text transform="translate(226, 382)" fill="rgb(136,136,136)" style="font-family: BentonSans; font-weight: 400; font-size: 11px;"><tspan x="0" dy="11">Metro Transit</tspan></text></g></g></g></g><g id="below-footer-svg"/></g></svg>