<svg xmlns:xlink="http://www.w3.org/1999/xlink" xmlns="http://www.w3.org/2000/svg" id="exportSvg" width="522" height="400"><defs/><g><g id="header-svg"><g id="text-svg"><text transform="translate(0, -2)" fill="rgb(51,51,51)" style="font-family: BentonSans; font-weight: 700; font-size: 19px;"><tspan x="0" dy="19">Transit ridership remains low</tspan></text></g><g id="text-svg"><text transform="translate(0, 31)" fill="rgb(51,51,51)" style="font-family: BentonSans; font-weight: 400; font-size: 15px;"><tspan x="0" dy="15">People working from home and reduced service continues to affect Metro </tspan></text><text transform="translate(0, 51)" fill="rgb(51,51,51)" style="font-family: BentonSans; font-weight: 400; font-size: 15px;"><tspan x="0" dy="15">Transit ridership, even with eased lockdowns.</tspan></text></g><g id="text-svg"><text transform="translate(0, 80)" fill="rgb(51,51,51)" style="font-family: BentonSans; font-weight: 400; font-size: 12px; letter-spacing: 0.2px;"><tspan x="0" dy="12">PERCENT CHANGE IN AVERAGE WEEKDAY RIDERSHIP COMPARED TO FEBRUARY</tspan></text></g></g><g id="chart-svg"><g id="group-svg" clip-path="url(#rect-mask-group-0)" transform="translate(0, 104)"><clipPath id="rect-mask-group-0"><rect x="0" y="0" width="522" height="255"/></clipPath><g id="group-svg" transform="translate(46, 34)"><g id="x-svg ticks-svg" transform="translate(0, 208)"><g transform="translate(31.731459962901372, 0)"><text transform="translate(-11.5, -12) translate(11.5, 11)" fill="rgb(133, 133, 133)" style="text-anchor: middle; font-family: BentonSans; font-weight: 400; font-size: 12px;"><tspan x="0" dy="12">Mar</tspan></text></g><g transform="translate(146.1066805360897, 0)"><text transform="translate(-10, -12) translate(10, 11)" fill="rgb(133, 133, 133)" style="text-anchor: middle; font-family: BentonSans; font-weight: 400; font-size: 12px;"><tspan x="0" dy="12">Apr</tspan></text></g><g transform="translate(256.79237786498163, 0)"><text transform="translate(-12.5, -12) translate(12.5, 11)" fill="rgb(133, 133, 133)" style="text-anchor: middle; font-family: BentonSans; font-weight: 400; font-size: 12px;"><tspan x="0" dy="12">May</tspan></text></g><g transform="translate(371.16759843816993, 0)"><text transform="translate(-10, -12) translate(10, 11)" fill="rgb(133, 133, 133)" style="text-anchor: middle; font-family: BentonSans; font-weight: 400; font-size: 12px;"><tspan x="0" dy="12">Jun</tspan></text></g></g><g id="x-svg axis-svg" transform="translate(0, 33.833333333333314)"><line x1="0" x2="473" y1="0" y2="0" style="stroke: rgb(51, 51, 51); stroke-width: 1;"/></g><g id="free-range-svg"><rect width="18.4476" height="203" transform="translate(356.4095054609843, 0)" fill="rgb(167,167,167)" style="opacity: 0.11; fill: rgb(167, 167, 167);"/></g><g id="y-grid-svg"><g transform="translate(0, 203)"><line x1="0" x2="473" y1="0" y2="0" style="stroke: rgb(238, 238, 238); stroke-width: 1;"/><text transform="translate(-4, 4) translate(-41, -12) translate(41, 0)" fill="rgb(133, 133, 133)" style="text-anchor: end; font-family: BentonSans; font-weight: 400; font-size: 12px;"><tspan x="0" dy="12">−100%</tspan></text></g><g transform="translate(0, 169.16666666666669)"><line x1="0" x2="473" y1="0" y2="0" style="stroke: rgb(238, 238, 238); stroke-width: 1;"/><text transform="translate(-4, 4) translate(-35, -12) translate(35, 0)" fill="rgb(133, 133, 133)" style="text-anchor: end; font-family: BentonSans; font-weight: 400; font-size: 12px;"><tspan x="0" dy="12">−80%</tspan></text></g><g transform="translate(0, 135.33333333333334)"><line x1="0" x2="473" y1="0" y2="0" style="stroke: rgb(238, 238, 238); stroke-width: 1;"/><text transform="translate(-4, 4) translate(-35, -12) translate(35, 0)" fill="rgb(133, 133, 133)" style="text-anchor: end; font-family: BentonSans; font-weight: 400; font-size: 12px;"><tspan x="0" dy="12">−60%</tspan></text></g><g transform="translate(0, 101.5)"><line x1="0" x2="473" y1="0" y2="0" style="stroke: rgb(238, 238, 238); stroke-width: 1;"/><text transform="translate(-4, 4) translate(-35, -12) translate(35, 0)" fill="rgb(133, 133, 133)" style="text-anchor: end; font-family: BentonSans; font-weight: 400; font-size: 12px;"><tspan x="0" dy="12">−40%</tspan></text></g><g transform="translate(0, 67.66666666666669)"><line x1="0" x2="473" y1="0" y2="0" style="stroke: rgb(238, 238, 238); stroke-width: 1;"/><text transform="translate(-4, 4) translate(-35, -12) translate(35, 0)" fill="rgb(133, 133, 133)" style="text-anchor: end; font-family: BentonSans; font-weight: 400; font-size: 12px;"><tspan x="0" dy="12">−20%</tspan></text></g><g id="tick-svg tick-major-svg" transform="translate(0, 33.833333333333314)"><text transform="translate(-4, 4) translate(-20, -12) translate(20, 0)" fill="rgb(133, 133, 133)" style="text-anchor: end; font-family: BentonSans; font-weight: 400; font-size: 12px;"><tspan x="0" dy="12">0%</tspan></text></g><g><line x1="0" x2="473" y1="0" y2="0" style="stroke: rgb(238, 238, 238); stroke-width: 1;"/><text transform="translate(-4, 4) translate(-27, -12) translate(27, 0)" fill="rgb(133, 133, 133)" style="text-anchor: end; font-family: BentonSans; font-weight: 400; font-size: 12px;"><tspan x="0" dy="12">20%</tspan></text></g></g><g id="lines-svg"><g id="Rail-svg"><path d="M9.594320497122991,23.345L13.283843741419389,38.0625L16.97336698571579,29.26583333333332L20.66289023001218,32.48000000000002L24.35241347430858,46.01333333333335L35.42098320719777,26.051666666666677L39.11050645149417,29.26583333333332L42.80002969579057,34.84833333333333L46.48955294008696,34.679166666666646L50.179076184383355,59.208333333333314L61.24764591727255,71.04999999999998L64.93716916156895,72.74166666666665L68.62669240586536,61.74583333333334L72.31621565016174,69.86583333333331L76.00573889445813,81.2L87.07430862734732,108.77416666666666L90.76383187164373,115.2025L94.45335511594011,131.4425L98.14287836023652,142.94583333333333L101.83240160453292,134.14916666666664L112.9009713374221,142.26916666666665L116.59049458171852,144.6375L120.2800178260149,154.7875L123.96954107031131,143.115L127.6590643146077,151.91166666666666L138.72763404749688,153.7725L142.41715729179327,148.35916666666668L146.1066805360897,151.235L149.7962037803861,154.95666666666665L153.48572702468246,146.66750000000002L164.55429675757165,152.08083333333335L168.24382000186807,152.58833333333334L171.93334324616447,151.06583333333333L175.62286649046084,154.7875L179.31238973475726,156.31L190.38095946764645,157.15583333333336L194.07048271194284,165.10666666666665L197.76000595623924,139.90083333333334L201.44952920053564,152.58833333333334L205.13905244483203,157.15583333333336L216.20762217772122,167.475L219.89714542201764,167.30583333333334L223.586668666314,170.35083333333336L227.2761919106104,200.80083333333334L230.96571515490683,198.6016666666667L242.03428488779602,200.29333333333335L245.72380813209242,200.12416666666667L249.41333137638878,199.27833333333334L253.10285462068518,160.03166666666664L256.79237786498163,155.97166666666666L267.8609475978708,153.94166666666666L271.55047084216716,160.70833333333331L275.2399940864636,160.03166666666664L278.92951733076,159.35500000000002L282.6190405750564,160.20083333333332L293.68761030794553,158.84750000000003L297.37713355224196,155.63333333333333L301.0666567965384,161.21583333333334L304.75618004083475,161.385L308.4457032851312,159.18583333333333L319.51427301802033,154.95666666666665L323.20379626231676,154.61833333333334L326.8933195066131,165.61416666666668L330.58284275090955,164.76833333333335L334.2723659952059,167.13666666666666L349.0304589723915,156.31L352.7199822166879,156.6483333333333L356.4095054609843,193.3575L360.0990287052807,203L371.16759843816993,203L374.8571216824663,203L378.54664492676267,203L382.2361681710591,167.13666666666666L385.9256914153555,171.19666666666666L396.9942611482447,169.3358333333333L400.68378439254104,169.16666666666669L404.37330763683747,166.12166666666667L408.0628308811339,162.06166666666667L411.75235412543026,165.445L422.8209238583194,166.46L426.51044710261584,171.36583333333334L430.19997034691227,169.67416666666668L433.88949359120863,162.06166666666667L437.57901683550506,161.72333333333333L448.6475865683943,163.24583333333334L452.33710981269064,164.43L456.026633056987,163.24583333333334L459.71615630128343,155.8025L463.4056795455798,161.21583333333334" stroke="rgb(132,183,201)" id="Rail" style="stroke-width: 2; stroke-linejoin: round; stroke-linecap: round; fill: none; mix-blend-mode: normal;"/></g><g id="Express-svg"><path d="M9.594320497122991,2.3683333333333394L13.283843741419389,2.1991666666666845L16.97336698571579,0.6766666666666765L20.66289023001218,10.150000000000006L24.35241347430858,47.53583333333333L35.42098320719777,3.045000000000016L39.11050645149417,-0.33833333333333826L42.80002969579057,2.8758333333333326L46.48955294008696,20.469166666666666L50.179076184383355,52.78L61.24764591727255,31.464999999999975L64.93716916156895,20.976666666666688L68.62669240586536,27.405L72.31621565016174,51.42666666666668L76.00573889445813,88.64333333333335L87.07430862734732,136.34833333333336L90.76383187164373,154.61833333333334L94.45335511594011,164.9375L98.14287836023652,170.51999999999998L101.83240160453292,175.93333333333334L112.9009713374221,181.51583333333332L116.59049458171852,181.34666666666666L120.2800178260149,192.85L123.96954107031131,192.51166666666666L127.6590643146077,193.18833333333333L138.72763404749688,193.86499999999998L142.41715729179327,193.86499999999998L146.1066805360897,194.54166666666666L149.7962037803861,194.03416666666666L153.48572702468246,195.3875L164.55429675757165,194.7108333333333L168.24382000186807,194.54166666666666L171.93334324616447,194.54166666666666L175.62286649046084,194.54166666666666L179.31238973475726,194.88L190.38095946764645,196.4025L194.07048271194284,196.06416666666667L197.76000595623924,196.06416666666667L201.44952920053564,196.74083333333334L205.13905244483203,195.21833333333333L216.20762217772122,196.4025L219.89714542201764,196.06416666666667L223.586668666314,196.06416666666667L227.2761919106104,195.3875L230.96571515490683,195.3875L242.03428488779602,194.7108333333333L245.72380813209242,195.3875L249.41333137638878,194.7108333333333L253.10285462068518,194.3725L256.79237786498163,193.69583333333333L267.8609475978708,194.7108333333333L271.55047084216716,194.3725L275.2399940864636,193.69583333333333L278.92951733076,193.52666666666667L282.6190405750564,194.3725L293.68761030794553,194.20333333333332L297.37713355224196,193.69583333333333L301.0666567965384,193.18833333333333L304.75618004083475,193.3575L308.4457032851312,193.69583333333333L319.51427301802033,192.85L323.20379626231676,192.3425L326.8933195066131,192.3425L330.58284275090955,193.01916666666665L334.2723659952059,193.86499999999998L349.0304589723915,192.51166666666666L352.7199822166879,191.835L356.4095054609843,195.89499999999998L360.0990287052807,203L371.16759843816993,203L374.8571216824663,203L378.54664492676267,193.69583333333333L382.2361681710591,194.3725L385.9256914153555,193.86499999999998L396.9942611482447,192.3425L400.68378439254104,191.3275L404.37330763683747,192.00416666666666L408.0628308811339,192.51166666666666L411.75235412543026,193.69583333333333L422.8209238583194,191.835L426.51044710261584,190.65083333333334L430.19997034691227,191.15833333333333L433.88949359120863,191.66583333333332L437.57901683550506,191.835L448.6475865683943,191.835L452.33710981269064,190.65083333333334L456.026633056987,190.14333333333335L459.71615630128343,192.00416666666666L463.4056795455798,192.3425" stroke="rgb(140,177,110)" id="Express" style="stroke-width: 2; stroke-linejoin: round; stroke-linecap: round; fill: none; mix-blend-mode: normal;"/></g><g id="Local-svg"><path d="M9.594320497122991,38.73916666666668L13.283843741419389,40.0925L16.97336698571579,35.69416666666666L20.66289023001218,42.630000000000024L24.35241347430858,41.107500000000016L35.42098320719777,40.0925L39.11050645149417,33.66416666666669L42.80002969579057,36.53999999999999L46.48955294008696,39.58500000000001L50.179076184383355,44.49083333333331L61.24764591727255,52.61083333333332L64.93716916156895,52.78L68.62669240586536,52.27250000000001L72.31621565016174,61.06916666666666L76.00573889445813,60.392499999999984L87.07430862734732,96.08666666666666L90.76383187164373,103.86833333333333L94.45335511594011,121.63083333333334L98.14287836023652,131.27333333333334L101.83240160453292,125.18333333333332L112.9009713374221,134.65666666666667L116.59049458171852,136.68666666666667L120.2800178260149,143.6225L123.96954107031131,135.5025L127.6590643146077,132.79583333333335L138.72763404749688,136.85583333333332L142.41715729179327,136.68666666666667L146.1066805360897,128.05916666666667L149.7962037803861,137.02499999999998L153.48572702468246,138.20916666666668L164.55429675757165,136.68666666666667L168.24382000186807,136.68666666666667L171.93334324616447,137.19416666666666L175.62286649046084,142.77666666666667L179.31238973475726,134.65666666666667L190.38095946764645,143.115L194.07048271194284,146.83666666666667L197.76000595623924,140.74666666666667L201.44952920053564,142.43833333333333L205.13905244483203,138.5475L216.20762217772122,144.46833333333336L219.89714542201764,141.42333333333335L223.586668666314,138.37833333333333L227.2761919106104,131.78083333333333L230.96571515490683,139.73166666666668L242.03428488779602,134.14916666666664L245.72380813209242,148.02083333333334L249.41333137638878,136.34833333333336L253.10285462068518,135.16416666666666L256.79237786498163,128.73583333333335L267.8609475978708,133.30333333333334L271.55047084216716,139.39333333333332L275.2399940864636,137.36333333333334L278.92951733076,136.85583333333332L282.6190405750564,135.5025L293.68761030794553,134.4875L297.37713355224196,134.4875L301.0666567965384,141.25416666666666L304.75618004083475,134.65666666666667L308.4457032851312,130.4275L319.51427301802033,131.95L323.20379626231676,131.10416666666666L326.8933195066131,131.10416666666666L330.58284275090955,137.02499999999998L334.2723659952059,134.14916666666664L349.0304589723915,136.17916666666667L352.7199822166879,131.61166666666668L356.4095054609843,162.23083333333335L360.0990287052807,203L371.16759843816993,203L374.8571216824663,203L378.54664492676267,140.91583333333332L382.2361681710591,139.055L385.9256914153555,136.34833333333336L396.9942611482447,132.79583333333335L400.68378439254104,133.13416666666666L404.37330763683747,132.28833333333336L408.0628308811339,123.66083333333334L411.75235412543026,127.21333333333334L422.8209238583194,126.36749999999999L426.51044710261584,128.22833333333332L430.19997034691227,125.69083333333333L433.88949359120863,132.45749999999998L437.57901683550506,122.64583333333334L448.6475865683943,125.69083333333333L452.33710981269064,125.18333333333332L456.026633056987,123.66083333333334L459.71615630128343,123.15333333333332L463.4056795455798,125.18333333333332" stroke="rgb(193,106,81)" id="Local" style="stroke-width: 2; stroke-linejoin: round; stroke-linecap: round; fill: none; mix-blend-mode: normal;"/></g></g><g id="line-symbols-svg"><path d="M -1,0 a 1,1 0 1,0 2,0 a 1,1 0 1,0 -2,0 Z" id="Rail" transform="translate(463.4056795455798, 161.21583333333334) scale(3.5)" style="fill: rgb(132, 183, 201); mix-blend-mode: normal;"/><path d="M -1,0 a 1,1 0 1,0 2,0 a 1,1 0 1,0 -2,0 Z" id="Express" transform="translate(463.4056795455798, 192.3425) scale(3.5)" style="fill: rgb(140, 177, 110); mix-blend-mode: normal;"/><path d="M -1,0 a 1,1 0 1,0 2,0 a 1,1 0 1,0 -2,0 Z" id="Local" transform="translate(463.4056795455798, 125.18333333333332) scale(3.5)" style="fill: rgb(193, 106, 81); mix-blend-mode: normal;"/></g><g id="free-texts-svg"><text transform="translate(351.4095054609843, 86.20833333333334) translate(-77, -11) translate(77, 0)" fill="rgb(51, 51, 51)" style="text-anchor: end; font-family: BentonSans; font-weight: 400; font-size: 11px;"><tspan x="0" dy="11">Floyd unrest →</tspan></text></g></g></g><g id="Express-svg" clip-path="url(#rect-mask-Express-1)" transform="translate(0, 104)"><clipPath id="rect-mask-Express-1"><rect x="0" y="0" width="16" height="20"/></clipPath><path d="M1,10 L15,10" stroke="rgb(140,177,110)" id="Express" style="stroke-width: 2; stroke-linejoin: round; stroke-linecap: round; fill: none; mix-blend-mode: normal;"/></g><g id="Express-svg"><text transform="translate(20, 107.609375)" fill="rgb(51,51,51)" style="font-family: BentonSans; font-weight: 400; font-size: 12px;"><tspan x="0" dy="12">Express</tspan></text></g><g id="Local-svg" clip-path="url(#rect-mask-Local-2)" transform="translate(72, 104)"><clipPath id="rect-mask-Local-2"><rect x="0" y="0" width="16" height="20"/></clipPath><path d="M1,10 L15,10" stroke="rgb(193,106,81)" id="Local" style="stroke-width: 2; stroke-linejoin: round; stroke-linecap: round; fill: none; mix-blend-mode: normal;"/></g><g id="Local-svg"><text transform="translate(92, 107.609375)" fill="rgb(51,51,51)" style="font-family: BentonSans; font-weight: 400; font-size: 12px;"><tspan x="0" dy="12">Local</tspan></text></g><g id="Rail-svg" clip-path="url(#rect-mask-Rail-3)" transform="translate(130, 104)"><clipPath id="rect-mask-Rail-3"><rect x="0" y="0" width="16" height="20"/></clipPath><path d="M1,10 L15,10" stroke="rgb(132,183,201)" id="Rail" style="stroke-width: 2; stroke-linejoin: round; stroke-linecap: round; fill: none; mix-blend-mode: normal;"/></g><g id="Rail-svg"><text transform="translate(150, 107.609375)" fill="rgb(51,51,51)" style="font-family: BentonSans; font-weight: 400; font-size: 12px;"><tspan x="0" dy="12">Rail</tspan></text></g></g><g id="after-body-svg"/><g id="above-footer-svg"/><g id="footer-svg"><g id="footer-inner-svg"><g id="footer-main-svg"><g id="text-svg"><text transform="translate(0, 382)" fill="rgb(136,136,136)" style="font-family: BentonSans; font-weight: 400; font-size: 11px;"><tspan x="0" dy="11">Chart:</tspan></text><text transform="translate(34, 382)" fill="rgb(136,136,136)" style="font-family: BentonSans; font-weight: 400; font-size: 11px;"><tspan x="0" dy="11">Jeff Hargarten, Star Tribune</tspan></text></g><g id="text-svg"><text transform="translate(174, 382)" fill="rgb(136,136,136)" style="font-family: BentonSans; font-weight: 400; font-size: 11px;"><tspan x="0" dy="11">​ •</tspan></text></g><g id="text-svg"><text transform="translate(185, 382)" fill="rgb(136,136,136)" style="font-family: BentonSans; font-weight: 400; font-size: 11px;"><tspan x="0" dy="11">Source:</tspan></text><text transform="translate(226, 382)" fill="rgb(136,136,136)" style="font-family: BentonSans; font-weight: 400; font-size: 11px;"><tspan x="0" dy="11">Metro Transit, Minneapolis Fed</tspan></text></g></g></g></g><g id="below-footer-svg"/></g></svg>