<svg xmlns:xlink="http://www.w3.org/1999/xlink" xmlns="http://www.w3.org/2000/svg" id="exportSvg" width="522" height="400"><defs/><g><g id="header-svg"><g id="text-svg"><text transform="translate(0, -2)" fill="rgb(51,51,51)" style="font-family: BentonSans; font-weight: 700; font-size: 19px;"><tspan x="0" dy="19">Transit ridership remains low</tspan></text></g><g id="text-svg"><text transform="translate(0, 31)" fill="rgb(51,51,51)" style="font-family: BentonSans; font-weight: 400; font-size: 15px;"><tspan x="0" dy="15">Work from home arrangements and reduced service continues to affect </tspan></text><text transform="translate(0, 51)" fill="rgb(51,51,51)" style="font-family: BentonSans; font-weight: 400; font-size: 15px;"><tspan x="0" dy="15">Metro Transit ridership, even with eased lockdowns.</tspan></text></g></g><g id="chart-svg"><g id="group-svg" clip-path="url(#rect-mask-group-0)" transform="translate(0, 104)"><clipPath id="rect-mask-group-0"><rect x="0" y="0" width="522" height="255"/></clipPath><g id="group-svg" transform="translate(46, 34)"><g id="x-svg ticks-svg" transform="translate(0, 208)"><g transform="translate(33.067321841328614, 0)"><text transform="translate(-11.5, -12) translate(11.5, 11)" fill="rgb(133, 133, 133)" style="text-anchor: middle; font-family: BentonSans; font-weight: 400; font-size: 12px;"><tspan x="0" dy="12">Mar</tspan></text></g><g transform="translate(154.34449537249492, 0)"><text transform="translate(-10, -12) translate(10, 11)" fill="rgb(133, 133, 133)" style="text-anchor: middle; font-family: BentonSans; font-weight: 400; font-size: 12px;"><tspan x="0" dy="12">Apr</tspan></text></g><g transform="translate(271.7095020155591, 0)"><text transform="translate(-12.5, -12) translate(12.5, 11)" fill="rgb(133, 133, 133)" style="text-anchor: middle; font-family: BentonSans; font-weight: 400; font-size: 12px;"><tspan x="0" dy="12">May</tspan></text></g><g transform="translate(392.9866755467254, 0)"><text transform="translate(-10, -12) translate(10, 11)" fill="rgb(133, 133, 133)" style="text-anchor: middle; font-family: BentonSans; font-weight: 400; font-size: 12px;"><tspan x="0" dy="12">Jun</tspan></text></g></g><g id="x-svg axis-svg" transform="translate(0, 33.833333333333314)"><line x1="0" x2="473" y1="0" y2="0" style="stroke: rgb(51, 51, 51); stroke-width: 1;"/></g><g id="free-range-svg"><rect width="15.6487" height="203" transform="translate(381.250174882419, 0)" fill="rgb(51,51,51)" style="opacity: 0.11; fill: rgb(51, 51, 51);"/></g><g id="y-grid-svg"><g transform="translate(0, 203)"><line x1="0" x2="473" y1="0" y2="0" style="stroke: rgb(238, 238, 238); stroke-width: 1;"/><text transform="translate(-4, 4) translate(-41, -12) translate(41, 0)" fill="rgb(133, 133, 133)" style="text-anchor: end; font-family: BentonSans; font-weight: 400; font-size: 12px;"><tspan x="0" dy="12">−100%</tspan></text></g><g transform="translate(0, 169.16666666666669)"><line x1="0" x2="473" y1="0" y2="0" style="stroke: rgb(238, 238, 238); stroke-width: 1;"/><text transform="translate(-4, 4) translate(-35, -12) translate(35, 0)" fill="rgb(133, 133, 133)" style="text-anchor: end; font-family: BentonSans; font-weight: 400; font-size: 12px;"><tspan x="0" dy="12">−80%</tspan></text></g><g transform="translate(0, 135.33333333333334)"><line x1="0" x2="473" y1="0" y2="0" style="stroke: rgb(238, 238, 238); stroke-width: 1;"/><text transform="translate(-4, 4) translate(-35, -12) translate(35, 0)" fill="rgb(133, 133, 133)" style="text-anchor: end; font-family: BentonSans; font-weight: 400; font-size: 12px;"><tspan x="0" dy="12">−60%</tspan></text></g><g transform="translate(0, 101.5)"><line x1="0" x2="473" y1="0" y2="0" style="stroke: rgb(238, 238, 238); stroke-width: 1;"/><text transform="translate(-4, 4) translate(-35, -12) translate(35, 0)" fill="rgb(133, 133, 133)" style="text-anchor: end; font-family: BentonSans; font-weight: 400; font-size: 12px;"><tspan x="0" dy="12">−40%</tspan></text></g><g transform="translate(0, 67.66666666666669)"><line x1="0" x2="473" y1="0" y2="0" style="stroke: rgb(238, 238, 238); stroke-width: 1;"/><text transform="translate(-4, 4) translate(-35, -12) translate(35, 0)" fill="rgb(133, 133, 133)" style="text-anchor: end; font-family: BentonSans; font-weight: 400; font-size: 12px;"><tspan x="0" dy="12">−20%</tspan></text></g><g id="tick-svg tick-major-svg" transform="translate(0, 33.833333333333314)"><text transform="translate(-4, 4) translate(-20, -12) translate(20, 0)" fill="rgb(133, 133, 133)" style="text-anchor: end; font-family: BentonSans; font-weight: 400; font-size: 12px;"><tspan x="0" dy="12">0%</tspan></text></g><g><line x1="0" x2="473" y1="0" y2="0" style="stroke: rgb(238, 238, 238); stroke-width: 1;"/><text transform="translate(-4, 4) translate(-27, -12) translate(27, 0)" fill="rgb(133, 133, 133)" style="text-anchor: end; font-family: BentonSans; font-weight: 400; font-size: 12px;"><tspan x="0" dy="12">20%</tspan></text></g></g><g id="lines-svg"><g id="Express-svg"><path d="M9.594320512715777,2.3683333333333394L13.506487400817916,2.1991666666666845L17.418654288920056,0.6766666666666765L21.330821177022194,10.150000000000006L25.242988065124333,47.53583333333333L36.979488729430756,3.045000000000016L40.89165561753289,-0.33833333333333826L44.80382250563503,2.8758333333333326L48.71598939373717,20.469166666666666L52.6281562818393,52.78L64.36465694614573,31.464999999999975L68.27682383424786,20.976666666666688L72.18899072235001,27.405L76.10115761045215,51.42666666666668L80.01332449855428,88.64333333333335L91.7498251628607,136.34833333333336L95.66199205096284,154.61833333333334L99.57415893906499,164.9375L103.48632582716712,170.51999999999998L107.39849271526926,175.93333333333334L119.13499337957568,181.51583333333332L123.04716026767782,181.34666666666666L126.95932715577996,192.85L130.8714940438821,192.51166666666666L134.78366093198423,193.18833333333333L146.52016159629065,193.86499999999998L150.4323284843928,193.86499999999998L154.34449537249492,194.54166666666666L158.25666226059707,194.03416666666666L162.16882914869922,195.3875L173.90532981300564,194.7108333333333L177.81749670110776,194.54166666666666L181.7296635892099,194.54166666666666L185.64183047731203,194.54166666666666L189.55399736541418,194.88L201.2904980297206,196.4025L205.20266491782274,196.06416666666667L209.1148318059249,196.06416666666667L213.02699869402701,196.74083333333334L216.93916558212916,195.21833333333333L228.67566624643555,196.4025L232.5878331345377,196.06416666666667L236.50000002263985,196.06416666666667L240.412166910742,195.3875L244.32433379884412,195.3875L256.06083446315057,194.7108333333333L259.9730013512527,195.3875L263.88516823935487,194.7108333333333L267.79733512745696,194.3725L271.7095020155591,193.69583333333333L283.44600267986556,194.7108333333333L287.35816956796765,194.3725L291.2703364560698,193.69583333333333L295.18250334417195,193.52666666666667L299.09467023227404,194.3725L310.8311708965805,194.20333333333332L314.74333778468264,193.69583333333333L318.6555046727848,193.18833333333333L322.56767156088694,193.3575L326.479838448989,193.69583333333333L338.2163391132955,192.85L342.1285060013976,192.3425L346.0406728894998,192.3425L349.9528397776019,193.01916666666665L353.8650066657041,193.86499999999998L369.5136742181126,192.51166666666666L373.4258411062147,191.835L377.33800799431685,195.89499999999998L381.250174882419,203L392.9866755467254,203L396.89884243482754,203L400.8110093229297,193.69583333333333L404.72317621103184,194.3725L408.635343099134,193.86499999999998L420.3718437634404,192.3425L424.28401065154253,191.3275L428.1961775396447,192.00416666666666L432.10834442774683,192.51166666666666L436.020511315849,193.69583333333333L447.75701198015537,191.835L451.6691788682575,190.65083333333334L455.58134575635967,191.15833333333333L459.49351264446176,191.66583333333332L463.4056795325639,191.835" stroke="rgb(137,176,125)" id="Express" style="stroke-width: 2; stroke-linejoin: round; stroke-linecap: round; fill: none; mix-blend-mode: normal;"/></g><g id="Rail-svg"><path d="M9.594320512715777,23.345L13.506487400817916,38.0625L17.418654288920056,29.26583333333332L21.330821177022194,32.48000000000002L25.242988065124333,46.01333333333335L36.979488729430756,26.051666666666677L40.89165561753289,29.26583333333332L44.80382250563503,34.84833333333333L48.71598939373717,34.679166666666646L52.6281562818393,59.208333333333314L64.36465694614573,71.04999999999998L68.27682383424786,72.74166666666665L72.18899072235001,61.74583333333334L76.10115761045215,69.86583333333331L80.01332449855428,81.2L91.7498251628607,108.77416666666666L95.66199205096284,115.2025L99.57415893906499,131.4425L103.48632582716712,142.94583333333333L107.39849271526926,134.14916666666664L119.13499337957568,142.26916666666665L123.04716026767782,144.6375L126.95932715577996,154.7875L130.8714940438821,143.115L134.78366093198423,151.91166666666666L146.52016159629065,153.7725L150.4323284843928,148.35916666666668L154.34449537249492,151.235L158.25666226059707,154.95666666666665L162.16882914869922,146.66750000000002L173.90532981300564,152.08083333333335L177.81749670110776,152.58833333333334L181.7296635892099,151.06583333333333L185.64183047731203,154.7875L189.55399736541418,156.31L201.2904980297206,157.15583333333336L205.20266491782274,165.10666666666665L209.1148318059249,139.90083333333334L213.02699869402701,152.58833333333334L216.93916558212916,157.15583333333336L228.67566624643555,167.475L232.5878331345377,167.30583333333334L236.50000002263985,170.35083333333336L240.412166910742,200.80083333333334L244.32433379884412,198.6016666666667L256.06083446315057,200.29333333333335L259.9730013512527,200.12416666666667L263.88516823935487,199.27833333333334L267.79733512745696,160.03166666666664L271.7095020155591,155.97166666666666L283.44600267986556,153.94166666666666L287.35816956796765,160.70833333333331L291.2703364560698,160.03166666666664L295.18250334417195,159.35500000000002L299.09467023227404,160.20083333333332L310.8311708965805,158.84750000000003L314.74333778468264,155.63333333333333L318.6555046727848,161.21583333333334L322.56767156088694,161.385L326.479838448989,159.18583333333333L338.2163391132955,154.95666666666665L342.1285060013976,154.61833333333334L346.0406728894998,165.61416666666668L349.9528397776019,164.76833333333335L353.8650066657041,167.13666666666666L369.5136742181126,156.31L373.4258411062147,156.6483333333333L377.33800799431685,193.3575L381.250174882419,203L392.9866755467254,203L396.89884243482754,203L400.8110093229297,203L404.72317621103184,167.81333333333333L408.635343099134,171.19666666666666L420.3718437634404,169.3358333333333L424.28401065154253,169.16666666666669L428.1961775396447,167.30583333333334L432.10834442774683,163.58416666666668L436.020511315849,165.445L447.75701198015537,167.81333333333333L451.6691788682575,171.36583333333334L455.58134575635967,171.02749999999997L459.49351264446176,170.68916666666667L463.4056795325639,167.81333333333333" stroke="rgb(128,173,173)" id="Rail" style="stroke-width: 2; stroke-linejoin: round; stroke-linecap: round; fill: none; mix-blend-mode: normal;"/></g><g id="Local-svg"><path d="M9.594320512715777,38.73916666666668L13.506487400817916,40.0925L17.418654288920056,35.69416666666666L21.330821177022194,42.630000000000024L25.242988065124333,41.107500000000016L36.979488729430756,40.0925L40.89165561753289,33.66416666666669L44.80382250563503,36.53999999999999L48.71598939373717,39.58500000000001L52.6281562818393,44.49083333333331L64.36465694614573,52.61083333333332L68.27682383424786,52.78L72.18899072235001,52.27250000000001L76.10115761045215,61.06916666666666L80.01332449855428,60.392499999999984L91.7498251628607,96.08666666666666L95.66199205096284,103.86833333333333L99.57415893906499,121.63083333333334L103.48632582716712,131.27333333333334L107.39849271526926,125.18333333333332L119.13499337957568,134.65666666666667L123.04716026767782,136.68666666666667L126.95932715577996,143.6225L130.8714940438821,135.5025L134.78366093198423,132.79583333333335L146.52016159629065,136.85583333333332L150.4323284843928,136.68666666666667L154.34449537249492,128.05916666666667L158.25666226059707,137.02499999999998L162.16882914869922,138.20916666666668L173.90532981300564,136.68666666666667L177.81749670110776,136.68666666666667L181.7296635892099,137.19416666666666L185.64183047731203,142.77666666666667L189.55399736541418,134.65666666666667L201.2904980297206,143.115L205.20266491782274,146.83666666666667L209.1148318059249,140.74666666666667L213.02699869402701,142.43833333333333L216.93916558212916,138.5475L228.67566624643555,144.46833333333336L232.5878331345377,141.42333333333335L236.50000002263985,138.37833333333333L240.412166910742,131.78083333333333L244.32433379884412,139.73166666666668L256.06083446315057,134.14916666666664L259.9730013512527,148.02083333333334L263.88516823935487,136.34833333333336L267.79733512745696,135.16416666666666L271.7095020155591,128.73583333333335L283.44600267986556,133.30333333333334L287.35816956796765,139.39333333333332L291.2703364560698,137.36333333333334L295.18250334417195,136.85583333333332L299.09467023227404,135.5025L310.8311708965805,134.4875L314.74333778468264,134.4875L318.6555046727848,141.25416666666666L322.56767156088694,134.65666666666667L326.479838448989,130.4275L338.2163391132955,131.95L342.1285060013976,131.10416666666666L346.0406728894998,131.10416666666666L349.9528397776019,137.02499999999998L353.8650066657041,134.14916666666664L369.5136742181126,136.17916666666667L373.4258411062147,131.61166666666668L377.33800799431685,162.23083333333335L381.250174882419,203L392.9866755467254,203L396.89884243482754,203L400.8110093229297,140.91583333333332L404.72317621103184,139.055L408.635343099134,136.34833333333336L420.3718437634404,132.79583333333335L424.28401065154253,133.13416666666666L428.1961775396447,132.28833333333336L432.10834442774683,123.66083333333334L436.020511315849,127.21333333333334L447.75701198015537,126.36749999999999L451.6691788682575,128.22833333333332L455.58134575635967,125.69083333333333L459.49351264446176,132.45749999999998L463.4056795325639,122.64583333333334" stroke="rgb(179,120,98)" id="Local" style="stroke-width: 2; stroke-linejoin: round; stroke-linecap: round; fill: none; mix-blend-mode: normal;"/></g></g><g id="line-symbols-svg"><path d="M -1,0 a 1,1 0 1,0 2,0 a 1,1 0 1,0 -2,0 Z" id="Express" transform="translate(463.4056795325639, 191.835) scale(3.5)" style="fill: rgb(137, 176, 125); mix-blend-mode: normal;"/><path d="M -1,0 a 1,1 0 1,0 2,0 a 1,1 0 1,0 -2,0 Z" id="Rail" transform="translate(463.4056795325639, 167.81333333333333) scale(3.5)" style="fill: rgb(128, 173, 173); mix-blend-mode: normal;"/><path d="M -1,0 a 1,1 0 1,0 2,0 a 1,1 0 1,0 -2,0 Z" id="Local" transform="translate(463.4056795325639, 122.64583333333334) scale(3.5)" style="fill: rgb(179, 120, 98); mix-blend-mode: normal;"/></g><g id="free-texts-svg"><g id="bg-svg"><rect width="87" height="23" transform="translate(294.09467023227404, 72.20833333333334)" fill="rgb(255,255,255)" style="fill: rgb(255, 255, 255);"/></g><text transform="translate(299.09467023227404, 86.20833333333334) translate(0, -11)" fill="rgb(51, 51, 51)" style="font-family: BentonSans; font-weight: 400; font-size: 11px;"><tspan x="0" dy="11">Floyd unrest →</tspan></text></g></g></g><g id="Express-svg" clip-path="url(#rect-mask-Express-1)" transform="translate(0, 104)"><clipPath id="rect-mask-Express-1"><rect x="0" y="0" width="16" height="20"/></clipPath><path d="M1,10 L15,10" stroke="rgb(137,176,125)" id="Express" style="stroke-width: 2; stroke-linejoin: round; stroke-linecap: round; fill: none; mix-blend-mode: normal;"/></g><g id="Express-svg"><text transform="translate(20, 107.609375)" fill="rgb(51,51,51)" style="font-family: BentonSans; font-weight: 400; font-size: 12px;"><tspan x="0" dy="12">Express</tspan></text></g><g id="Local-svg" clip-path="url(#rect-mask-Local-2)" transform="translate(72, 104)"><clipPath id="rect-mask-Local-2"><rect x="0" y="0" width="16" height="20"/></clipPath><path d="M1,10 L15,10" stroke="rgb(179,120,98)" id="Local" style="stroke-width: 2; stroke-linejoin: round; stroke-linecap: round; fill: none; mix-blend-mode: normal;"/></g><g id="Local-svg"><text transform="translate(92, 107.609375)" fill="rgb(51,51,51)" style="font-family: BentonSans; font-weight: 400; font-size: 12px;"><tspan x="0" dy="12">Local</tspan></text></g><g id="Rail-svg" clip-path="url(#rect-mask-Rail-3)" transform="translate(130, 104)"><clipPath id="rect-mask-Rail-3"><rect x="0" y="0" width="16" height="20"/></clipPath><path d="M1,10 L15,10" stroke="rgb(128,173,173)" id="Rail" style="stroke-width: 2; stroke-linejoin: round; stroke-linecap: round; fill: none; mix-blend-mode: normal;"/></g><g id="Rail-svg"><text transform="translate(150, 107.609375)" fill="rgb(51,51,51)" style="font-family: BentonSans; font-weight: 400; font-size: 12px;"><tspan x="0" dy="12">Rail</tspan></text></g></g><g id="after-body-svg"/><g id="above-footer-svg"/><g id="footer-svg"><g id="footer-inner-svg"><g id="footer-main-svg"><g id="text-svg"><text transform="translate(0, 382)" fill="rgb(136,136,136)" style="font-family: BentonSans; font-weight: 400; font-size: 11px;"><tspan x="0" dy="11">Chart:</tspan></text><text transform="translate(34, 382)" fill="rgb(136,136,136)" style="font-family: BentonSans; font-weight: 400; font-size: 11px;"><tspan x="0" dy="11">Jeff Hargarten, Star Tribune</tspan></text></g><g id="text-svg"><text transform="translate(174, 382)" fill="rgb(136,136,136)" style="font-family: BentonSans; font-weight: 400; font-size: 11px;"><tspan x="0" dy="11">​ •</tspan></text></g><g id="text-svg"><text transform="translate(185, 382)" fill="rgb(136,136,136)" style="font-family: BentonSans; font-weight: 400; font-size: 11px;"><tspan x="0" dy="11">Source:</tspan></text><text transform="translate(226, 382)" fill="rgb(136,136,136)" style="font-family: BentonSans; font-weight: 400; font-size: 11px;"><tspan x="0" dy="11">Metro Transit</tspan></text></g></g></g></g><g id="below-footer-svg"/></g></svg>