<svg xmlns:xlink="http://www.w3.org/1999/xlink" xmlns="http://www.w3.org/2000/svg" id="exportSvg" width="522" height="400"><defs/><g><g id="header-svg"><g id="text-svg"><text transform="translate(0, -2)" fill="rgb(51,51,51)" style="font-family: BentonSans; font-weight: 700; font-size: 19px;"><tspan x="0" dy="19">Transit ridership remains low</tspan></text></g><g id="text-svg"><text transform="translate(0, 31)" fill="rgb(51,51,51)" style="font-family: BentonSans; font-weight: 400; font-size: 15px;"><tspan x="0" dy="15">People working from home and reduced service continues to affect Metro </tspan></text><text transform="translate(0, 51)" fill="rgb(51,51,51)" style="font-family: BentonSans; font-weight: 400; font-size: 15px;"><tspan x="0" dy="15">Transit ridership, even with eased lockdowns.</tspan></text></g><g id="text-svg"><text transform="translate(0, 80)" fill="rgb(51,51,51)" style="font-family: BentonSans; font-weight: 400; font-size: 12px; letter-spacing: 0.2px;"><tspan x="0" dy="12">PERCENT CHANGE IN AVERAGE WEEKDAY RIDERSHIP COMPARED TO FEBRUARY</tspan></text></g></g><g id="chart-svg"><g id="group-svg" clip-path="url(#rect-mask-group-0)" transform="translate(0, 104)"><clipPath id="rect-mask-group-0"><rect x="0" y="0" width="522" height="255"/></clipPath><g id="group-svg" transform="translate(46, 34)"><g id="x-svg ticks-svg" transform="translate(0, 208)"><g transform="translate(28.50312712141949, 0)"><text transform="translate(-11.5, -12) translate(11.5, 11)" fill="rgb(133, 133, 133)" style="text-anchor: middle; font-family: BentonSans; font-weight: 400; font-size: 12px;"><tspan x="0" dy="12">Mar</tspan></text></g><g transform="translate(126.19862802750076, 0)"><text transform="translate(-10, -12) translate(10, 11)" fill="rgb(133, 133, 133)" style="text-anchor: middle; font-family: BentonSans; font-weight: 400; font-size: 12px;"><tspan x="0" dy="12">Apr</tspan></text></g><g transform="translate(220.7426611624181, 0)"><text transform="translate(-12.500007629394531, -12) translate(12.500007629394531, 11)" fill="rgb(133, 133, 133)" style="text-anchor: middle; font-family: BentonSans; font-weight: 400; font-size: 12px;"><tspan x="0" dy="12">May</tspan></text></g><g transform="translate(318.43816206849937, 0)"><text transform="translate(-10, -12) translate(10, 11)" fill="rgb(133, 133, 133)" style="text-anchor: middle; font-family: BentonSans; font-weight: 400; font-size: 12px;"><tspan x="0" dy="12">Jun</tspan></text></g><g transform="translate(412.9821952034167, 0)"><text transform="translate(-8, -12) translate(8, 11)" fill="rgb(133, 133, 133)" style="text-anchor: middle; font-family: BentonSans; font-weight: 400; font-size: 12px;"><tspan x="0" dy="12">Jul</tspan></text></g></g><g id="x-svg axis-svg" transform="translate(0, 33.833333333333314)"><line x1="0" x2="473" y1="0" y2="0" style="stroke: rgb(51, 51, 51); stroke-width: 1;"/></g><g id="free-range-svg"><rect width="15.7573" height="203" transform="translate(305.83229098384373, 0)" fill="rgb(167,167,167)" style="opacity: 0.11; fill: rgb(167, 167, 167);"/></g><g id="y-grid-svg"><g transform="translate(0, 203)"><line x1="0" x2="473" y1="0" y2="0" style="stroke: rgb(238, 238, 238); stroke-width: 1;"/><text transform="translate(-4, 4) translate(-41, -12) translate(41, 0)" fill="rgb(133, 133, 133)" style="text-anchor: end; font-family: BentonSans; font-weight: 400; font-size: 12px;"><tspan x="0" dy="12">−100%</tspan></text></g><g transform="translate(0, 169.16666666666669)"><line x1="0" x2="473" y1="0" y2="0" style="stroke: rgb(238, 238, 238); stroke-width: 1;"/><text transform="translate(-4, 4) translate(-35, -12) translate(35, 0)" fill="rgb(133, 133, 133)" style="text-anchor: end; font-family: BentonSans; font-weight: 400; font-size: 12px;"><tspan x="0" dy="12">−80%</tspan></text></g><g transform="translate(0, 135.33333333333334)"><line x1="0" x2="473" y1="0" y2="0" style="stroke: rgb(238, 238, 238); stroke-width: 1;"/><text transform="translate(-4, 4) translate(-35, -12) translate(35, 0)" fill="rgb(133, 133, 133)" style="text-anchor: end; font-family: BentonSans; font-weight: 400; font-size: 12px;"><tspan x="0" dy="12">−60%</tspan></text></g><g transform="translate(0, 101.5)"><line x1="0" x2="473" y1="0" y2="0" style="stroke: rgb(238, 238, 238); stroke-width: 1;"/><text transform="translate(-4, 4) translate(-35, -12) translate(35, 0)" fill="rgb(133, 133, 133)" style="text-anchor: end; font-family: BentonSans; font-weight: 400; font-size: 12px;"><tspan x="0" dy="12">−40%</tspan></text></g><g transform="translate(0, 67.66666666666669)"><line x1="0" x2="473" y1="0" y2="0" style="stroke: rgb(238, 238, 238); stroke-width: 1;"/><text transform="translate(-4, 4) translate(-35, -12) translate(35, 0)" fill="rgb(133, 133, 133)" style="text-anchor: end; font-family: BentonSans; font-weight: 400; font-size: 12px;"><tspan x="0" dy="12">−20%</tspan></text></g><g id="tick-svg tick-major-svg" transform="translate(0, 33.833333333333314)"><text transform="translate(-4, 4) translate(-20, -12) translate(20, 0)" fill="rgb(133, 133, 133)" style="text-anchor: end; font-family: BentonSans; font-weight: 400; font-size: 12px;"><tspan x="0" dy="12">0%</tspan></text></g><g><line x1="0" x2="473" y1="0" y2="0" style="stroke: rgb(238, 238, 238); stroke-width: 1;"/><text transform="translate(-4, 4) translate(-27, -12) translate(27, 0)" fill="rgb(133, 133, 133)" style="text-anchor: end; font-family: BentonSans; font-weight: 400; font-size: 12px;"><tspan x="0" dy="12">20%</tspan></text></g></g><g id="lines-svg"><g id="Rail-svg"><path d="M9.59432049443602,23.345L12.745788265599932,38.0625L15.897256036763844,29.26583333333332L19.048723807927757,32.48000000000002L22.200191579091666,46.01333333333335L31.6545948925834,26.051666666666677L34.80606266374732,29.26583333333332L37.95753043491123,34.84833333333333L41.10899820607514,34.679166666666646L44.26046597723905,59.208333333333314L53.71486929073079,71.04999999999998L56.8663370618947,72.74166666666665L60.017804833058605,61.74583333333334L63.16927260422252,69.86583333333331L66.32074037538642,81.2L75.77514368887817,108.77416666666666L78.92661146004207,115.2025L82.07807923120599,131.4425L85.2295470023699,142.94583333333333L88.38101477353382,134.14916666666664L97.83541808702554,142.26916666666665L100.98688585818947,144.6375L104.13835362935338,154.7875L107.28982140051728,143.115L110.44128917168119,151.91166666666666L119.89569248517293,153.7725L123.04716025633684,148.35916666666668L126.19862802750076,151.235L129.35009579866468,154.95666666666665L132.5015635698286,146.66750000000002L141.95596688332031,152.08083333333335L145.10743465448422,152.58833333333334L148.25890242564813,151.06583333333333L151.41037019681204,154.7875L154.56183796797595,156.31L164.0162412814677,157.15583333333336L167.1677090526316,165.10666666666665L170.31917682379552,139.90083333333334L173.47064459495942,152.58833333333334L176.62211236612333,157.15583333333336L186.07651567961508,167.475L189.227983450779,167.30583333333334L192.37945122194287,170.35083333333336L195.5309189931068,200.80083333333334L198.68238676427072,198.6016666666667L208.13679007776247,200.29333333333335L211.28825784892638,200.12416666666667L214.4397256200903,199.27833333333334L217.59119339125417,160.03166666666664L220.7426611624181,155.97166666666666L230.19706447590983,153.94166666666666L233.34853224707376,160.70833333333331L236.50000001823764,160.03166666666664L239.65146778940158,159.35500000000002L242.80293556056546,160.20083333333332L252.25733887405724,158.84750000000003L255.40880664522112,155.63333333333333L258.560274416385,161.21583333333334L261.71174218754896,161.385L264.86320995871284,159.18583333333333L274.3176132722046,154.95666666666665L277.46908104336853,154.61833333333334L280.62054881453247,165.61416666666668L283.77201658569635,164.76833333333335L286.92348435686023,167.13666666666666L299.52935544151586,156.31L302.6808232126798,156.6483333333333L305.83229098384373,193.3575L308.98375875500767,203L318.43816206849937,203L321.58962983966325,203L324.7410976108272,203L327.8925653819911,167.13666666666666L331.04403315315506,171.19666666666666L340.49843646664675,169.3358333333333L343.64990423781063,169.16666666666669L346.80137200897457,166.12166666666667L349.95283978013845,162.06166666666667L353.1043075513024,165.445L362.55871086479414,166.46L365.710178635958,171.36583333333334L368.86164640712195,169.67416666666668L372.01311417828583,162.06166666666667L375.16458194944977,161.72333333333333L384.6189852629415,163.24583333333334L387.77045303410546,164.43L390.92192080526934,163.24583333333334L394.0733885764332,155.8025L397.22485634759715,161.21583333333334L406.6792596610889,169.67416666666668L409.83072743225284,168.65916666666666L412.9821952034167,163.9225L416.1336629745806,162.06166666666667L419.28513074574454,161.72333333333333L428.73953405923623,160.70833333333331L431.8910018304002,163.75333333333333L435.0424696015641,159.18583333333333L438.19393737272804,156.14083333333332L441.3454051438919,152.25L450.7998084573836,156.14083333333332L453.95127622854756,162.23083333333335L457.1027439997115,156.47916666666669L460.25421177087543,169.67416666666668L463.4056795420393,158.17083333333335" stroke="rgb(132,183,201)" id="Rail" style="stroke-width: 2; stroke-linejoin: round; stroke-linecap: round; fill: none; mix-blend-mode: normal;"/></g><g id="Express-svg"><path d="M9.59432049443602,2.3683333333333394L12.745788265599932,2.1991666666666845L15.897256036763844,0.6766666666666765L19.048723807927757,10.150000000000006L22.200191579091666,47.53583333333333L31.6545948925834,3.045000000000016L34.80606266374732,-0.33833333333333826L37.95753043491123,2.8758333333333326L41.10899820607514,20.469166666666666L44.26046597723905,52.78L53.71486929073079,31.464999999999975L56.8663370618947,20.976666666666688L60.017804833058605,27.405L63.16927260422252,51.42666666666668L66.32074037538642,88.64333333333335L75.77514368887817,136.34833333333336L78.92661146004207,154.61833333333334L82.07807923120599,164.9375L85.2295470023699,170.51999999999998L88.38101477353382,175.93333333333334L97.83541808702554,181.51583333333332L100.98688585818947,181.34666666666666L104.13835362935338,192.85L107.28982140051728,192.51166666666666L110.44128917168119,193.18833333333333L119.89569248517293,193.86499999999998L123.04716025633684,193.86499999999998L126.19862802750076,194.54166666666666L129.35009579866468,194.03416666666666L132.5015635698286,195.3875L141.95596688332031,194.7108333333333L145.10743465448422,194.54166666666666L148.25890242564813,194.54166666666666L151.41037019681204,194.54166666666666L154.56183796797595,194.88L164.0162412814677,196.4025L167.1677090526316,196.06416666666667L170.31917682379552,196.06416666666667L173.47064459495942,196.74083333333334L176.62211236612333,195.21833333333333L186.07651567961508,196.4025L189.227983450779,196.06416666666667L192.37945122194287,196.06416666666667L195.5309189931068,195.3875L198.68238676427072,195.3875L208.13679007776247,194.7108333333333L211.28825784892638,195.3875L214.4397256200903,194.7108333333333L217.59119339125417,194.3725L220.7426611624181,193.69583333333333L230.19706447590983,194.7108333333333L233.34853224707376,194.3725L236.50000001823764,193.69583333333333L239.65146778940158,193.52666666666667L242.80293556056546,194.3725L252.25733887405724,194.20333333333332L255.40880664522112,193.69583333333333L258.560274416385,193.18833333333333L261.71174218754896,193.3575L264.86320995871284,193.69583333333333L274.3176132722046,192.85L277.46908104336853,192.3425L280.62054881453247,192.3425L283.77201658569635,193.01916666666665L286.92348435686023,193.86499999999998L299.52935544151586,192.51166666666666L302.6808232126798,191.835L305.83229098384373,195.89499999999998L308.98375875500767,203L318.43816206849937,203L321.58962983966325,203L324.7410976108272,193.69583333333333L327.8925653819911,194.3725L331.04403315315506,193.86499999999998L340.49843646664675,192.3425L343.64990423781063,191.3275L346.80137200897457,192.00416666666666L349.95283978013845,192.51166666666666L353.1043075513024,193.69583333333333L362.55871086479414,191.835L365.710178635958,190.65083333333334L368.86164640712195,191.15833333333333L372.01311417828583,191.66583333333332L375.16458194944977,191.835L384.6189852629415,191.835L387.77045303410546,190.65083333333334L390.92192080526934,190.14333333333335L394.0733885764332,192.00416666666666L397.22485634759715,192.3425L406.6792596610889,192.51166666666666L409.83072743225284,190.98916666666668L412.9821952034167,190.65083333333334L416.1336629745806,192.51166666666666L419.28513074574454,196.06416666666667L428.73953405923623,191.15833333333333L431.8910018304002,190.98916666666668L435.0424696015641,190.82L438.19393737272804,191.49666666666667L441.3454051438919,191.835L450.7998084573836,190.48166666666665L453.95127622854756,191.66583333333332L457.1027439997115,190.3125L460.25421177087543,189.97416666666666L463.4056795420393,191.3275" stroke="rgb(140,177,110)" id="Express" style="stroke-width: 2; stroke-linejoin: round; stroke-linecap: round; fill: none; mix-blend-mode: normal;"/></g><g id="Local-svg"><path d="M9.59432049443602,38.73916666666668L12.745788265599932,40.0925L15.897256036763844,35.69416666666666L19.048723807927757,42.630000000000024L22.200191579091666,41.107500000000016L31.6545948925834,40.0925L34.80606266374732,33.66416666666669L37.95753043491123,36.53999999999999L41.10899820607514,39.58500000000001L44.26046597723905,44.49083333333331L53.71486929073079,52.61083333333332L56.8663370618947,52.78L60.017804833058605,52.27250000000001L63.16927260422252,61.06916666666666L66.32074037538642,60.392499999999984L75.77514368887817,96.08666666666666L78.92661146004207,103.86833333333333L82.07807923120599,121.63083333333334L85.2295470023699,131.27333333333334L88.38101477353382,125.18333333333332L97.83541808702554,134.65666666666667L100.98688585818947,136.68666666666667L104.13835362935338,143.6225L107.28982140051728,135.5025L110.44128917168119,132.79583333333335L119.89569248517293,136.85583333333332L123.04716025633684,136.68666666666667L126.19862802750076,128.05916666666667L129.35009579866468,137.02499999999998L132.5015635698286,138.20916666666668L141.95596688332031,136.68666666666667L145.10743465448422,136.68666666666667L148.25890242564813,137.19416666666666L151.41037019681204,142.77666666666667L154.56183796797595,134.65666666666667L164.0162412814677,143.115L167.1677090526316,146.83666666666667L170.31917682379552,140.74666666666667L173.47064459495942,142.43833333333333L176.62211236612333,138.5475L186.07651567961508,144.46833333333336L189.227983450779,141.42333333333335L192.37945122194287,138.37833333333333L195.5309189931068,131.78083333333333L198.68238676427072,139.73166666666668L208.13679007776247,134.14916666666664L211.28825784892638,148.02083333333334L214.4397256200903,136.34833333333336L217.59119339125417,135.16416666666666L220.7426611624181,128.73583333333335L230.19706447590983,133.30333333333334L233.34853224707376,139.39333333333332L236.50000001823764,137.36333333333334L239.65146778940158,136.85583333333332L242.80293556056546,135.5025L252.25733887405724,134.4875L255.40880664522112,134.4875L258.560274416385,141.25416666666666L261.71174218754896,134.65666666666667L264.86320995871284,130.4275L274.3176132722046,131.95L277.46908104336853,131.10416666666666L280.62054881453247,131.10416666666666L283.77201658569635,137.02499999999998L286.92348435686023,134.14916666666664L299.52935544151586,136.17916666666667L302.6808232126798,131.61166666666668L305.83229098384373,162.23083333333335L308.98375875500767,203L318.43816206849937,203L321.58962983966325,203L324.7410976108272,140.91583333333332L327.8925653819911,139.055L331.04403315315506,136.34833333333336L340.49843646664675,132.79583333333335L343.64990423781063,133.13416666666666L346.80137200897457,132.28833333333336L349.95283978013845,123.66083333333334L353.1043075513024,127.21333333333334L362.55871086479414,126.36749999999999L365.710178635958,128.22833333333332L368.86164640712195,125.69083333333333L372.01311417828583,132.45749999999998L375.16458194944977,122.64583333333334L384.6189852629415,125.69083333333333L387.77045303410546,125.18333333333332L390.92192080526934,123.66083333333334L394.0733885764332,123.15333333333332L397.22485634759715,125.18333333333332L406.6792596610889,125.52166666666668L409.83072743225284,117.74000000000001L412.9821952034167,112.32666666666667L416.1336629745806,117.40166666666666L419.28513074574454,121.8L428.73953405923623,119.2625L431.8910018304002,116.2175L435.0424696015641,116.2175L438.19393737272804,119.77L441.3454051438919,113.51083333333334L450.7998084573836,116.89416666666668L453.95127622854756,123.32249999999999L457.1027439997115,114.35666666666667L460.25421177087543,114.01833333333333L463.4056795420393,111.14250000000001" stroke="rgb(193,106,81)" id="Local" style="stroke-width: 2; stroke-linejoin: round; stroke-linecap: round; fill: none; mix-blend-mode: normal;"/></g></g><g id="line-symbols-svg"><path d="M -1,0 a 1,1 0 1,0 2,0 a 1,1 0 1,0 -2,0 Z" id="Rail" transform="translate(463.4056795420393, 158.17083333333335) scale(3.5)" style="fill: rgb(132, 183, 201); mix-blend-mode: normal;"/><path d="M -1,0 a 1,1 0 1,0 2,0 a 1,1 0 1,0 -2,0 Z" id="Express" transform="translate(463.4056795420393, 191.3275) scale(3.5)" style="fill: rgb(140, 177, 110); mix-blend-mode: normal;"/><path d="M -1,0 a 1,1 0 1,0 2,0 a 1,1 0 1,0 -2,0 Z" id="Local" transform="translate(463.4056795420393, 111.14250000000001) scale(3.5)" style="fill: rgb(193, 106, 81); mix-blend-mode: normal;"/></g><g id="free-texts-svg"><text transform="translate(300.83229098384373, 86.20833333333334) translate(-77, -11) translate(77, 0)" fill="rgb(51, 51, 51)" style="text-anchor: end; font-family: BentonSans; font-weight: 400; font-size: 11px;"><tspan x="0" dy="11">Floyd unrest →</tspan></text></g></g></g><g id="Express-svg" clip-path="url(#rect-mask-Express-1)" transform="translate(0, 104)"><clipPath id="rect-mask-Express-1"><rect x="0" y="0" width="16" height="20"/></clipPath><path d="M1,10 L15,10" stroke="rgb(140,177,110)" id="Express" style="stroke-width: 2; stroke-linejoin: round; stroke-linecap: round; fill: none; mix-blend-mode: normal;"/></g><g id="Express-svg"><text transform="translate(20, 107.609375)" fill="rgb(51,51,51)" style="font-family: BentonSans; font-weight: 400; font-size: 12px;"><tspan x="0" dy="12">Express</tspan></text></g><g id="Local-svg" clip-path="url(#rect-mask-Local-2)" transform="translate(72, 104)"><clipPath id="rect-mask-Local-2"><rect x="0" y="0" width="16" height="20"/></clipPath><path d="M1,10 L15,10" stroke="rgb(193,106,81)" id="Local" style="stroke-width: 2; stroke-linejoin: round; stroke-linecap: round; fill: none; mix-blend-mode: normal;"/></g><g id="Local-svg"><text transform="translate(92, 107.609375)" fill="rgb(51,51,51)" style="font-family: BentonSans; font-weight: 400; font-size: 12px;"><tspan x="0" dy="12">Local</tspan></text></g><g id="Rail-svg" clip-path="url(#rect-mask-Rail-3)" transform="translate(130, 104)"><clipPath id="rect-mask-Rail-3"><rect x="0" y="0" width="16" height="20"/></clipPath><path d="M1,10 L15,10" stroke="rgb(132,183,201)" id="Rail" style="stroke-width: 2; stroke-linejoin: round; stroke-linecap: round; fill: none; mix-blend-mode: normal;"/></g><g id="Rail-svg"><text transform="translate(150, 107.609375)" fill="rgb(51,51,51)" style="font-family: BentonSans; font-weight: 400; font-size: 12px;"><tspan x="0" dy="12">Rail</tspan></text></g></g><g id="after-body-svg"/><g id="above-footer-svg"/><g id="footer-svg"><g id="footer-inner-svg"><g id="footer-main-svg"><g id="text-svg"><text transform="translate(0, 382)" fill="rgb(136,136,136)" style="font-family: BentonSans; font-weight: 400; font-size: 11px;"><tspan x="0" dy="11">Chart:</tspan></text><text transform="translate(34, 382)" fill="rgb(136,136,136)" style="font-family: BentonSans; font-weight: 400; font-size: 11px;"><tspan x="0" dy="11">Jeff Hargarten, Star Tribune</tspan></text></g><g id="text-svg"><text transform="translate(174, 382)" fill="rgb(136,136,136)" style="font-family: BentonSans; font-weight: 400; font-size: 11px;"><tspan x="0" dy="11">​ •</tspan></text></g><g id="text-svg"><text transform="translate(185, 382)" fill="rgb(136,136,136)" style="font-family: BentonSans; font-weight: 400; font-size: 11px;"><tspan x="0" dy="11">Source:</tspan></text><text transform="translate(226, 382)" fill="rgb(136,136,136)" style="font-family: BentonSans; font-weight: 400; font-size: 11px;"><tspan x="0" dy="11">Metro Transit, Minneapolis Fed</tspan></text></g></g></g></g><g id="below-footer-svg"/></g></svg>